<mxfile host="65bd71144e">
    <diagram id="A6bEVRC_AFHFlM3PqsWQ" name="Page-1">
        <mxGraphModel dx="832" dy="452" grid="1" gridSize="10" guides="1" tooltips="1" connect="1" arrows="1" fold="1" page="1" pageScale="1" pageWidth="850" pageHeight="1100" math="0" shadow="0">
            <root>
                <mxCell id="0"/>
                <mxCell id="1" parent="0"/>
                <mxCell id="56" style="edgeStyle=none;html=1;entryX=0.017;entryY=0.533;entryDx=0;entryDy=0;entryPerimeter=0;" edge="1" parent="1" source="5" target="37">
                    <mxGeometry relative="1" as="geometry"/>
                </mxCell>
                <mxCell id="5" value="" style="aspect=fixed;html=1;points=[];align=center;image;fontSize=12;image=img/lib/azure2/networking/Load_Balancers.svg;" parent="1" vertex="1">
                    <mxGeometry x="222" y="340" width="58" height="58" as="geometry"/>
                </mxCell>
                <mxCell id="18" value="" style="aspect=fixed;html=1;points=[];align=center;image;fontSize=12;image=img/lib/azure2/databases/Azure_Database_MySQL_Server.svg;" parent="1" vertex="1">
                    <mxGeometry x="420" y="872" width="39" height="52" as="geometry"/>
                </mxCell>
                <mxCell id="54" style="edgeStyle=orthogonalEdgeStyle;html=1;" edge="1" parent="1" source="20" target="5">
                    <mxGeometry relative="1" as="geometry">
                        <mxPoint x="210" y="369" as="targetPoint"/>
                    </mxGeometry>
                </mxCell>
                <mxCell id="20" value="" style="shape=image;verticalLabelPosition=bottom;verticalAlign=top;imageAspect=0;aspect=fixed;image=data:image/png,iVBORw0KGgoAAAANSUhEUgAAAgAAAAIACAYAAAD0eNT6AAAACXBIWXMAAAsTAAALEwEAmpwYAAAgAElEQVR4nO3dCXxV9Z33cbV2pntta+szT6fLTH26sKoJoEIIIkgCCQlLEIGbBAJh3wlbknPYs5xzElHUoqXWXVNFXEAgJ4Scm5wLlq6j7Tx92lkcp7ZPn3Zat1oRznNOUAeVJcu993eWz+f1er9sOzNtR27+33Nv7j33gguIiIiIiIiIiIiIiIiIiIiIiIiIiIiIiIiIiIiIiIiIiIiIiIiIiIiIiIiIiIiIiIiIiIiIiIiIiIiIiIiIiIiIiIiIiIiIiIiIiIiIiIiIiIiIiIiIiIiIiIiIiIiIiIiIiIiIiIiIiIiIiIiIiIiIiIiIiIiIiIiIiIiIiIiIiIiIiIiIiIiIiIiIiIiIiIiIiIiIiIiIiIiIiIiIiIiIiIiIiIiIiIgoTQ0YPePjGXmxL2eMmX7VoNxYZuaY2ChPRk5srKvobWPf+dc7/3dyYld6/zfe/630f38iIiJ6X/3HTfuMN9gZOcWT3fGuyMgtvi0zt3hvZm7sp+6ov5iRG/uL+8+d3vD+Pbx/L+/f0/v3dv+zdmTmFK/y/jO9/+yBBSWXSP99ICIiCmeqetHgnOl9MnNmTHVHuMYd46fdYX6ht+OeNDnF/9753yknts3773jl2Ni33P/WF0r/bSMiIgpUGXnlH3PHdJg7rktdTe7A/l585Lv7ykFO7OWM3OJm90JlQ+evHNz/n6T/vhIREfmuzHEz/9EbfG803WfTb0gPeNIvCHKLj2fmxNozcorXXDWuJOMCXiEgIqIolpFR/uFBY0ty3EG80x3H/5Ae6PRfEMRecO10//+/ITs7+2LpPw8iIqLUpaoXnXppP7bdHb7fSo+wX7gXAn9w/37cm5kzI9+7MJL+YyIiIkpKmWOmf8MdOc0du99Jj63fuRdIL2XmxOqGjCv9X9J/bkRERN3u8pzFf9v5GfvO3+kXn5Qe1kDKiR3LzCkp5w2ERETk+4bkT73MHa7N7vD/P/EBDQvvUxA5xZsGjJ7xBek/XyIiovfkvWT99u/2XxcfzLDKKf6r916BQWOK+0r/eRMRUcQbNLbkiozc2BOZvMyfxguB2An37/nuK3OKB0j/+RMRUcTy7nZ36p3rsRPigxhdJ90/g6cG3zBjoPTjgYiIQt6QMSVfdZ993s/w+4d7EfCWdzHmfYGR9OODiIhCVufteXNjG/gdv3+d+rOJ1V47ftYnpR8vREQU/C70Ps536gtv5EcOXRH7T+/jg96Nl6QfPEREFMC8b+Bzn1V2yA8aeiiecUPJN6UfR0REFJC829F6X1oTxi/liZ7Ym96vBbwbM0k/roiIyMcNGhO7JiM39pz8cCGpcmI/yxg7Y4j044uIiHyW9410b7/J7y3xsUJKnPqzjdXyhUNERNSZ99E+77vqpQcK6RI7euUNMy6XftwREZFgGTkzytxReEV+lJBOGTmxl10l0o8/IiJKc9nZJR9xh+A70kME6QuB4nuvLir6qPTjkYiI0lDmDaVfysiNPSs9PvCHjNziHw0ePeMfpB+XRESUwjLGFl/nHvq/kx4d+Iv39c0ZOcU3SD8+iYgoBXl3h3MP+uPSYwN/6vxOgdziRdKPUyIiSl4Xeh/xkx4YBEVsO7cRJiIKeN6X+GTmFO+RHxUEiXvBuNt77Eg/fomIqAcNuj72Oe8z39JjgmDKyC22+4+b9hnpxzEREXWjIflTL3PH/6fSI4Jgcy8Cns8YM/3vpB/PRETUhbwDm/v5I1nci4B/Hpwz/e+lH9dERHSOMsfN/Ef3wP4X6dFAuGTkxH7NvQKIiHya9yyN8UeqZOTGXrhy7LSvSD/OiYjotAaMnvGFzNzYL6RHAuGWkRP7Je8JICLySRl5N13K7/yRNjmxn3mfMJF+3BMRRbrBOdM/5R7KPxQfBUSK910SfbKLPiH9+CciimQZGeUfzsyNHZAeA0RTRk5sX3Z29sXSPwdERJHLHf/bpUcAEZcTu0v654CIKFK5h+968cMf8OQUr5L+eSAiikQZObEi9+A9KX7wA56c2IlBOcUTpH8uiIhCXcYNJd/MyC3+s/ihD7zXK4NzpveR/vkgIgpl146f9cnMnOKf++CwBz7Au2VwxqjyT0v/nBARha0L3QP2MelDHjinnOI93mNV+oeFiKjXqap6sdrY+NVqw7hO0YyZiq5vVHX9TtduRTfaVE1/TtH0X7v+oOrGH10vu//6ibf/8R/df/xS5/9c13/sOqBqxoPuX291/73WqFrDFNUwBq/bvv3z5/vv4R6u68QPd6ALMnJjK8/3eD7Q0fEFs80e3NyeuNGMJ9a0WIlb3b8+2GLZB00r8eOWuP1rM26/5P5rf/S4//oJ919/+dQ/Tvyh839u2c+5/7zN/ee73f/dO1viiY3uP57ZHE+MaG1NfLW1tZWPKBJR11J37PiEN/TuuK9wfc8d6x+5A/5Xd8idVOu8gND0Q+5/5s3uf/Ystb5+gHvxcZH33+uqcSUZmbmxN6UPdqBrYm9m3FA82HvsNjU1faglfmSgO9Blru3ukLd2jng84aTBG64fuhcF32u2EivM9iPXHTjwk4/LnjJE5IvcZ/aXuIM/6dToGsfcsT+ejrHvhj+tr9UOXDN+5u/lD3Wg64ZPLP/D0wdbD7qD/+c0jX2XuBcfx03L/oH73+tm959PbG4+xnsWiKJSVUND31Mvv+uHfTj4HzChbJn4YQ70xKLKOvHB79IFQTxx2L0oWG1aR/gUA1HY8n6Hr+j6UtcPpQe9O+auVsQPcaA3bt31kPjId4/9vPvXDS3t7d+QPreIqId5v89X6o057pA+Kz3kPbG+pt65tqBM/AAHeuO6yfOcp5oP+2DYe+So994F3jdAFJBUTeunavq33RF9WXrEe6OQl/4REgvX10oPee9472OwEne0xI/2lT7fiOgMqbo+TNGMpxRNPyk93r21qHKjkzm2RPzgBpJhkPtY3nnfo/JDngRmPNFuxu186fOOiNyqtYZ8dzSPSY92slTVa87wibPFD20gmcZMW+zsb42LD3jyXhVIPNvSnhgrff4RRbLOZ/zejXh8MNrJNHVBhfhhDaTCum23yg93sl8RsOzEIavjeunzkCgSeR/jUzXjoPRQp8KaLbXOkHGl4gc1kArX5M9yHn36oPhop+RCIJ7Yf/Bw4lvS5yNRKFtbU/MZ91l/bbruzCchv3SJ+CENpNKcVZvFxzqFFwHHzbi9s7X12KXS5yVRaFI0LaZoxu+lBzqVllRv4o1/CD3vDYG7HtwtPtYpZSV+1xK3p0mfm0SBbn1Dw9+5w/+49DinmqLpzvVT5oofzkA6TCyr8H53Lj/UqX5FwLL3NsfjX5Y+R4kCl6rrs9WAf5a/q7jjH6ImeHcI7OmrAZ33EJgpfZ4SBaI1tbWf9r4yV3qU0/bs3zWyqFz8QAbSKa94WSReBTjt1YDH9tv2Z6XPVyLfpmracHf8X5Ae5XSas6pa/DAGJNx81/3iw5zei4DEvx2y7KHS5yyR71J1vVzV9DelBzmtNN0ZMXmO+EEMSBgbi9arAJ0XAae+fXCN9HlL5ItUVf2Iohl3i4+xxLP/iirxQxiQFLVXAd5lJe5/8tixj0mfv0Ridb7LP2Bf0ZtMo6bOEz+AAUmFZSvlx1juIuBZM5G4TPocJkp7qqb1cUfw36RHWMqiyk3ihy/gB6G/L8A5mHH7X7mDIEUqd/xHuCP4R+kRljQ2tkj84AX8oGSpKj7Ewq8E/KE5nhgmfS4TpbxqTctVNf116QGWtHLjNmeQDw5ewA+8uwM+8sQz8kMs642W9sR46fOZKGWpup7njv8b0gMsbXL5CvFDF/CT5aohPcDyLPuv7l8nSp/TRElP1RqmKLpxXHp8pVXX686142eJH7iAnwyfVO4cONwhP8LCTMt+syVuF0mf10RJy33mPz5yn/E/C278A5xZ450R/UjgGS4Cmq2OPOlzm6jXqZo20n3m/xfp4fWLG6YtED9oAT+aumC9+Pj6hWklXm+OJ0ZIn99EPa5a04Yomv6K9Oj6RcXmGr7yFzgL782Ajz51QHx8/cK9CHi5tf1opvQ5TtTt1MbGr6qa/lvp0fWTaQsrxA9ZwM+q6m4XH14/MeP2Sy0dHV+RPs+Jupy6ffun3PH/mfTg+s0IvvUPOKf80hXio+s/9vOtra2XSJ/rROdNVdWLFV1vlh5bv1mxcav44QoEwUN79vlgdH3nmaampg9Jn+9E50zVdV16bP3opgW8/A90xfqaW6XH1q+2Sp/vRGetur6hQNH0k9Jj60cjJvPyP9AVecXLpIfWl0zLPtnCjYLIj1XVNX7DHbqXpYfWj1Z77/73wcEKBMWjTx8UH1w/MuOJ/2ppb/+a9HlP9G7lO3d+2B26Z6WH1q9Kl60TP1CBINm2fZf42PqVadk/OHbs2Ielz32izhTNqJEeWT/jm/+A7on8NwSe3wbpc5/I+73/UFXT35IeWb/y7v1/df5M8QMVCJKhBWXOwcPt0iPrW2Y8cby5vf0a6fOfIpyq7vyYO3K/kh5ZP1u4foP4YQoE0V33PyY+tP5m/7K1tfUj0jtAEU3RjDrpgfW7m+bz8T+gJ/g4YJcuArZI7wBFMLW+fgDf8Hd+Y/jyH6BHpi2s9MHA+pv3q4DW9vYrpPeAIpSqqhepvOv/vBSN3/8DPTW0cLb3jnfxkfU9K2E7jnOh9C5QRFI0Y6b0uAbBMnWL+CEKBNl9jz4tP7ABYFqJGdK7QBFI3bHjE4pu/Kf0uAZByVI+/w/0xpab7xQf10CwEi8eOPCTj0vvA4U8VTO2SA9rUBTOWiZ+gAJBNn/tNvlxDQjTslXpfaAQp9bX/w9F11+THtagGDllrvgBCgRZ4axV4sMaFGY88YplWZ+X3gkKae74N0qPalB4bwAcPK5E/AAFguya/Fm8EbB76qR3gkLY+oaGv1M1/XXpYQ2KlRu2ih+eQBg8vOcZ6VENEPtVM5G4THovKGS5z/63S49qkMypqBI/OIEwuPmu+30wrAFi2br0XlCIWltT8xl31F6VHtUgmbZgtfjBCYTB+pod8qMaIKaVeLm1tfUS6d2gkKTq+nrpQQ0aPgEAJMf8dTXioxo4bXaF9G5QCCrfufPDim78h/SgBs0N3AIYSIqp89bLD2rQWIkXm5577m+k94MCnqLr06XHNIiyCmeLH5xAGNxw0yL5QQ0g00pMld4PCniqph+WHtOgUep1J3MsHwEEkmHwuFKnua1DfFCDxownTOn9oABXWV//NUXTT0oPatCs3lIjfmgCYbJ7b7P4oAaNadknW9rbvya9IxTQFM2okx7TIFqm8CVAQDLd+/0nxQc1iNyLgM3SO0IBrPMrfzX9N9JjGkQL1m0QPzCBMLnjnibxMQ0m+wW+Kpi6XbVhZEsPaVDNXslNgIBkMr59nw/GNKDaOq6V3hMKWKpm7JAe0qAqXrpW/MAEwmRTI18L3GNWolF6TyhA8fJ/79y0oEL8wATCZO22W+SHNKDMuP0fquNcJL0rFJCq6xuvkR7RIJsyd6X4gQmEycqNDeJDGmTNHR2DpHeFApKi6xulRzTIJs9ZIX5gAmGyTNHERzTgqqV3hQKSoulHpUc0yCbO5nsAgGRaVFknPaCBZsYT7dK7QgFI1fVLFd04IT2iQVZYxgUAkEzz1mwTH9GAe2u/bX9Wel/I56maNll6QIOuoHSp+IEJhMnsis3SAxp4ptVRKL0v5PPcAWuQHtCgyy9ZIn5gAmEya+Um8QENOjOeqJfeF/J57oAdkR7QoCuYxSsAQDKVV2wVH9Cgcy8AOqT3hXzccsP4qKIbf5Ue0KCbwHsAgKSav65GfEBD4I3W1taPSO8M+TTVMK6WHs8wmDSbjwECybS4ql56PEPBbLMHS+8M+TTFMOZKj2cYFJVzAQAk03JVFx/PMDDjdpn0zpBP4/7/yTFl3irxAxMIk1WbGsXHMxQs+2bpnSGfpuhGm/R4hsH0havFD0wgTKrqbpMfzxAw43aL9M6QT1M1/f9Kj2cYlC5fJ35gAmFSc+su8fEMA/cC4CXpnSEftlLTPi49nGFRvloRPzCBMLnlOw+Kj2cYmJZ98sljxz4mvTfks1RN6yc9nGGxqHKj+IEJhMl3HtwtPp5h0drR8U3pvSGfVa1p46SHMyxWbNgqfmACYfLQ43vFhzMsmi07R3pvyGcpuj5fejjDYu22OvEDEwiTJw8eEh/OsDDj9lzpvSGf5V4AqNLDGSZD8krFD00gDIYWlImPZshUSe8N+SxVM26RHs0wGTG5XPzgBMIgr3iZ9GCGi5VolN4b8lmKrj8gPZphMja2SPzgBMKgeKkiP5ohYsbte6X3hnyWounPSI9mmEyaw+2AgWRYpmjioxkmpmXvld4b8lmqrlvSoxkmsSVrxA9OIAw2GjvFRzNULLtVem/IZ7mjdUR6NMNkwboN4gcnEAY773tUfjTDxErY0ntDPkvVjB9Jj2aYrN1aK35wAmHwxH4+AphkP5TeG/JZim48Lz2aYXNtwSzxwxMIsusmz5Mey9AxLfs56b0hn6Vq+s+lBzNscqYtED9AgSC7aUGl+GCGj/1z6b0hn+VeAPxEejDDpqh8pfgBCgTZctXwwWCGi2klfiy9N+Sz3MF6Vnoww2bOqmrxAxQIssY77xcfzLAx4/YR6b0hn6Xqerv0YIbN6q014gcoEGS79zWLD2bYmPFEm/TekM9SdL1ZejDDaNiEMvFDFAii0VMXio9lGJmWfUB6b8hnqZrRJD2WYZRfukT8IAWCaE7FFvGxDCf7Iem9IZ/lXgDcLj2WYVSydJ34QQoE0dbt3/HBWIaQlbhVem/IZym6vll6LMNo5Yat4gcpEEQP73lGfizDaYP03pDPUuuNZdJjGVZZhbPFD1MgSEbftEh6JEPrkJVYIr035LNUTZssPZRhNaFsufiBCgTJ4qp68aEMKzNuT5DeG/JZakNDpvRQhtW8NYr4gQoEyY7vPiQ+lGHVfLjjSum9IZ+l6vql0kMZVlV1mjNoXIn4oQoEwZC8mc6+Fkt8KMMqHo9/RnpvyIcpmv6K9FiGVe70heIHKxAE0xdViY9keNl/kt4Z8mnuUB2THsqwmrWiUvxgBYKg/vZ7fDCU4cRtgOmsKZpxt/RQhtX62npn8Fh+DQCcy9V5pc5es018KEPsLumdIZ+m6voK6aEMs7GxReIHLOBnJUtU6YEMNT4CSGdNrW8YJT2SYVa2kl8DAOeif/te8ZEMM7P9yHXSO0M+be22Wz+naPpJ6aEMq8raemdIXqn4IQv40dCCMt79n0qWfYJPANA5UzTjF9JDGWbcFAg4s4WVtfIjGWKmZT8nvS/k89wLgF3SIxlmS5XN4gct4Ef3fP9J8ZEMMzNu75TeF/J57gVAmfRIht3Iornihy3gJ/kly8UHMvzsYul9IZ+nGsbl0gMZdnxFMPBeW26+ywcDGW6trYmvSu8LBSB3pH4lPZJh5t0a+Jr8meKHLuAHwyfM4c1/KWZaiV9I7woFJFUzdkiPZNhNmbdK/OAF/KBic6P4QIaelWiU3hUKSNVaQ770QIbd2q213BkQked9LHb3vmb5gQy5ZsvOkd4VCkiquvNj7ki9Kj2SYVcwa6n4AQxImrdmm/g4hp1pJV62bfuj0rtCAUrVjCbpgQy7FeoWJ5NXARBRg9zH/gO794oPZOhZiful94QClmIYRdIDGQXjiheLH8SAhFkrNsqPYwQcajtSIL0nFLD4NUB6rNyw1Rnkg8MYSCfv2f9De/aJj2PY8fI/9ThF0++THsgoyC9dIn4gA+k0p2KL+DhGgRm3vyu9IxTQVE0bIT2OUbBq07bOZ0TShzKQDt5j/eE9z4iPYxQcsuyh0jtCAY4vB0qPiWXLxA9mIB0WVdaJD2MUmFbinx3HuVB6QyjAqbq+Wnoco2Dttjrn6ny+KhjhllU423ny4CHxcYyGI6uk94MCnmoYn1V5M2BaxBavET+ggVTaaOz0wTBGgGW/1nz06Oek94NCkKLrd0iPYxRUa7qTPWmO+CENpMLY2BLn4OEO+XGMAitxq/RuUEhSdf3rim6ckB7IKJi3RhU/qIFUuP17j8gPYxRY9olW275cejcoRLkXAU9Kj2NU5JVwcyCES9nKzfLDGBGmZT8mvRcUsqp1PUPR9JPS4xgF3hsC+bpghEXWxDnOE/tbxIcxCtzxP9na3n6F9F5QCFM04wnpcYyKmcsrxQ9uIBnqbrtbfBijwozbj0rvBIW0Kl2/klcB0sP9++yMmTZf/PAGemPq/HXes1LxYYwC79l/S/zIQOmdoBCn6Poj0uMYFas31zhX86sABNSwwtnOo08fFB/GqDCtxAPS+0Ahr1LXv+ReBLwmPY5RUbaySvwgB3pC//a94qMYFe74v97S0fEV6X2gCKTq+jbpYYyS8TP5siAEy9zVfNlPmm2Q3gWKSBV1dZ9UdOMl6WGMispazcmaMFv8UAe6YvRNi5x9Zpv0IEaHlXjxwIGffFx6FyhCqZoxVXoYo2RJ9SZnMN8YCJ+7Oq/U+d4jT8iPYrRMlN4DimB8LDC9SpetEz/ggXOp2fFd6TGMFDNuPy29AxTR1Nqbv6xo+ivSwxglhbP42mD4U3nFVvFBjBLTSrzc2nrk76V3gCKcouvzpUcxSqrrdef6KXPFD3vgdONLlzv7W+PioxgpVmKO9PlPUc9xLlQ04ynpYYwS7/4A1xaUiR/6gGdk0Xxn995m+UGMEDNu75E++ok6UzXtC6qm/1Z6GKNkmbrFGZJXKn74I9quGT+LN/2lm5X4nZlIXCZ97hO9W7XWkM9tgtNr/toNTiafDICQQe5j75bvPig/iFFi2ScOtXWMkT7viT6Qohk10qMYNcVL+GQAZGxqvFN+EKNng/Q5T3TGVFW9SNH1A9KjGDU3zlslPgaIljVbtksPYRQ1NzU1fUj6nCc6a+u2b/+8exHw79KjGDVT5q4UHwVEw9JqTXoII8eM2//afPTo56TPd6LzVtXQ0NcdpT9Jj2KUeF8fPKFsufg4INzmrtnK1/umm2X/ufmw3V/6XCfqctW6PkbRjePSwxgp7kVAfilfHITUmL1qE+OfZu7f7zfNeGK09HlO1O24SZDMRQB3C0Syza7Y7DS3dYgPYtSYbfZs6XOcqMe5FwHV4qMYMd6vA4rKV4iPBsJhUWUdz/xlrJU+v4l6naIZddKjGDXeRcCUebwxEL2zalOj9AhGk5VolD63iZKTd7tgXb9DehSjaPqiNdwsCN3m3eRH0e6QH8IIMuP2bY57Zkof20TJ69RFQKP0IEZR+WrFGTyO2waja67OK3WMb98nPoRRxPhTqFM1Y5P0IEbR0upNzrUFs8THBf6WNXGO850HHhMfwmiya6XPZ6KU514EVPG9Aem3atM2Z/jE2eIjA38aG1viPPLEfh8MYbSYln3SjCfWSJ/LRGlLNYxiRTf+Kj2KUVNVpzl5JYvFxwb+EluiOE+bbeJjGDmW/VfTSsyQPo+J0p6qaSNV7hiYdt4nBGYs5s2BOPVmv7XbbuFjfgLc4X+Zb/ajSOdeBPRRNON/S49iFC1Yt6Hz+9ylRwgyRkwqd3be+33xIYwid/x/0drR8U3p85dIvIq6uk+qur5behCjaN22Wid3xkLxMUJ6TV2w3nl8X4v4EEbUU62trZdIn7tEvsn7KmFVMxRV09+SHsWo8X4lULJ0nTN4HL8SCDvvI37V9bfzkr8AM5447v59X8/H/IjOUrWmDXFH6VfSoxhFy9UtzojJ5WkdpAwfjGJU5BUvc+5/9CnxIYwi00r8W3M8MUz6fCXyfWpj4yWqZjwsPYiRo+mvV9boCzNyitdk5sbekB4sJEvsTVftU+bhpe4QvS49hlHjPvN/sLn52Kelz1WiQFWtNeS7o/Si+DBGgKIZ8aq6xm+88/c+c9yMfu5oJOTHC73hXsx1DBpT3PedP9eW9vavmXG7pftDxq8Mus2yf+v+fSuSOT2JQpD3aoCiGzu5cVDK/EnR9aXeezA++DdfvSgjJ7Y4Myf2X9JDhm7KKf6j++e24IIz/Ll6v4M+FD9S7g7Un8VHMryamo8e/VxaDkmisFdZXz/KvQj49bvPWOWHM9DcZ/wnFU17quLWW//n+f7eX31D2Wczc2PbM3KLj4sPG84z/LET7rP+eweMnvGF8/25mrb9xRYrscd10geDGRa/bo3HRyXn1COKcKphXK5qxhJ3sPa5z1Jfkx7NUNL0F92LgV2KYRSp27d/6v1/Bhl5N12akRMr8kbF/evL4gOHc3Iv0l53/6yeyswpKb9y1KwPXNx5v4tuidtTTCuxyx3+//TBYIaQ/app2XtbLHux9yuX9JyWRCFovWF8sfMlaV1v52X/tF8MvOFeDDw1c2WlMiRv5taM3Niz3jNK6VFDD3X+2cWOXp1Xukmtv32ZGbfvdUfpNfmBjBr7efevG5rjz/6j9PlK5LvcZ/qf7fxuAHd8uA+AjJUbtzo3LaxwsifNkR8upMToqQudVZsanYcef8YHoxhBln3CjCfaXUvNROIy6XOXSKzOG//oep77LH+vohvHpQcwitZsre28AdDoqfPFxwnpNTa2rPM7AJqePCA/jBHUeVOguP30obYj41TH+eAbcInC2Jra2k+7w1/uPtv/hfQARtH62nqnbGWVkzN9IV8GhE6FM1c6mxp2Ok/s59bAMuxfe18H3Np67FLp85koJVXp+pXex/ncEXpVegSjaHHVJie/dIkziNv94iy8bwacsbi68wuCuFWwiDdavI8PtrdfI31eE/U+x7nw1Mv8Rlx6AKOoslZzZi6vdK5L8+19EXxjpi3u/M6AJw8ekh7FaLJsy/v1AN8bQIHL+/2+dxc/RdN/ID2CUbRM3eJMnL3MGTKuVHxIEGzelwfNWrGRrw2W87OWuF3c2tp6sfS5TnTO3OG/2H22P/P0G/YgParrTz3bHzllrvhoIJzGly53tt2yy9nfGpcexTFtgGkAAB5PSURBVMgxrcSvzLZEaVNT04ekz3mi9+Q94++8kYyu/7P0EEbNupo6Z8biNc7QwjLxgUA0ZE+c2/lxwsefMcWHMXrsf/Fu48yFAPmi6vqGAkU3/kl6CKOmYnONU1S+gpf5Icb79UB5xVbuKyDjZ2bczpc+/ymiqQ0NmaqmH5YewqhZsWHrqXfz+2AAAI/36QHvfQIP7N4rPYrRYyXslraOa6X3gCKS2tj4VVUzHuQ2vWke/o1bnYKZS/nsPnzrnY8R3vv9J+WHMUJMyz7pXgjc3xyPf1l6HyikLTeMj7rDv0HRjb9Ij2GUvDP8PONHULxzIXAPFwJpvhBIvO7+dUNra+tHpPeCQtTbH+njnf1p5P2OP79kCc/4EVidvxpYucl55In94uMYJd4nBpqtjjzp3aCAV6lpX+n8gh4fDGJUeO/qv3HeKmcwd+xDSAzJK3UWrq/lUwNpvxCwn+DXAtTt3v6innJ3kF6WHsSoqKyt7/w439X5M8UPbCAVrh1f1vnxwb1mm/g4RoZlv+Z9zwAfG6QupWpaP0XTE9KDGBWKa+aKSmdowSzxAxpIhxGT5zm1O+7m+wbSeiGQsFviR/tK7wv5NO8ufqpmVKma/qb0KEbFMmWLM3rqPPEDGZBQMHOls+vB3fLjGBWW/Vf3oms9rwbQe1IbGv6RL+xJnzVb6zrv1c87+xF179xD4LG9zfIDGRFm3D7SbB39uvTukHSOc6Gi6wtdr0mPYhQomu7Elqzl9/zA+wwtKHM2GDv5tUDa2K+2WIn5fNtgRFN1/VLe4Z8+y9UtzvU38kU9wLnkl65w7n5kjw8GMhrcC64DZiJxmfQeURqrNoxsVdNflB7FKKiq0zo/1sfn+YGu8X4t4H1scB+fFkjPRUDc/o+Wto7h0rtEKa6oqelD3t383PF/S3oYo2DeWoVv6QN66PobFzg77n5YfCAj4i3TshXVcS6S3ilKQWu33fo5d/z3S49iFFTWap1v8pM+QIEw8N4k+PTBw9IDGQ2WfehAR8cXpPeKkpha33iFO0z/Ij2MUbBg3QZnGM/6gaS6bvI8Z8d3H5IfyEiwX2ju6BgkvVuUhFRdL+ULfFLPu5Nf57N+ftcPpIz3asBTzbwakGqnvljILpbeL+phnb/v1/Va6WGMgqXKZmf4xNnihyMQBaOnLnR2PfS4+EhGgRm3t3PjoICl7tjxCUUznpAextDT9M779w/ii3uAtBo8rtRZu+0W7huQHs80Nx/7tPSuUReq1LR/UHTjn8THMeTWbKl1brhpvvhBCETZlHlrnd37uItg6tk/beno+Ir0vtE5UuvrB7jj/5/S4xh2c1crzjXczQ/whayJc5xbvvugD0Yy3My4/ZLZZl8lvXN0hqp1/XpF0/8sPY5h5t3Kl5v6AP7j3TxomaI5Bw93iA9lmJnxxCvNlp0jvXd0WqphzOBb/FJr7bY6J2faAvGDDsDZFc1d6zz+jCk+lKFm2X9tbrenS+8euSmattx9ZnpSeiDDbHHVJu7oBwTEiMlznZ33PSo/lCFmWvZJM55YKr1/kU7RjDXS4xh2sSVrOl9elD7UAHSd9ykB79sFpYcy/Oxa6R2MXt7X+GqGJj2OYVZdrzuFZdzOFwiyOas2O/tb4z4YylCrk57E6OSOv6oZt0sPZJit21bHR/yAkJg4p8LZs79FeiRDzYwnbnHcbZKex3B3avx3SA9kmC3fsMXJmsBd/YAwGTllvnNP0xPiQxlm3l0DuQhIYYpm1EkPZJiVr1Y6f3cofVgBSL5rx5c5t+zifgEpZSUapXcylLnjXyM9kGFWsnSdM8gHhxSA1PHe0Lu58S75oQwxM55okN7LUKVqxibpgQyrd2/u44PDCUB6eDcN4nsEUngRYNmq9G6GIkXXF0qPZFh57/QfX7pU/DACkH4zl23gEwKpZNnLpfcz0Hl3+FN044T0UIbR+tp6Z/RU3ukPRNmUuWudvWab/FiGkHezoBYrMVN6RwNZtdaQ747/cemhDKN122qdkUVzxQ8fAPIKZq50njjQKj6YYeReBLzZ0p4YK72ngapa1zPcoXpVeijDaPXWGid70hzxQweAf4yNLXF27+VrhVPCsl8z2+zB0rsaiNYbxhdVTX9ReijDaNWmrc6wCdzTH8AHjZ660Gl6cr/8YIaQGbd/0xyPf1l6X32dun37pxTd+Kn0UIbRcnWLM7RglvghA8C/rps8z3lg917xwQwn+/nW1tZLpHfWl6mqerGqGQelhzKMvLv7XTOe8QdwfiMmlTv3P/a0DwYzfMx4Yn9TU9OHpPfWd7njf7P0UIYR4w+gu7yLAF4JSNFFgGVr0nvrqxRNi0kPZRitUBl/AD3DRUAqdcyS3l1f1PmOf01/XXosw8Yb/2sZfwC9wEVAapjxxF8i/8mAddu3f553/Cffyo1bGX8ASTFi8lzn4T3PiI9m+NgvtLYeu1R6h0VSVfUiVTP2S49l2Hif888q5Ot8ASSP93XCjz590AejGS5mPGFG8k2B7vgr0mMZNmu31TnZk8rFDwsA4ZMzfbGzZ3+L+GiGjWklKqX3OK2pmjZC1fS3pAczTLx7+3N7XwCplFe8zHn64GHx0QwVyz5hxhOjpXc5Lam6fqk7/r+RHswwqXTHf9TUeeKHA4DwmzR7tbP/EN8imOSLgN+aicRl0vuc8hTNeEJ6MENF051xscXihwKA6Igtrnaa2zrkhzNEzLi9R3qfU5qi6/PFBzNkJs1ZIX4YAIiehetrxUczbA7Fj5RL73RKqmps/JZ7AfCa9GCGyfSFq8UPAQDRpWh3iI9mqFj2a60dHd+U3uuk1nmff914Vnoww2RORZWTObZE/AAAEF2D3DNIv+Me+eEMETNuHwnVRwNVXV8vPZhhsrhyozOY8QfgA1fnlTq7HnpcfDjDxLTs1dK7nZTc8f+moht/kR7NsFi9pYav9QXgK9kT5zqPPnVAfDhD5I2W+NG+0vvdq4qamj6kaPpR6dEMi8rOz/pzox8A/jO+dLnzzCFLejhDI/C/CnCf/a+QHs2wcC+knPzSJeI/5ABwNqXLN3gvX4uPZ1iY8cRS6R3vUZW6/iV3tF6RHs6wmDp/lfgPNwCcz7ptt4oPZ1iYVuJl07a/KL3n3U7RjMelRzMs5q5WeMc/gEDwPhlw666HxMczRJqk97xbVWtarvRohsWqTducq/NLxX+oAaCrvG8kbXqSNwUmS7PVkSe9611quWF8VNH0f5UezjCortedkVP4gh8AwZNfspzvDEgS00r8at++fX8rve/nTdWMKunhDIvCsmXiP8QA0FNzKraIj2dYmPHEGul9P2frbr75Mne4XpYezjCYubxS/IcXAHqrdsfd4uMZBt4bAtvajv2d9M6fNUXT75EezjBYsWGrM3gcb/oDEHzX5M9yHty9V3xAw8C9CNglvfNnrFrXMxTdOCE9nkHX+Xt/bvYDIETGFS9z9rfyfoBes+wTzYc7rpTe+w+kaoYpPZ5hMGnOcvEfVgBItmWKJj+g4fCM9N6/J/fZ/2jp4QyD+WtVPu8PIJS8+wPs+O5D0uMZDm1HRkrv/qkc50J3vI5Ij2fQrd1a61w7ni/5ARBeIyaVO48/Y8oPaPAdddztlZ7/CxTDKJIez6Dz7vOfM32h+A8nAKTajMXV0uMZCqbVUSi7/u4ViKIb/yQ9oEFXunyd+A8lAKQLHw1MxgWA/RPRVwF49t97qzfXOEPyuNUvgOgYWjjbeWxvs/iIBt2htiMFMuvf+exf/6H0gAaZ99J/Li/9A4igqfPX8dXBvfcjkVcBqusbCqQHNOhKlvHSP4Do2nbLLukBDTwznshN+wWA++z1qPSABtnqLbz0DyDahhaUObv38auAXl4AdKR1/KsNI1t6QINubGyx+A8fAEiL8amAXmtub78mbRcAqq4/KT2gQVa+ulr8hw4A/OKWXQ+Kj2iQmXH70XSN/9e553/PVdbWO0MLy8R/4ADAL0YWzXf2mm3iQxpgb7W0t38t5RcAiq7fIT2iQca9/gHgg5YquvSIBpoZT9yS0vFfU1v7aXfEXpUe0aBaUr3ZGeSDHzQA8BvvuwLuaXpCfEiDyr0AeGXfkSOfStkFgKoZS6RHNKgU16ip88R/yADArybOqeDeAL1hJean8AJAf056SINq1opK8R8uAPA7/Y575Ic0sOznU3JjIFXTRkiPaFBV1Wm88Q8AuuC6yfOcfbwhsMfM9iNZSb8AUHT9IekhDaop81aK/1ABQFBUbG4UH9KgMq3EA0kd/843/2n669JDGkQVm2ucweNKxH+gACAohuTNdJqe3C8+pkFkxhN/aW1tvSRpFwDus//50kMaVOOKueMfAHTXrBUbxcc0qMw2e3bSLgDcITsiPaRBtFTZ7GSO5dk/AHSX97HAux/aIz6mgWTZ8SSNv/516SENqjHT5ov/EAFAUBWVr5Ef06Bqb/9G7y8ANGOL9JAG0bw1qvgPDwAE3e3fe0R+TINpQxJeATB+KT2mgaPpzoiicvEfHAAIurziZdwcqAdMK/HPvRv/uoarxMc0gMq46Q8AJI1xx73igxpEzYft/j2+AFA0o0Z6TAPHffY/fOJs8R8YAAiLMdMWO81tHeKDGjSmZW/u+SsAuvEr8UENGJ79A0Dy8SpAT9j/u0fjX2UYA6XHNHDcZ//Zk+aI/6AAQNh4rwLwXoDuM60jfbr/7F8zqsQHNWDKVvLsHwBSRf82rwJ0+wIgnljT7QsARdOPSg9qoHQ+++ed/wCQKrwK0APdvSmQqmlfUHTjhPioBsjsiirxHw4ACLvGO++XH9Vgeau19dilXb8A0PVZ0oMaNCOnzBX/wQCAsCuctUp6UIPHOhLrxisAxsPSgxokC9dvEP+hAICouOv+x+RHNUDMuH1v19bfcS5UNf230qMaJDnTF4r/QABAVMxYXC0+qkHiXgC85Ljbft795+N/3bN8w1a+8Q8A0sj7psD7H31KfFiD5Wjf87/8r+srpEc1SMbPXCL+wwAAUTN3zVYfjGpwmPHE0vNeACiavld6VINi7bY6ZzDP/gEg7YbkzXSe2N8iPqyBYSWePPezf1W9yB22P0kPa1BMW1gh/kMAAFFVVXeb/LAGhBlP/JfqOBed/QKgvn6A9KgGhaLpzrDCMvEfAACIqutvXMCXBHXLOd4HoGoN86SHNSjmrlbEH/wAEHW37HrQB8MaEFZizrl+/3+f9LAGRc60BeIPfACIuqkL1ssPa1BYie+d/RUAvv63S1Zu3MZH/wDAB7yPBD685xn5cQ0E+5dnHP+1NTWfUTT9pPS4BsGUeavEH/QAgFNWbWr0wbj6n2nZJ+Px+Gc+cAFQrevXSw9rEHhv/hvKm/8AwDdGTJ7HmwG7ehHQfuS6M/z+36iQHtcgmLdGFX+wAwDea8fdD4uPaxCY8cTKM3wCwHhQelyDIK94sfgDHQDwXjOXbRAf10CwEvef4QJA/7n0uPqdd+e/QeN48x8A+E3nnQEPtMoPrO/Zz793/FX1bxTdOC49sH5XvGSd+IMcAHBmGxvu9MHA+psZTxzft2/f35727F/rJz2uQXD9jfPEH+AAgDObNLtCfGCDwLSO9PnvNwAaRpH0uPpdxeYaPvsPAD7m3RPg0acPig+s3x1qS0w6/Q2AivTA+t30havFH9wAgHOrrr9dfGADoIpPAHTDdUXl4g9sAMC5jS9dIT2uvmdaiQdOuweAflR6YP2s89a/PnhgAwDO76E9+8RH1s/MuH3kvy8AdON30iPrZzctrBB/QAMAumZdza3iI+trlv3btz8CuPNjfAfAuY3k5X8ACIyCmSvlR9bnDhz4yce9jwD2kR5YP1u9pUb8wQwA6Drv0wC79zaLj6yfdX4UUDWMsdIj62fFS7n5DwAEzZab7xIfWV9rT4zlHgDnMWb6AvEHMgCge6YvrJQfWV+zp1xQrWm50iPrV5W1mjOYm/8AQOB43w2wz2zzwdD6kxlP5F5QXdeQJT20flVeUS3+IAYA9MzNd90vPrR+ZbYfybqgyjD6Sw+tXxXOWib+AAYA9MyCtTXiQ+tXzYft/heoO3Z8go8BntmwCWXiD2AAQM+MnrpQfGj9qr29/ZPv3AjoJemx9Rvu/gcAwdf05H7xsfUbM27/5r+/C0DXLenB9ZsSPv4HAIHHxwHPwLKt074LwDCkB9dvxhUvEn/gAgB6p2SpKj+4fmPZ+umvABRKD66fKJruXJ0/U/yBCwDonWGFs53mtg750fWRQ21HCk6/ALiUNwL+t6XVm8UftACA5Lin6Qnx0fUL07JPWpb1+QtOzx2+I9LD6xexJWvFH7AAgOTYaOwUH16/cC8AEhe8P0XTlksPr1/klSwWf8ACAJJj5vKN4sPrF2bcXvaBCwC1ru5/KrpxQnp8/WBowSzxBywAIDlGTJ4nPry+YNknTNv+4gcuAE69CqA/Iz2+0lZt4vP/ABA2TU8ekB9gaZa974zj3/kqQH3DKOkBljZrxXrxByoAILnqb/ue/AALO2R1XH/WC4DOVwF0/cfSIyxpQtly8QcqACC5FlXWiQ+wLPunjuNceM4LgOr6hgLpEZY0cspc8QcqACC5CstW+mCE5ZhxO/+c4//urwI046D0EEuo1nRn8NgS8QcqACC5rs4rdQ4ebhcfYqHxb+nS+HtVGcZARTeOSw9yui1TuAEQAITVfY8+JT7G6R//xHHTSgzo8gXA268CbJIe5HSbuYw3AAJAWNXs+K74IAvY0K3x77wAUNWL1YjdHXDi7GXiD1AAQGpE7Y2AZtw+5vbhbl8AeFXV1f0vdxj/KD3M6TJq6jzxBygAIDUmllWIj3LaWIk/tNr25T0a/3dfCdC04aqmvyE9zqnGNwACQLgNLSjz7oUvP86pfuZv2W+e9zP/Xb4I0PXSsH9b4OrNNeIPTgBAaj22t1l8oFM8/ifNtkRpUsb/nZR6Y06Yvytg/lpV/IEJAEitO+5pEh/plI5/3F6U1PF/9yJA02Kqpr8lPdapEFvMVwADQNhtML4tPtQpGf944nhzuz09JeP/TtWGke1eBPxWerCTbUIZnwAAgLBbsLZGfKyTP/7275vj9qiUjv87qbU3f1nR9B9Ij3YyjZo6X/yBCQBIrUmzV4sPdpId3d/27JfSMv7vXgSo6sWKri91x/NV6fFOhmvHzxJ/YAIAUmvE5LnSg52cZ/1W4nX3rxuannvub9I6/qfn3StA0fS90gPeG1V1mviDEgCQHvtaLPEB76WnWtrbvyY2/O+vWtOGKJrxlPSY98SKDVvFH5AAgPR4YPde6QHvqWazzR4svfdnraqx8VuqrtcG6Y2C89bwEUAAiIpbdz0kPeRdZyX+YMbtna3t7VdI73uXK9+588PVun69ohk17sg+6+ePD5YsXSf+gAQApMemhp3yw352b7mj/6xpJba1tB0Z2draerH0nve65YbxUbW+8QpF1290VbsXBpqiGzvdf/yIqhlNkvKLF/9S+gEJAEiPWSs2/tId2iZJ7sA/4j2zNy1bc/95dXN74saW+JGBtm1/VHqvI1VmbuxB6QckACA9MnKKH5beHfJJGbnFu6QfkACA9PDOfOndIZ+UmRvbLv2ABACkS2y79O6QT8rIiW2Vf0ACANJki/TukE9yLwDW+uABCQBIA+/Ml94d8kkZubFp0g9IAEB6ZIwpvkl6d8gnZeaUDpJ+QAIA0mNQbixTenfIJw0sKLlE+gEJAEiP/uOmfUZ6d8hHZeYU/176QQkASDH3rJfeG/JZmbmxA+IPTABASmXkxJ6R3hvyWVeNidVKPzABAKnlfexbem/IZ10x6sal0g9MAEBqDRx54yLpvSGf1W/4hCUZPnhwAgBSwzvj+w2bsFh6b8hn9R1ecOtVN0wTf4ACAFLjytHTnL5ZBdwGmN5bv+EFLQNHThF/gAIAUmPgyCL3AqCwWXpvyGf1G174Qv/sCd5HRMQfpACA5PJe/vfOePes/3fpvSEf1adP0d/0G15wwn1gOFfyawAACB3vbPfO+L5ZBW95Z7707pBP6pOdf7n3wPAMuG6y+AMVAJBcA0ZMdt455/teV/g16d0hn9Rv+ITR7zwwPFeNmS7+YAUAJEeGe6affsb3zx4/Snp3yCf1yS6cc/qDw3ujiPQDFgCQHAPcM/30M94786V3h3xSv6zCrac/ODwZY2aIP2gBAL2TkTPDef/53nd4wTbp3SGf5F4A3Pv+BwivAgBA8A1837P/ty8A7pfeHfJJ7gXAPe9/gPBeAAAItqve97v/d7lnvvTukE9yHwy3nelB0n/ERO4LAABBlOO983/S2S4AbpPeHfJJ7oOh7owPEtcVo6fKP5ABAN1y5aipZx7/znsBFNZK7w75JPcBoZztgdK/8w2B/CoAAILiqjEznH7ZZz7TT70CUFAtvTvkk97/McAz/SqAbwoEgCCInf2l/3dfASiYLb075JP6ZheMONeD5dSnAviiIADwu4HXTznnWd5pWGG29O6QT+qfPeHvz/uA8b4nYBTvBwAAv7py9Nl/7//eJ3Tjvii9O+SfLuybVfhqVx44V43my4IAwG+uevvLfs6n7/DC17wzX3p0yEf1yyp4tisPnn7DJ3B/AADwkVOf95/QpQsA76yX3hvyWX2zCoyuXQC8fRFwAxcBACDNO4v7Z3dx/E99BFCX3hvyWf2GFRR2/QLg1EXAlTfcJP7gB4Co6nzZ/1wf9zvTp7qyCguk94Z81tez8y51Hxwnu3cR4L0xkIsAAEi3rr7h731OfvP6ws9J7w35sH5ZhT/qwQPq7S8Oion/QABA2Hn3ZDnTF/x08Q2Ax6R3hnxa/+EFa3ryoPIM8G4WxFcIA0DKeF/t2/88N/k5z+//K6R3hnxan6F5X+7JrwHe82rA9Tc6vBoAAMl15agbO2/N3ovz+eTA7IKvSu8M+bi+WQV2by4A3nk1wHtzivQPDAAE3VVjpjn9syf26kx+W4f0vpDPc68wy5PwQHv7QmASFwIA0APex/sGXjc5KWexxzvbpfeFfN7lOTl/2y+r4KVkPehOXQhMPnXfgBz5HyoA8K2cU8PvnZnJPIP7Di/43dVXF31Uel8oAPU7x9cD9+oKNHuic8X1U/h6YQA4jfcG6iu83/En56X+M1wAFFZK7woFJO+eAN79olPxQHz3YmDEpM43DF45epqTkcObBgFEh3fmeWef94SoN+/q79L4ZxW+ymf/qVv1yyrYksoH5ft57xfwPtvq/UB4dxj0XiW4yr0q7vxoIRcIAILEPbO8s+vUGTa980wb6D7D9864ASke/A9eABRslN4TClgZGXkfcx88L6TzgQoASB732f+LA0aP/rj0nlAA6zt8fLH0AxgA0ENZE6ZL7wgFtwv7DS9oF38QAwC6xX32b3lnuPSIUIAbkJX/D+6D6c/SD2YAQBdlFbzSJzv/cun9oBDUJ6uwRPwBDQDommGFM6R3g0JUv+EFD4k/qAEA59Q3q/AB6b2gkOXdRapvVkFC+sENADgzd/x/wLv+KSVdMazo8/2yCv+P9IMcAPBe7vj/a7+R+ZdJ7wSFuD7DxvfpN7zgD9IPdgDAOwr+0Hd44bek94Ei0LeG5vd1H3C/kX/QA0C0eV/00ye74ArpXaAI1f/a8d/ox50CAUBQwW+8J2TSe0ARzLtHQN+sgl/I/xAAQMRkFfx8YHbBV6V3gCJcn+yiT7gXAY+I/zAAQET0HV6wJ2NU0aelz3+izvoPLyx3H5RvSv9gAEBY9c0qPN5/eMGaC7jFL/mtvkMnDOw3vOCo9A8JAIROVuGP+w6fMEj6nCc6R+pF3qsB7gP2ZfEfGAAIuL7DC1/znvUXFRV9SPp0J+pS/bMn/H2/rILb3avWN6R/gAAgcLyzM6vwtoEjx31R+jwn6lF9swq+1G94wQ4uBACgCzrPyoId3pMo6fObKCkNzC645NSvBgraxX/AAMB/nvde6vduuS59XhOlLPdB3r9vVsFG72LAe1erD37wACCtOj81lVUQd8/CDQOyJ/STPpeJ0p53H4F+WRPGuT8IW9wfiu+7FwQ/49cFAELFPdP6Di/8qfuPv+8+8dnsnXne2Sd9/hL5Lu/drt57B7xbXH5r2Pgh/bPHj+ozbPzk/tkTigDAz06dVeNHeWeXd4Z5Z5n36Sjpc5WIiIiIiIiIiIiIiIiIiIiIiIiIiIiIiIiIiIiIiIiIiIiIiIiIiIiIiIiIiIiIiIiIiIiIiIiIiIiIiIiIiIiIiIiIiIiIiIiIiIiIiIiIiIiIiIiIiIiIiIiIiIiIiIiIiIiIiIiIiIiIiIiIiIiIiIiIiIiIiIiIiIiIiIiIiIiIiIiIiIiIiIiIiIiIiIiIiIiIiIiIiIiIiIiIiIiIiIiIiIiIyP/9f75dytW83F8xAAAAAElFTkSuQmCC" parent="1" vertex="1">
                    <mxGeometry x="20" y="350" width="62" height="62" as="geometry"/>
                </mxCell>
                <mxCell id="41" value="" style="group;dashed=1;strokeColor=default;" parent="1" vertex="1" connectable="0">
                    <mxGeometry x="280" y="734" width="290" height="60" as="geometry"/>
                </mxCell>
                <mxCell id="40" value="" style="whiteSpace=wrap;html=1;strokeColor=#A3A3A3;dashed=1;" parent="41" vertex="1">
                    <mxGeometry width="290" height="60" as="geometry"/>
                </mxCell>
                <mxCell id="8" value="" style="shape=image;verticalLabelPosition=bottom;verticalAlign=top;imageAspect=0;image=data:image/svg+xml,PHN2ZyB4bWxucz0iaHR0cDovL3d3dy53My5vcmcvMjAwMC9zdmciIGhlaWdodD0iNjAiIHdpZHRoPSIxMjAiIHZpZXdCb3g9IjAgMCAxMjAgNjAiPjxkZWZzPjxsaW5lYXJHcmFkaWVudCB5Mj0iLTQ1MiIgZ3JhZGllbnRVbml0cz0idXNlclNwYWNlT25Vc2UiIHkxPSI1OS43ODkiIHgyPSIyNTUuODk0IiB4MT0iMjU1Ljg5NCIgaWQ9IkEiPjxzdG9wIG9mZnNldD0iMCUiIHN0b3AtY29sb3I9IiM1NzRjNGEiLz48c3RvcCBvZmZzZXQ9IjEwMCUiIHN0b3AtY29sb3I9IiM4MDcxNmQiLz48L2xpbmVhckdyYWRpZW50PjxsaW5lYXJHcmFkaWVudCBncmFkaWVudFVuaXRzPSJ1c2VyU3BhY2VPblVzZSIgeTI9Ii0zODIuMzA1IiB5MT0iLTUxLjc1OCIgeDI9IjE5MS45NzEiIHgxPSIzODAuNDQyIiBpZD0iQiI+PHN0b3Agb2Zmc2V0PSIwJSIgc3RvcC1jb2xvcj0iIzI2OGQ4MyIvPjxzdG9wIG9mZnNldD0iMTAwJSIgc3RvcC1jb2xvcj0iIzJlYTE5ZSIvPjwvbGluZWFyR3JhZGllbnQ+PHJhZGlhbEdyYWRpZW50IGdyYWRpZW50VHJhbnNmb3JtPSJtYXRyaXgoMi4wMiwwLDAsMi4wMiw5Mi41MywtMzU2LjgyKSIgZ3JhZGllbnRVbml0cz0idXNlclNwYWNlT25Vc2UiIGZ5PSIxNDIuOTIzIiBmeD0iNjIuNDE3IiByPSI5LjIxMyIgY3k9IjE0Mi45MjMiIGN4PSI2Mi40MTciIGlkPSJDIj48c3RvcCBvZmZzZXQ9IjAlIiBzdG9wLWNvbG9yPSIjZGI3YzdjIi8+PHN0b3Agb2Zmc2V0PSIxMDAlIiBzdG9wLWNvbG9yPSIjYzgzNzM3Ii8+PC9yYWRpYWxHcmFkaWVudD48cmFkaWFsR3JhZGllbnQgZ3JhZGllbnRUcmFuc2Zvcm09Im1hdHJpeCgyLjAyLDAsMCwyLjAyLDkyLjUzLC0zNTYuODIpIiBncmFkaWVudFVuaXRzPSJ1c2VyU3BhY2VPblVzZSIgZnk9IjE0Mi45MjMiIGZ4PSI5Ni43MjYiIHI9IjkuMjEzIiBjeT0iMTQyLjkyMyIgY3g9Ijk2LjcyNiIgaWQ9IkQiPjxzdG9wIG9mZnNldD0iMCUiIHN0b3AtY29sb3I9IiNkYjdjN2MiLz48c3RvcCBvZmZzZXQ9IjEwMCUiIHN0b3AtY29sb3I9IiNjODM3MzciLz48L3JhZGlhbEdyYWRpZW50PjwvZGVmcz48ZyB0cmFuc2Zvcm09Im1hdHJpeCguMDU1NzUyIDAgMCAuMDU1NzUyIDUuNjk0OTE1IDQwLjkzMzI0OCkiPjxwYXRoIGZpbGw9InVybCgjQSkiIGQ9Ik0wLTEwNi4xOTZ2LTE3OS44MkMwLTQzMS4yNTUgMjAuNzI1LTQ1MiAxNjUuODE0LTQ1MmgxODAuMTY0YzE0NS4wODQgMCAxNjUuOCAyMC43NDUgMTY1LjggMTY1Ljk4M3YxNzkuODJjMCAxNDUuMjM4LTIwLjcyNSAxNjUuOTgzLTE2NS44MTIgMTY1Ljk4M0gxNjUuODEyQzIwLjczIDU5Ljc4NyAwIDM5LjA0MiAwLTEwNi4xOTZ6Ii8+PHBhdGggZmlsbD0idXJsKCNCKSIgZD0iTTExMC40ODgtMzU1LjQ5N0M4NS4zNC0xOTYuMDYyIDk4LjQ5Ny00Ni44IDk4LjQ5Ny00Ni44aDc4LjYzYy03LjQ4LTM5LjgwMi0zNC4zMi0yMjEuNjQyLTExLjk5My0yMjIuMjQgMTEuOTY2IDEuOSA2Ni42NCAxNTQuMjY3IDY2LjY0IDE1NC4yNjdzMTIuMDQtMS41IDI0LjE1NS0xLjUgMjQuMTYgMS41IDI0LjE2IDEuNSA1NC42OC0xNTIuMzcgNjYuNjQtMTU0LjI2N2MyMi4zNC41OTgtNC41MDUgMTgyLjQzOC0xMS45OCAyMjIuMjRoNzguNjMzczEzLjE2Mi0xNDkuMjcyLTEyLTMwOC43MDZoLTcyLjhjLTEzLjg1Ny4xNjItNjYuNTggOTIuNjMtNzIuNjQgOTIuNjNzLTU4Ljc4NC05Mi40NTctNzIuNjQtOTIuNjJ6Ii8+PHBhdGggZmlsbD0idXJsKCNDKSIgZD0iTTI0MC40MjItNjUuNGMwIDEwLjI3OC04LjMzMyAxOC42LTE4LjYxMiAxOC42cy0xOC42LTguMzMzLTE4LjYtMTguNiA4LjMzMy0xOC42MTIgMTguNi0xOC42MTIgMTguNjEyIDguMzMyIDE4LjYxMiAxOC42MTJ6Ii8+PHBhdGggZmlsbD0idXJsKCNEKSIgZD0iTTMwOC42Ni02NS40YzAgMTAuMjc4LTguMzMyIDE4LjYtMTguNiAxOC42cy0xOC42LTguMzMzLTE4LjYtMTguNiA4LjMyMi0xOC42MTIgMTguNjA0LTE4LjYxMiAxOC42MDQgOC4zMzIgMTguNjA0IDE4LjYxMnoiLz48cGF0aCBvcGFjaXR5PSIuMSIgZD0iTTM5Ny42NjQtMzUwLjIyNmMxMS4zNDggNzYuODEyIDE0IDE1MC41MzIgMTMuODAyIDIwNS40NDQtLjIxNCA1Ni4xNjgtMy40MzIgOTIuNjYtMy40MzIgOTIuNjZoLTY2LjJsLTcuMTEzIDUuMzNoNzguNjRzMTMuMTYtMTQ5LjI3LTExLjk5Mi0zMDguNzA1em0tMjA4LjM3My0xLjk0YzIwLjY2IDIyLjk4IDU2LjQgODMuOTY2IDYxLjMgODMuOTY2LTEzLjEtMTYuNzUtNDUuMjctNzAuMTkyLTYxLjMtODMuOTY1em0tMjkuNDggNzcuODAyYy0yMi4zMy42IDQuNTE0IDE4Mi40NCAxMS45OTYgMjIyLjI0MkgxMDMuMTZsLTQuNjYgNS4zM2g3OC42MzRjLTcuNDQ0LTM5LjU5OC0zNC4wNS0yMTkuODI0LTEyLjMzLTIyMi4yNC0yLjAyLTMuMDQtMy43Ny01LjEzNy00Ljk5Ni01LjMzMnptMTgxLjYgMGMtMTEuOTY0IDEuOS02Ni42NCAxNTQuMjctNjYuNjQgMTU0LjI3cy0xMi4wNC0xLjUtMjQuMTU0LTEuNWMtNy4xNyAwLTEzLjM0LjQ0Mi0xNy41MTQuODNsLTEuMyA2czEyLjA0LTEuNDk4IDI0LjE1NC0xLjQ5OCAyNC4xNTggMS41IDI0LjE1OCAxLjUgNTQuMjYtMTUxLjM3MiA2Ni40NzYtMTU0LjI3Yy0xLjMxNS0zLjMzNC0yLjk0LTUuMjcyLTUuMTY0LTUuMzMyeiIvPjxwYXRoIGZpbGw9IiNmZmYiIG9wYWNpdHk9Ii4zIiBkPSJNMTEwLjUtMzU1LjQ5N0M4NS4zMzQtMTk2LjA2MyA5OC40OTUtNDYuOCA5OC40OTUtNDYuOGw0LjYzLTUuMjA1Yy0yLjM3LTM1LjIxOC04LjctMTYyLjU3MiAxMi42OTYtMjk4LjE3aDcyLjhjMS41NC4wMTcgMy42IDEuMjggNiAzLjMzLTQuNzY3LTUuMzAyLTguNzMtOC42My0xMS4zMy04LjY2MnptMjE4LjA3NyAwYy0xMy44NTcuMTY0LTY2LjU4IDkyLjYyOC03Mi42MzcgOTIuNjI4IDIuNDcgMy4xNiA0LjQ3NyA1LjM0IDUuMzMgNS4zNCA2LjA2IDAgNTguNzgtOTIuNDY0IDcyLjYzOC05Mi42M2g2NC4yNDhsMy4yMjQtNS4zM3ptLTE1OC40MzUgOTEuNzk1YzE3LjY4NSAyNi41NiA2MS42NDIgMTQ4Ljk0IDYxLjY0MiAxNDguOTRsMS4yODYtNS45N2MtMTAuODUzLTI5Ljc1Ny01Mi4yMDUtMTQxLjMyLTYyLjU5NS0xNDIuOTctLjExMy4wMDMtLjIyMi0uMDEyLS4zMzMgMHptMTgxLjkyNSAwYzExLjg2MiAzMC4yNTQtMTAuNTkyIDE4MS4xLTE3LjMyNiAyMTYuOWw3LjE0LTUuNTY3YzkuMTA4LTUzLjQyIDMxLjAzLTIxMC43OCAxMC4xOTUtMjExLjM0eiIvPjwvZz48ZyBmaWxsPSIjMmE5NzkwIj48cGF0aCBkPSJNNDAuMjE2IDMzLjRoLS45ODZ2LTYuNzY3aDYuNDY1VjMzLjRoLS45ODZ2LTUuNzhoLTQuNDkyeiIvPjxwYXRoIGQ9Ik00MS45NjggMjcuMTI2aC45ODhWMzMuNGgtLjk4OHptMTIuMjE0LjQ5NGgtNS4wNDh2NC44aDUuMDQ4di45ODhoLTYuMDM0di02Ljc4M2g2LjAzNHoiLz48cGF0aCBkPSJNNDguNjQgMjkuNTNoMi43NzJ2Ljk4OEg0OC42NHptOC42NDcgMy44N0g1Ni4zdi02Ljc2N2g2LjQwMlYzMy40aC0uOTg4di01Ljc4aC00LjQyN3oiLz48cGF0aCBkPSJNNTkuMDA4IDI3LjEyNmguOTg4VjMzLjRoLS45ODh6bTEyLjI3OC40OTRINjYuM3Y0LjhoNC45ODV2Ljk4OGgtNS45N3YtNi43ODNoNS45N3ptMy41NSA1Ljc4aC0uOTg2di02Ljc2N2g2LjMzOFYzMy40SDc5LjJ2LTUuNzhoLTQuMzY0eiIvPjxwYXRoIGQ9Ik03NC42NjIgMjkuNTNoNS4wM3YuOTg4aC01LjAzem0xNC4wMTMtMS45aC01LjM2N3Y0LjhoNS4zNjd2Ljk4OGgtNi4zNTN2LTYuNzgzaDYuMzUzem0yLjI3Ny0xLjAxNGguOTg4VjMzLjRoLS45ODh6bTUuNjQ4LS4wMzJoLjk4OFYzMy40SDk2LjZ6Ii8+PHBhdGggZD0iTTkxLjQ0NyAyOS41M2g1LjI1NnYuOTg4aC01LjI1NnptMTQuMjA1LTEuOWgtNS4yNHY0LjhoNS4yNHYuOTg4aC02LjIyN3YtNi43ODNoNi4yMjd6Ii8+PHBhdGggZD0iTTk5LjkxOCAyOS41M2gyLjg2NnYuOTg4aC0yLjg2NnptMTMuMTcgMy44ODZoLTUuMDN2LTYuNzgzaDUuMDU2bC4xNDMuMTM3YzEuMTE4IDEuMDc1IDEuNjU3IDIuMjIzIDEuNjA1IDMuNDE1LS4wOCAxLjg0Ni0xLjU3NiAzLjA3Mi0xLjY0IDMuMTIyem0tNC4wNDUtLjk4OGgzLjY4Yy4zLS4yOTUgMS4xMDUtMS4xNjQgMS4xNS0yLjI5NS4wMzUtLjg0NS0uMzU4LTEuNy0xLjE2Ni0yLjUxNGgtMy42NjV6Ii8+PC9nPjwvc3ZnPg==" parent="41" vertex="1">
                    <mxGeometry x="20" width="120" height="60" as="geometry"/>
                </mxCell>
                <mxCell id="25" value="" style="shape=image;verticalLabelPosition=bottom;verticalAlign=top;imageAspect=0;image=data:image/svg+xml,PHN2ZyB4bWxucz0iaHR0cDovL3d3dy53My5vcmcvMjAwMC9zdmciIGhlaWdodD0iNjAiIHdpZHRoPSIxMjAiIHZpZXdCb3g9IjAgMCAxMjAgNjAiPjxkZWZzPjxsaW5lYXJHcmFkaWVudCB5Mj0iLTQ1MiIgZ3JhZGllbnRVbml0cz0idXNlclNwYWNlT25Vc2UiIHkxPSI1OS43ODkiIHgyPSIyNTUuODk0IiB4MT0iMjU1Ljg5NCIgaWQ9IkEiPjxzdG9wIG9mZnNldD0iMCUiIHN0b3AtY29sb3I9IiM1NzRjNGEiLz48c3RvcCBvZmZzZXQ9IjEwMCUiIHN0b3AtY29sb3I9IiM4MDcxNmQiLz48L2xpbmVhckdyYWRpZW50PjxsaW5lYXJHcmFkaWVudCBncmFkaWVudFVuaXRzPSJ1c2VyU3BhY2VPblVzZSIgeTI9Ii0zODIuMzA1IiB5MT0iLTUxLjc1OCIgeDI9IjE5MS45NzEiIHgxPSIzODAuNDQyIiBpZD0iQiI+PHN0b3Agb2Zmc2V0PSIwJSIgc3RvcC1jb2xvcj0iIzI2OGQ4MyIvPjxzdG9wIG9mZnNldD0iMTAwJSIgc3RvcC1jb2xvcj0iIzJlYTE5ZSIvPjwvbGluZWFyR3JhZGllbnQ+PHJhZGlhbEdyYWRpZW50IGdyYWRpZW50VHJhbnNmb3JtPSJtYXRyaXgoMi4wMiwwLDAsMi4wMiw5Mi41MywtMzU2LjgyKSIgZ3JhZGllbnRVbml0cz0idXNlclNwYWNlT25Vc2UiIGZ5PSIxNDIuOTIzIiBmeD0iNjIuNDE3IiByPSI5LjIxMyIgY3k9IjE0Mi45MjMiIGN4PSI2Mi40MTciIGlkPSJDIj48c3RvcCBvZmZzZXQ9IjAlIiBzdG9wLWNvbG9yPSIjZGI3YzdjIi8+PHN0b3Agb2Zmc2V0PSIxMDAlIiBzdG9wLWNvbG9yPSIjYzgzNzM3Ii8+PC9yYWRpYWxHcmFkaWVudD48cmFkaWFsR3JhZGllbnQgZ3JhZGllbnRUcmFuc2Zvcm09Im1hdHJpeCgyLjAyLDAsMCwyLjAyLDkyLjUzLC0zNTYuODIpIiBncmFkaWVudFVuaXRzPSJ1c2VyU3BhY2VPblVzZSIgZnk9IjE0Mi45MjMiIGZ4PSI5Ni43MjYiIHI9IjkuMjEzIiBjeT0iMTQyLjkyMyIgY3g9Ijk2LjcyNiIgaWQ9IkQiPjxzdG9wIG9mZnNldD0iMCUiIHN0b3AtY29sb3I9IiNkYjdjN2MiLz48c3RvcCBvZmZzZXQ9IjEwMCUiIHN0b3AtY29sb3I9IiNjODM3MzciLz48L3JhZGlhbEdyYWRpZW50PjwvZGVmcz48ZyB0cmFuc2Zvcm09Im1hdHJpeCguMDU1NzUyIDAgMCAuMDU1NzUyIDUuNjk0OTE1IDQwLjkzMzI0OCkiPjxwYXRoIGZpbGw9InVybCgjQSkiIGQ9Ik0wLTEwNi4xOTZ2LTE3OS44MkMwLTQzMS4yNTUgMjAuNzI1LTQ1MiAxNjUuODE0LTQ1MmgxODAuMTY0YzE0NS4wODQgMCAxNjUuOCAyMC43NDUgMTY1LjggMTY1Ljk4M3YxNzkuODJjMCAxNDUuMjM4LTIwLjcyNSAxNjUuOTgzLTE2NS44MTIgMTY1Ljk4M0gxNjUuODEyQzIwLjczIDU5Ljc4NyAwIDM5LjA0MiAwLTEwNi4xOTZ6Ii8+PHBhdGggZmlsbD0idXJsKCNCKSIgZD0iTTExMC40ODgtMzU1LjQ5N0M4NS4zNC0xOTYuMDYyIDk4LjQ5Ny00Ni44IDk4LjQ5Ny00Ni44aDc4LjYzYy03LjQ4LTM5LjgwMi0zNC4zMi0yMjEuNjQyLTExLjk5My0yMjIuMjQgMTEuOTY2IDEuOSA2Ni42NCAxNTQuMjY3IDY2LjY0IDE1NC4yNjdzMTIuMDQtMS41IDI0LjE1NS0xLjUgMjQuMTYgMS41IDI0LjE2IDEuNSA1NC42OC0xNTIuMzcgNjYuNjQtMTU0LjI2N2MyMi4zNC41OTgtNC41MDUgMTgyLjQzOC0xMS45OCAyMjIuMjRoNzguNjMzczEzLjE2Mi0xNDkuMjcyLTEyLTMwOC43MDZoLTcyLjhjLTEzLjg1Ny4xNjItNjYuNTggOTIuNjMtNzIuNjQgOTIuNjNzLTU4Ljc4NC05Mi40NTctNzIuNjQtOTIuNjJ6Ii8+PHBhdGggZmlsbD0idXJsKCNDKSIgZD0iTTI0MC40MjItNjUuNGMwIDEwLjI3OC04LjMzMyAxOC42LTE4LjYxMiAxOC42cy0xOC42LTguMzMzLTE4LjYtMTguNiA4LjMzMy0xOC42MTIgMTguNi0xOC42MTIgMTguNjEyIDguMzMyIDE4LjYxMiAxOC42MTJ6Ii8+PHBhdGggZmlsbD0idXJsKCNEKSIgZD0iTTMwOC42Ni02NS40YzAgMTAuMjc4LTguMzMyIDE4LjYtMTguNiAxOC42cy0xOC42LTguMzMzLTE4LjYtMTguNiA4LjMyMi0xOC42MTIgMTguNjA0LTE4LjYxMiAxOC42MDQgOC4zMzIgMTguNjA0IDE4LjYxMnoiLz48cGF0aCBvcGFjaXR5PSIuMSIgZD0iTTM5Ny42NjQtMzUwLjIyNmMxMS4zNDggNzYuODEyIDE0IDE1MC41MzIgMTMuODAyIDIwNS40NDQtLjIxNCA1Ni4xNjgtMy40MzIgOTIuNjYtMy40MzIgOTIuNjZoLTY2LjJsLTcuMTEzIDUuMzNoNzguNjRzMTMuMTYtMTQ5LjI3LTExLjk5Mi0zMDguNzA1em0tMjA4LjM3My0xLjk0YzIwLjY2IDIyLjk4IDU2LjQgODMuOTY2IDYxLjMgODMuOTY2LTEzLjEtMTYuNzUtNDUuMjctNzAuMTkyLTYxLjMtODMuOTY1em0tMjkuNDggNzcuODAyYy0yMi4zMy42IDQuNTE0IDE4Mi40NCAxMS45OTYgMjIyLjI0MkgxMDMuMTZsLTQuNjYgNS4zM2g3OC42MzRjLTcuNDQ0LTM5LjU5OC0zNC4wNS0yMTkuODI0LTEyLjMzLTIyMi4yNC0yLjAyLTMuMDQtMy43Ny01LjEzNy00Ljk5Ni01LjMzMnptMTgxLjYgMGMtMTEuOTY0IDEuOS02Ni42NCAxNTQuMjctNjYuNjQgMTU0LjI3cy0xMi4wNC0xLjUtMjQuMTU0LTEuNWMtNy4xNyAwLTEzLjM0LjQ0Mi0xNy41MTQuODNsLTEuMyA2czEyLjA0LTEuNDk4IDI0LjE1NC0xLjQ5OCAyNC4xNTggMS41IDI0LjE1OCAxLjUgNTQuMjYtMTUxLjM3MiA2Ni40NzYtMTU0LjI3Yy0xLjMxNS0zLjMzNC0yLjk0LTUuMjcyLTUuMTY0LTUuMzMyeiIvPjxwYXRoIGZpbGw9IiNmZmYiIG9wYWNpdHk9Ii4zIiBkPSJNMTEwLjUtMzU1LjQ5N0M4NS4zMzQtMTk2LjA2MyA5OC40OTUtNDYuOCA5OC40OTUtNDYuOGw0LjYzLTUuMjA1Yy0yLjM3LTM1LjIxOC04LjctMTYyLjU3MiAxMi42OTYtMjk4LjE3aDcyLjhjMS41NC4wMTcgMy42IDEuMjggNiAzLjMzLTQuNzY3LTUuMzAyLTguNzMtOC42My0xMS4zMy04LjY2MnptMjE4LjA3NyAwYy0xMy44NTcuMTY0LTY2LjU4IDkyLjYyOC03Mi42MzcgOTIuNjI4IDIuNDcgMy4xNiA0LjQ3NyA1LjM0IDUuMzMgNS4zNCA2LjA2IDAgNTguNzgtOTIuNDY0IDcyLjYzOC05Mi42M2g2NC4yNDhsMy4yMjQtNS4zM3ptLTE1OC40MzUgOTEuNzk1YzE3LjY4NSAyNi41NiA2MS42NDIgMTQ4Ljk0IDYxLjY0MiAxNDguOTRsMS4yODYtNS45N2MtMTAuODUzLTI5Ljc1Ny01Mi4yMDUtMTQxLjMyLTYyLjU5NS0xNDIuOTctLjExMy4wMDMtLjIyMi0uMDEyLS4zMzMgMHptMTgxLjkyNSAwYzExLjg2MiAzMC4yNTQtMTAuNTkyIDE4MS4xLTE3LjMyNiAyMTYuOWw3LjE0LTUuNTY3YzkuMTA4LTUzLjQyIDMxLjAzLTIxMC43OCAxMC4xOTUtMjExLjM0eiIvPjwvZz48ZyBmaWxsPSIjMmE5NzkwIj48cGF0aCBkPSJNNDAuMjE2IDMzLjRoLS45ODZ2LTYuNzY3aDYuNDY1VjMzLjRoLS45ODZ2LTUuNzhoLTQuNDkyeiIvPjxwYXRoIGQ9Ik00MS45NjggMjcuMTI2aC45ODhWMzMuNGgtLjk4OHptMTIuMjE0LjQ5NGgtNS4wNDh2NC44aDUuMDQ4di45ODhoLTYuMDM0di02Ljc4M2g2LjAzNHoiLz48cGF0aCBkPSJNNDguNjQgMjkuNTNoMi43NzJ2Ljk4OEg0OC42NHptOC42NDcgMy44N0g1Ni4zdi02Ljc2N2g2LjQwMlYzMy40aC0uOTg4di01Ljc4aC00LjQyN3oiLz48cGF0aCBkPSJNNTkuMDA4IDI3LjEyNmguOTg4VjMzLjRoLS45ODh6bTEyLjI3OC40OTRINjYuM3Y0LjhoNC45ODV2Ljk4OGgtNS45N3YtNi43ODNoNS45N3ptMy41NSA1Ljc4aC0uOTg2di02Ljc2N2g2LjMzOFYzMy40SDc5LjJ2LTUuNzhoLTQuMzY0eiIvPjxwYXRoIGQ9Ik03NC42NjIgMjkuNTNoNS4wM3YuOTg4aC01LjAzem0xNC4wMTMtMS45aC01LjM2N3Y0LjhoNS4zNjd2Ljk4OGgtNi4zNTN2LTYuNzgzaDYuMzUzem0yLjI3Ny0xLjAxNGguOTg4VjMzLjRoLS45ODh6bTUuNjQ4LS4wMzJoLjk4OFYzMy40SDk2LjZ6Ii8+PHBhdGggZD0iTTkxLjQ0NyAyOS41M2g1LjI1NnYuOTg4aC01LjI1NnptMTQuMjA1LTEuOWgtNS4yNHY0LjhoNS4yNHYuOTg4aC02LjIyN3YtNi43ODNoNi4yMjd6Ii8+PHBhdGggZD0iTTk5LjkxOCAyOS41M2gyLjg2NnYuOTg4aC0yLjg2NnptMTMuMTcgMy44ODZoLTUuMDN2LTYuNzgzaDUuMDU2bC4xNDMuMTM3YzEuMTE4IDEuMDc1IDEuNjU3IDIuMjIzIDEuNjA1IDMuNDE1LS4wOCAxLjg0Ni0xLjU3NiAzLjA3Mi0xLjY0IDMuMTIyem0tNC4wNDUtLjk4OGgzLjY4Yy4zLS4yOTUgMS4xMDUtMS4xNjQgMS4xNS0yLjI5NS4wMzUtLjg0NS0uMzU4LTEuNy0xLjE2Ni0yLjUxNGgtMy42NjV6Ii8+PC9nPjwvc3ZnPg==" parent="41" vertex="1">
                    <mxGeometry x="151" width="120" height="60" as="geometry"/>
                </mxCell>
                <mxCell id="42" value="" style="group;strokeColor=#C73500;fillColor=#fa6800;fontColor=#000000;" parent="1" vertex="1" connectable="0">
                    <mxGeometry x="350" y="258" width="120" height="210" as="geometry"/>
                </mxCell>
                <mxCell id="37" value="" style="whiteSpace=wrap;html=1;strokeColor=#BDBDBD;dashed=1;fillColor=#E6F4FF;" parent="42" vertex="1">
                    <mxGeometry width="120" height="210" as="geometry"/>
                </mxCell>
                <mxCell id="4" value="" style="shape=image;verticalLabelPosition=bottom;verticalAlign=top;imageAspect=0;image=data:image/svg+xml,PHN2ZyB4bWxucz0iaHR0cDovL3d3dy53My5vcmcvMjAwMC9zdmciIGhlaWdodD0iNjQiIHdpZHRoPSI2NCIgdmlld0JveD0iLTM1LjUgMjYgMzIgMzIiPjxwYXRoIGZpbGw9IiMwMDk0MzgiIGQ9Ik0tMzMuNDQyIDQyLjAyM3YtNy42MzdhLjY4LjY4IDAgMCAxIC4zODUtLjY1MWwxMy4xNzMtNy42MDhjLjIzNy0uMTQ4LjUwMy0uMTc4Ljc0LS4wM2wxMy4yMzIgNy42MzdhLjcxLjcxIDAgMCAxIC4zNTUuNjUxVjQ5LjYzYS43MS43MSAwIDAgMS0uMzU1LjY1MWwtMTEuMzY3IDYuNTdhNTYuMjcgNTYuMjcgMCAwIDEtMS44MDYgMS4wMzZjLS4yNjYuMTQ4LS41MzMuMTQ4LS44IDBsLTEzLjIwMi03LjYwOGMtLjIzNy0uMTQ4LS4zNTUtLjMyNi0uMzU1LS42MjJ2LTcuNjM3eiIvPjxwYXRoIGZpbGw9IiNmZWZlZmUiIGQ9Ik0tMjQuMTE4IDM5LjE4djguOWMwIDEuMDA2LS44IDEuODk0LTEuODY1IDEuODY1LS42NS0uMDMtMS4xNTQtLjI5Ni0xLjUtLjg1OC0uMTc4LS4yNjYtLjIzNy0uNTYyLS4yMzctLjg4OFYzNS44MzZjMC0uODMuNTAzLTEuNDIgMS4xNTQtMS42ODdzMS4zMDItLjIwNyAxLjk1NCAwYy42MjIuMTc4IDEuMDk1LjU2MiAxLjUgMS4wMzZsNy44NzQgOS40NDNjLjAzLjAzLjA2LjA5LjExOC4xNDh2LTljMC0uOTQ3LjY1LTEuNjg3IDEuNTctMS43NzYgMS4xNTQtLjE0OCAxLjkyNC42OCAyLjA0MiAxLjU0djEyLjZjMCAuNy0uMzI2IDEuMjE0LS45MTggMS41NC0uNDQ0LjIzNy0uOTE4LjI5Ni0xLjQyLjI2NmEzLjIzIDMuMjMgMCAwIDEtMS45NTQtLjgyOWMtLjI5Ni0uMjY2LS41MDMtLjU5Mi0uNzctLjg4OGwtNy40OS04Ljk3YzAtLjAzLS4wMy0uMDYtLjA2LS4wOXoiLz48L3N2Zz4=" parent="42" vertex="1">
                    <mxGeometry x="28" y="12" width="64" height="64" as="geometry"/>
                </mxCell>
                <mxCell id="7" value="" style="shape=image;verticalLabelPosition=bottom;verticalAlign=top;imageAspect=0;image=data:image/svg+xml,PHN2ZyB4bWxucz0iaHR0cDovL3d3dy53My5vcmcvMjAwMC9zdmciIGhlaWdodD0iNjAiIHdpZHRoPSIxMjAiIHZpZXdCb3g9Ii0xNjkgMjg1LjkgMTIwIDYwIj48cGF0aCBmaWxsPSIjZjYwIiBkPSJNLTEzOC4yODIgMzA4Ljk2N2gtOS4yMWMtLjQ2NSAwLS44MzMtLjM4LS44MzMtLjgzM3YtOS42YzAtLjcxNC0uNTc0LTEuMjg4LTEuMjg4LTEuMjg4aC0zLjI5Yy0uNzE0IDAtMS4yODguNTc0LTEuMjg4IDEuMjg4djkuNTM2YzAgLjQ5OC0uNC44OTgtLjg5OC44OThsLTMuMDIuMDFhLjg5Ljg5IDAgMCAxLS44OTgtLjg5OGwuMDIyLTkuNTQ3YzAtLjcxNC0uNTc0LTEuMjg4LTEuMjg4LTEuMjg4aC0zLjI5Yy0uNzE0IDAtMS4yODguNTc0LTEuMjg4IDEuMjg4djI2Ljg3NmExLjE1IDEuMTUgMCAwIDAgMS4xNDcgMS4xNDdoMjUuNDI2YTEuMTUgMS4xNSAwIDAgMCAxLjE0Ny0xLjE0N3YtMTUuMjk0YTEuMTQgMS4xNCAwIDAgMC0xLjE0Ny0xLjE0N3ptLTQuMzIgMTAuMDg4YzAgLjgyMy0uNjcgMS40OTQtMS40OTQgMS40OTRoLTIuNTk4Yy0uODIzIDAtMS40OTQtLjY3LTEuNDk0LTEuNDk0di0yLjU5OGMwLS44MjMuNjctMS40OTQgMS40OTQtMS40OTRoMi41OThjLjgyMyAwIDEuNDk0LjY3IDEuNDk0IDEuNDk0eiIvPjxwYXRoIGZpbGw9IiNmZWZlZmQiIGQ9Ik0tODAuMzA0IDMyNC4yOTRjLjY4NS4yNjQgMS4xNDMtLjA1IDEuMTQzLS43ODV2LTEzLjg3Yy4yNC4xNTcuMjQ1LjM1Mi4yOTUuNTE1bDQuMjY2IDEzLjU3NmMuMTMyLjQyLjI5LjY0Ljc0OC41ODQuNDQtLjA1Ny45MzYuMTc2IDEuMTQzLS41NGwxLjg0Ny01Ljk3NCAyLjY2NC04LjVhLjQ3LjQ3IDAgMCAwIC4wOTQuMDEzdi43MzVsLS4wMTMgMTMuNTc2YzAgLjUyOC4xMi43MDQuNjc4LjcxNi42NC4wMDYuNjk3LS4yOTUuNjktLjgwNGwtLjAwNi0xNC40YzAtMS42MiAwLTEuNjAyLTEuNjQtMS42MjctLjUxNS0uMDA2LS43NzMuMTI2LS45My42NDdsLTQuMjQ3IDEzLjc4M2MtLjI1LS4xMi0uMjQ1LS4zMDgtLjI4My0uNDRsLTMuNzc2LTEyLjI4OGMtLjUyLTEuNzItLjUtMS43MTUtMi4yODctMS43MS0uNDk2IDAtLjYxNi4xNzYtLjYxLjYzNWwuMDEzIDE1LjQ5OG0yNC42LS41MzRjMS4zNy0xLjU3NyAxLjg0Ny0zLjI5OCAyLjAzLTUuMTI2LjI0NS0yLjQ4OC4xODgtNC45MzgtLjctNy4zMTItMS4xNzUtMy4xLTQuMzk4LTQuMzU0LTcuMTU1LTIuNzQ1LTEuNDkuODY3LTIuMiAyLjI4Ny0yLjY0IDMuODc2LS41IDEuNzg0LS41NCAzLjYtLjQzMyA1LjQ0LjA3IDEuMTA2LjIyNiAyLjE4Ni41NiAzLjIzNS44NjcgMi42OSAyLjQ5NCAzLjg2NCA1LjMwOCAzLjg2NGw1LjcxNy4wMmMuNjQuMDEzLjY4NS0uMjY0LjY5LS43NzMuMDA2LS41MjgtLjE3LS42ODUtLjY3OC0uNjM0bC0yLjY5LjE1N3ptLTcwLjk3LTcuMDQyYy40NjUtLjIyNi44NzMtLjM1OCAxLjI0NC0uNjAzIDEuNC0uOTA1IDIuMDQyLTIuNzcgMS42Mi00LjcxMi0uMzc3LTEuNzM0LTEuNTktMi43OTYtMy41MTgtMy4wOTctMS40MTMtLjIyLTIuODQ2LS4wNTctNC4yNi0uMTMyLS41NzItLjAzLS43My4xMzItLjczLjd2MTUuMzZjMCAuNTYuMTI2Ljc0OC43LjczNS41NC0uMDEzLjc1NC0uMS43NC0uN2wtLjAyNS02LjM0Yy0uMDA2LS40MTUuMS0uNTc4LjUzNC0uNTQ3LjQ3Ny4wMzguOTYuMDA2IDEuNDQ1LjAwNiAxLjY4NC4wMTMgMi41NS42MzUgMi45NyAyLjI4bC45MzYgNC4zNjZjLjEyNi43MjIuMzc3Ljk5MyAxLjEzNy45MzYuNTAzLS4wMzguNS0uMjA3LjQxNS0uNTc4bC0uODczLTQuM2MtLjI4My0xLjQ0LS42NjYtMi44MjctMi4zNS0zLjM2N3ptMjUuNDkzLTEuNjk2di0uNjY2bC4wMTItNS41MWMuMDA2LS40ODQtLjA4Mi0uNjg1LS42MzUtLjY3OC0uNTIuMDA2LS42NTMuMTU3LS42NDcuNjY2bC4wMTIgMTEuMDk0YTEzLjkyIDEzLjkyIDAgMCAwIC4wODggMS40NDVjLjI0NSAyLjIxIDEuNDI2IDMuNTggMy4yOTggMy44NDUgMS44OTcuMjcgMy42OTQtLjc2IDQuMzU0LTIuNzI2LjgzNi0yLjQ3LjgxNy00Ljk3Ni0uMzUyLTcuMzYzLS42NTMtMS4zMzgtMS43NzgtMi4wODYtMy4zMy0xLjk4NS0xLjI2My4wNzUtMi4wOC44MjMtMi44MDIgMS44Nzh6bS0xMC4wMi4yODNsLjAxMi02LjQ0NmMuMDA2LS40Ny0uMDU3LS42OS0uNjIyLS42OS0uNTYgMC0uNjIyLjItLjYyMi42NzhsLjAwNiAxMS43YzAgLjcxNi4xMiAxLjQyLjM1MiAyLjA5Mi40NCAxLjI3IDEuMjI1IDIuMTkyIDIuNjA3IDIuNDg4IDIuMDkyLjQ0NiA0LjAwMi0uNTQgNC43MzctMi41OTUuODQyLTIuMzUuNzczLTQuNzM3LS4xMzgtNy4wNi0uNDAyLTEuMDE4LTEuMTMtMS43ODQtMi4xOC0yLjE3NC0xLjU4My0uNTktMi45Ny4wNDQtNC4xNTMgMS45OTh6bS00LjMyOCA4LjA0N2wtLjAwNiAxLjAxYy0uMDYzLjUuMTQ0LjYwMy42MTYuNjE2LjUyOC4wMTIuNTg0LS4yMDcuNTc4LS42NDdsLS4wMTMtNy44NTNjMC0uMjk1LS4wMy0uNTk3LS4wODgtLjg4Ni0uMzA4LTEuNTc3LTEuMzI2LTIuNDEyLTMuMDAzLTIuNDctMi4zMDYtLjA4Mi0zLjczOC42OS00LjE1MyAyLjI2OC0uMDYzLjI0NS0uMjk1LjU5Ny4wOTQuNzczLjQ4NC4yMiAxLjIzOC0uMDM4IDEuMzYzLS40MjcuMTg4LS41NzguNTItMS4wMDUgMS4xLTEuMjQ0IDEuNzc4LS43MyAzLjM1NS4yNSAzLjQ2OCAyLjE1NWwuMDM4LjY4NWMuMDMgMS4wMjQuMDMgMS4wMS0uOTggMS4wODctMS40LjEwNy0yLjc5Ni4yNC00LjAxNCAxLjA0My0xLjI4OC44NTQtMS43NDYgMi41NDQtMS4xMyA0LjExLjQ5NiAxLjI2MyAxLjc3OCAxLjg1MyAzLjM2NyAxLjU4MyAxLjEwNi0uMTc2IDEuOTQ3LS43NiAyLjc2NC0xLjgwM3ptMjkuNy0xMy4zN2MtLjg2Ny4zNC0xLjQyLjc5OC0xLjIyNSAxLjc1My4wMy4xNTcuMDA2LjMyLjAwNi40ODQgMCAxLjE1NiAwIDEuMTc1LTEuMTMgMS4xNTYtLjQyNy0uMDA2LS42Ni4wMy0uNjYuNTcyIDAgLjUxNS4xNDQuNzIyLjY2LjY0LjEzMi0uMDIuMjc2LjAyLjQxNS0uMDA2LjY0LS4xMi43NC4xODIuNzM1Ljc1NGwuMDEzIDcuMjk0Yy4wMyAxLjcuODkyIDIuNTEzIDIuNTcgMi42LjM2NC4wMi43My0uMDM4IDEuMS0uMDQ0LjgwNC0uMDEzLjUwMy0uNjE2LjUxLTEgLjAxMy0uNTg0LS40MDgtLjI2NC0uNjM1LS4yMi0xLjQ0NS4yNDUtMi4zMDYtLjMyLTIuMzI0LTEuNjY1bC0uMDI1LTcuMjk0YzAtLjMzMy4xMi0uNDQuNDQtLjQyN2wyLjA2Ny4wMTJjLjU2LjAzLjQ3Ny0uMzE0LjUwMy0uNjY2LjAyNS0uNDAyLS4wODItLjU4NC0uNTI4LS41Ni0uNTk3LjAzOC0xLjE5NC0uMDI1LTEuOC4wMi0uNTIuMDM4LS43MzUtLjA5NC0uNjk3LS42NjZ2LTIuNzR6bS01LjE5IDkuMTg1bC4wMTMtNS4yMzNjLjAwNi0uNDUyLS4xMTMtLjU5Ny0uNTcyLS41NzItLjQwMi4wMi0uNjcyLS4wMDYtLjY2Ni41NnYxMC40NzJjLS4wMDYuNTM0LjIyLjU3OC42NTMuNTg0LjQ0Ni4wMDYuNTg0LS4xMTMuNTc4LS41NzJsLS4wMDYtNS4yNHptLjI3Ni05LjkzMmMwLTEuMDUgMC0xLS45Ni0xLjA2Mi0uNjcyLS4wNDQtLjg0OC4xNy0uODE3LjgyMy4wNTcgMS4yNjMuMDEzIDEuMjQ0IDEuMjk0IDEuMjI1LjQwMi0uMDA2LjUyOC0uMTM4LjQ4NC0uNTEtLjAxMy0uMTU3IDAtLjMyIDAtLjQ3N3oiLz48cGF0aCBmaWxsPSIjYWNiN2IxIiBkPSJNLTY4LjE5OCAzMDkuMjk4bC0yLjY2NCA4LjUtMS44NDcgNS45NzRjLS4yMDcuNzE2LS42OTcuNDg0LTEuMTQzLjU0LS40Ni4wNTctLjYxNi0uMTYzLS43NDgtLjU4NGwtNC4yNjYtMTMuNTc2Yy0uMDUtLjE2My0uMDYzLS4zNTgtLjI5NS0uNTE1djEzLjg3YzAgLjU5LS4yOTUuOTA1LS43Ni44OC0uNSAwLS41OS0uNTItLjU5LS43NGwtLjAwNi05LjUwNS0uMDA2LTUuOTkzYy0uMDA2LS40NjUuMTA3LS42MzUuNjEtLjYzNSAxLjc5Ny0uMDA2IDEuNzY1LS4wMiAyLjI4NyAxLjcxbDMuNzc2IDEyLjI4OGMuMDQ0LjEzOC4wMy4zMi4yODMuNDRsLjU0LTEuNzY1IDMuNzA2LTEyLjAxOGMuMTU3LS41Mi40MTUtLjY1My45My0uNjQ3IDEuNjQuMDI1IDEuNjQuMDA2IDEuNjQgMS42MjdsLjAwNiAxNC40YzAgLjUxLS4wNS44LS42OS44MDQtLjU2LS4wMDYtLjY4NS0uMTg4LS42NzgtLjcxNmwuMDEzLTE0LjMxYy0uMDM4LS4wMTItLjA2My0uMDItLjA5NC0uMDI1ek0tNTUuOSAzMjMuMWwyLjY5LS4xN2MuNTEtLjA1LjY5LjEwNy42NzguNjM1LS4wMDYuNTEtLjA1Ljc4NS0uNjkuNzczbC01LjcxNy0uMDJjLTIuODE0IDAtNC40NDItMS4xNzUtNS4zMDgtMy44NjQtLjM0LTEuMDUtLjQ5Ni0yLjEzLS41Ni0zLjIzNS0uMTEzLTEuODM0LS4wNjMtMy42NTYuNDMzLTUuNDQuNDQtMS41ODMgMS4xNTYtMy4wMSAyLjY0LTMuODc2IDIuNzU4LTEuNjA4IDUuOTgtLjM2NCA3LjE1NSAyLjc0NS44OTggMi4zNzUuOTU1IDQuODMuNyA3LjMxMi0uMTgyIDEuODQtLjY2IDMuNTYyLTIuMDMgNS4xNHptLjUwMy03LjI3NWMuMDctMS40NTctLjA0NC0yLjk4NC0uNTQ3LTQuNDYtLjM5LTEuMTI1LTEuMDA1LTIuMDU0LTIuMi0yLjQ3LTEuODE2LS42MjgtMy43MDYuMjk1LTQuNDE2IDIuMjE4LS43NzMgMi4wODYtLjc5OCA0LjI2LS42NCA2LjQ0LjA3NSAxLjA1LjIxNCAyLjA5Mi42MTYgMy4wODUuNDQ2IDEuMTEyIDEuMTk0IDEuOSAyLjQgMi4xNSAyLjA0Mi4zOTYgMy41NS0uNDk2IDQuMjQ3LTIuNDc1LjQ5Ni0xLjQyNi41ODQtMi45MDIuNTQtNC40ODV6Ii8+PGcgZmlsbD0iI2ZlNjgwNCI+PHBhdGggZD0iTS0xMjYuODggMzE2LjA1OGMxLjY4NC41NCAyLjA2IDEuOTMgMi4zNTYgMy4zOGwuODczIDQuM2MuMDc1LjM3LjA4OC41NC0uNDE1LjU3OC0uNzU0LjA2My0xLjAxLS4yMDctMS4xMzctLjkzNmwtLjkzNi00LjM2NmMtLjQyLTEuNjQ2LTEuMjg4LTIuMjc0LTIuOTctMi4yOC0uNDg0IDAtLjk2Ny4wMjUtMS40NDUtLjAwNi0uNDMzLS4wMy0uNTQuMTI2LS41MzQuNTQ3bC4wMjUgNi4zNGMuMDEzLjYwMy0uMi42OTctLjc0LjctLjU4NC4wMTItLjcxNi0uMTc2LS43LS43MzV2LTE1LjM2YzAtLjU3OC4xNTctLjc0LjczLS43IDEuNDIuMDc1IDIuODQ2LS4wODggNC4yNi4xMzIgMS45MjIuMzAyIDMuMTM1IDEuMzYzIDMuNTE4IDMuMDk3LjQyIDEuOTQtLjIyIDMuODA3LTEuNjIgNC43MTItLjM3LjIyNi0uNzg1LjM2NC0xLjI1LjU5em0tNC4xOTctMy45NDVsLjAwNiAyLjc1MmMwIC4yMDctLjA5NC41LjI4My40OTYgMS4yNjMuMDI1IDIuNTMyLjAzOCAzLjctLjU0NyAxLjI1Ni0uNjI4IDEuOTQtMi4wMjMgMS43MS0zLjQ1NS0uMjItMS4zNTctMS4wMzctMi4wOTItMi41NzYtMi4zNTYtLjg5Mi0uMTUtMS43ODQtLjA5NC0yLjY3Ni0uMTI2LS4zNzctLjAxMy0uNDY1LjEzMi0uNDYuNDc3bC4wMTIgMi43NTh6bTI5LjcgMi4yNWMuNzIyLTEuMDUgMS41NC0xLjgwMyAyLjgwOC0xLjg4NSAxLjU1Mi0uMSAyLjY3Ni42NDcgMy4zMyAxLjk4NSAxLjE2OCAyLjM4NyAxLjE4NyA0Ljg5NC4zNTIgNy4zNjMtLjY2NiAxLjk2Ni0yLjQ1NiAyLjk5Ny00LjM1NCAyLjcyNi0xLjg3Mi0uMjctMy4wNDctMS42MzMtMy4yOTgtMy44NDVhMTIuMzEgMTIuMzEgMCAwIDEtLjA4OC0xLjQ0NWwtLjAxMy0xMS4wOTRjMC0uNTEuMTI2LS42Ni42NDctLjY2Ni41NDctLjAwNi42NC4xOTUuNjM1LjY3OGwtLjAxMyA1LjUxLS4wMDYuNjcyem01LjU3MiA0LjMyMmMtLjAwNi0xLjY0Ni0uMzE0LTMuMDM0LS44MTctMy44NS0uODczLTEuNDA3LTIuMjMtMS41Ny0zLjM3NC0uMzgzLS4yMi4yMjYtLjQ0LjQ4NC0uNTcyLjc2Ni0xLjAxOCAyLjE5Mi0xLjExMiA0LjQ0OC0uMjA3IDYuNjcyLjY2IDEuNjIgMi40MyAxLjk1NCAzLjY3LjgxNy40MTUtLjM4My42OS0uODU0Ljg4LTEuMzc2LjMyNy0uODk4LjQwMi0xLjgzNC40Mi0yLjY0NXptLTE1LjU5Mi00LjA0YzEuMTg3LTEuOTU0IDIuNTctMi41ODIgNC4xNTMtMS45OTggMS4wNS4zOSAxLjc3OCAxLjE1NiAyLjE4IDIuMTc0LjkxIDIuMzI0Ljk4IDQuNzEyLjEzOCA3LjA2LS43MzUgMi4wNTQtMi42NDUgMy4wMzQtNC43MzcgMi41OTUtMS4zNzYtLjI5NS0yLjE2Ny0xLjIyLTIuNjA3LTIuNDg4LS4yMzItLjY3Mi0uMzU4LTEuMzc2LS4zNTItMi4wOTJsLS4wMDYtMTEuN2MwLS40NzcuMDYzLS42NzguNjIyLS42NzhzLjYyMi4yMi42MjIuNjlsLS4wMTIgNi40NDZ6bTUuNTUzIDMuOWMtLjAwNi0xLjU4My0uMjc2LTIuODQtLjgtMy43Mi0uODMtMS4zNy0yLjItMS41NDUtMy4zMy0uNDE1LS44NzMuODgtMS4xOCAxLjk5OC0xLjMxMyAzLjE4LS4xNyAxLjU0NS0uMTYzIDMuMDc4LjU5IDQuNDk4LjY0NyAxLjIyIDEuODY2IDEuNjAyIDMuMDI4IDEuMDEuNjY2LS4zNCAxLjA4Ny0uOTA1IDEuMzYzLTEuNTc3LjM5LS45Ni40NzctMS45NjYuNDctMi45Nzh6bS05Ljg4MiA0LjE0NmMtLjgxNyAxLjAzNy0xLjY1MiAxLjYyNy0yLjc1MiAxLjgxLTEuNTkuMjctMi44Ny0uMzItMy4zNjctMS41ODMtLjYxNi0xLjU2NC0uMTU3LTMuMjU0IDEuMTMtNC4xMSAxLjIxMi0uODA0IDIuNjEzLS45NDIgNC4wMTQtMS4wNDMgMS4wMS0uMDc1IDEuMDEtLjA2My45OC0xLjA4N2wtLjAzOC0uNjg1Yy0uMTEzLTEuOTA0LTEuNy0yLjg4NC0zLjQ2OC0yLjE1NS0uNTcyLjIzMi0uOTEuNjY2LTEuMSAxLjI0NC0uMTI2LjQtLjg4LjY0Ny0xLjM2My40MjctLjM5LS4xNzYtLjE1Ny0uNTI4LS4wOTQtLjc3My40MTUtMS41NzcgMS44NDctMi4zNSA0LjE1My0yLjI2OCAxLjY3Ny4wNTcgMi42OTUuODkyIDMuMDAzIDIuNDcuMDU3LjI5LjA4OC41OS4wODguODg2bC4wMTIgNy44NTNjMCAuNDQtLjA1LjY2LS41NzguNjQ3LS40Ny0uMDEyLS42NzgtLjEyNi0uNjE2LS42MTYuMDItLjI3LS4wMDYtLjU0LS4wMDYtMS4wMTh6bS0xLjEzNy0zLjc2M2wtMS4zNjMuMTVjLS44NTQuMTYzLTEuNjMzLjQ5Ni0yLjA5MiAxLjI4OC0uMzk2LjY3OC0uNSAxLjM4OC0uMDIgMi4wNzMuNDUyLjY1MyAxLjEyNS43MjIgMS44NC41OWEzLjI4IDMuMjggMCAwIDAgMi42OTUtMi45MDJjLjEzOC0xLjIxMi4xMzgtMS4yMi0xLjA2Mi0xLjJ6bTMwLjgyNy05LjYwNWwtLjAxMyAyLjc0NWMtLjAzLjU3Mi4xNzYuNzA0LjY5Ny42NjYuNTktLjA0NCAxLjE5NC4wMiAxLjgtLjAyLjQ0Ni0uMDI1LjU1My4xNTcuNTI4LjU2LS4wMjUuMzQ2LjA1Ny42OTctLjUwMy42NjYtLjY4NS0uMDM4LTEuMzc2LjAwNi0yLjA2Ny0uMDEyLS4zMi0uMDA2LS40NC4wOTQtLjQ0LjQyN2wuMDI1IDcuMjk0Yy4wMjUgMS4zNDQuODggMS45IDIuMzI0IDEuNjY1LjIzMi0uMDM4LjY0Ny0uMzU4LjYzNS4yMi0uMDA2LjM4My4yOTUuOTg2LS41MSAxbC0xLjEuMDQ0Yy0xLjY3Ny0uMDg4LTIuNTMyLS45MS0yLjU3LTIuNmwtLjAxMy03LjI5NGMuMDA2LS41NzItLjA5NC0uODgtLjczNS0uNzU0LS4xMzIuMDI1LS4yNzYtLjAxMi0uNDE1LjAwNi0uNTE1LjA4Mi0uNjUzLS4xMjYtLjY2LS42NCAwLS41NC4yMzItLjU3OC42Ni0uNTcyIDEuMTMuMDEyIDEuMTMgMCAxLjEzLTEuMTU2IDAtLjE2My4wMjUtLjMyNy0uMDA2LS40ODQtLjE4Mi0uOTY3LjM3LTEuNDIgMS4yMzgtMS43NiAwIC45NTUtLjg2Ny4zNCAwIDB6bS01LjE5IDkuMTg1bC4wMTMgNS4yMzNjLjAwNi40Ni0uMTM4LjU3OC0uNTc4LjU3Mi0uNDMzLS4wMDYtLjY1My0uMDUtLjY1My0uNTg0di0xMC40NzJjLS4wMDYtLjU2NS4yNjQtLjU0LjY2Ni0uNTYuNDYtLjAyNS41NzguMTIuNTcyLjU3MmwtLjAyIDUuMjR6bS4yNzYtOS43NzVjMCAuMTU3LS4wODIuOTg2LS40ODQuOTkzLTEuMjgyLjAyLTEuMjQ0LjAzLTEuMjk0LTEuMjI1LjAwNi0uNjY2LjE3Ni0uNzU0LjgxNy0uODIzLjk1NS4xLjk2LjAxMy45NiAxLjA1NXoiLz48cGF0aCBkPSJNLTkxLjQ5MyAzMDkuNTdoLS43Yy0uMjk1IDAtLjUzNC0uMjQtLjUzNC0uNTM0di0uOTg2YzAtLjI5NS4yNC0uNTM0LjUzNC0uNTM0aC43Yy4yOTUgMCAuNTM0LjI0LjUzNC41MzR2Ljk4NmMwIC4yOTUtLjI0LjUzNC0uNTM0LjUzNHoiLz48L2c+PC9zdmc+" parent="42" vertex="1">
                    <mxGeometry x="81" y="122" as="geometry"/>
                </mxCell>
                <mxCell id="10" value="" style="shape=image;verticalLabelPosition=bottom;verticalAlign=top;imageAspect=0;image=data:image/svg+xml,PHN2ZyB4bWxucz0iaHR0cDovL3d3dy53My5vcmcvMjAwMC9zdmciIGhlaWdodD0iNjQiIHdpZHRoPSI2NCIgdmlld0JveD0iMCAwIDY0IDY0Ij48bGluZWFyR3JhZGllbnQgeTI9IjY2LjgxMiIgeDI9IjY0LjA4IiB5MT0iMzIuMTI2IiB4MT0iNjQuMDgiIGdyYWRpZW50VW5pdHM9InVzZXJTcGFjZU9uVXNlIiBpZD0iQSI+PHN0b3Agc3RvcC1jb2xvcj0iIzgxYjRlMCIgb2Zmc2V0PSIwIi8+PHN0b3Agc3RvcC1jb2xvcj0iIzBjNWE5NCIgb2Zmc2V0PSIxIi8+PC9saW5lYXJHcmFkaWVudD48bGluZWFyR3JhZGllbnQgeTI9IjQwLjYxIiB4Mj0iNjUuNTk1IiB5MT0iMi4xMSIgeDE9IjY1LjU5NSIgZ3JhZGllbnRVbml0cz0idXNlclNwYWNlT25Vc2UiIGlkPSJCIj48c3RvcCBzdG9wLWNvbG9yPSIjZjA2YjU5IiBvZmZzZXQ9IjAiLz48c3RvcCBzdG9wLWNvbG9yPSIjZGYyMjI3IiBvZmZzZXQ9IjEiLz48L2xpbmVhckdyYWRpZW50PjxsaW5lYXJHcmFkaWVudCB5Mj0iNTEuMDIyIiB4Mj0iNDcuNzI5IiB5MT0iODMuMTc1IiB4MT0iMjguMjY5IiBncmFkaWVudFVuaXRzPSJ1c2VyU3BhY2VPblVzZSIgaWQ9IkMiPjxzdG9wIHN0b3AtY29sb3I9IiMzODhiNDEiIG9mZnNldD0iMCIvPjxzdG9wIHN0b3AtY29sb3I9IiM0Y2I3NDkiIG9mZnNldD0iMSIvPjwvbGluZWFyR3JhZGllbnQ+PGxpbmVhckdyYWRpZW50IHkyPSIzNi42NzMiIHgyPSI3Mi43MzEiIHkxPSI4Ni41OTQiIHgxPSI5My40NjEiIGdyYWRpZW50VW5pdHM9InVzZXJTcGFjZU9uVXNlIiBpZD0iRCI+PHN0b3Agc3RvcC1jb2xvcj0iI2U0YjAyMiIgb2Zmc2V0PSIwIi8+PHN0b3Agc3RvcC1jb2xvcj0iI2ZjZDIwOSIgb2Zmc2V0PSIuMyIvPjwvbGluZWFyR3JhZGllbnQ+PGxpbmVhckdyYWRpZW50IHkyPSIyMC43MjYiIHgyPSIzNC43MTEiIHkxPSI1NC41NzEiIHgxPSIzNC43MTEiIGdyYWRpZW50VW5pdHM9InVzZXJTcGFjZU9uVXNlIiBpZD0iRSI+PHN0b3Agc3RvcC1vcGFjaXR5PSIuMTUiIG9mZnNldD0iMCIvPjxzdG9wIHN0b3Atb3BhY2l0eT0iLjA2IiBvZmZzZXQ9Ii4zIi8+PHN0b3Agc3RvcC1vcGFjaXR5PSIuMDMiIG9mZnNldD0iMSIvPjwvbGluZWFyR3JhZGllbnQ+PGxpbmVhckdyYWRpZW50IHkyPSI4OS4xOTIiIHgyPSI1OC4xNTkiIHkxPSI2NS41MDEiIHgxPSI4MS40MjciIGdyYWRpZW50VW5pdHM9InVzZXJTcGFjZU9uVXNlIiBpZD0iRiI+PHN0b3Agc3RvcC1vcGFjaXR5PSIuMTUiIG9mZnNldD0iMCIvPjxzdG9wIHN0b3Atb3BhY2l0eT0iLjA2IiBvZmZzZXQ9Ii4zIi8+PHN0b3Agc3RvcC1vcGFjaXR5PSIuMDMiIG9mZnNldD0iMSIvPjwvbGluZWFyR3JhZGllbnQ+PGxpbmVhckdyYWRpZW50IHkyPSIzOC44OTYiIHgyPSI4NC40NzQiIHkxPSI3Mi4zMTYiIHgxPSI4MS4wOSIgZ3JhZGllbnRVbml0cz0idXNlclNwYWNlT25Vc2UiIGlkPSJHIj48c3RvcCBzdG9wLW9wYWNpdHk9Ii4xNSIgb2Zmc2V0PSIwIi8+PHN0b3Agc3RvcC1vcGFjaXR5PSIuMDYiIG9mZnNldD0iLjMiLz48c3RvcCBzdG9wLW9wYWNpdHk9Ii4wMyIgb2Zmc2V0PSIxIi8+PC9saW5lYXJHcmFkaWVudD48ZyB0cmFuc2Zvcm09Im1hdHJpeCguNjc2ODUzIDAgMCAuNjc2ODUzIC0xMS4zMTg3NTQgLTEuMzc4Njg3KSI+PGNpcmNsZSBmaWxsPSIjZmZmIiBjeD0iNjQuMTE0IiBjeT0iNDkuNDk1IiByPSI0Ni41MzciLz48cGF0aCBmaWxsLW9wYWNpdHk9Ii4xIiBkPSJNOTMuNzMgNTcuOTU2YzAtMTYuMzU2LTEzLjI2LTI5LjYxNS0yOS42MTQtMjkuNjE1UzM0LjUgNDEuNiAzNC41IDU3Ljk1Nmg4LjQ2YzAtMTEuNjgzIDkuNDctMjEuMTUzIDIxLjE1Mi0yMS4xNTNzMjEuMTUzIDkuNDcgMjEuMTUzIDIxLjE1MyIvPjxjaXJjbGUgZmlsbC1vcGFjaXR5PSIuMSIgY3g9IjY2LjIyOSIgY3k9IjU1LjQxNyIgcj0iMTYuMDc3Ii8+PGNpcmNsZSBmaWxsPSJ1cmwoI0EpIiBjeD0iNjQuMTE0IiBjeT0iNDkuNDk0IiByPSIxNy4zNDYiLz48cGF0aCBmaWxsPSJ1cmwoI0IpIiBkPSJNMTA2LjQyIDI4LjM0Qzk0Ljc3MyA0LjkwOCA2Ni4zMzQtNC42NDggNDIuOSA3YTQ3LjM3IDQ3LjM3IDAgMCAwLTE4LjEzIDE1Ljg0M2wxOS4wMzggMzNDNDAuMyA0NC43IDQ2LjQ5NCAzMi44MjMgNTcuNjM4IDI5LjMxNmMxLjk2LS42MTcgNC0uOTQ0IDYuMDUzLS45NzMiLz48cGF0aCBmaWxsPSJ1cmwoI0MpIiBkPSJNMjQuNzcgMjIuODRDMTAuMTk4IDQ0LjU3NyAxNi4wMDYgNzQgMzcuNzQ0IDg4LjU4M2M2LjcyNSA0LjUwOCAxNC40OTMgNy4yMTcgMjIuNTYzIDcuODdMODAuMiA2Mi42Yy03LjQzNSA5LjAxMi0yMC43NjcgMTAuMy0yOS43NzggMi44NTRhMjEuMTQgMjEuMTQgMCAwIDEtNi42MDQtOS42MjMiLz48cGF0aCBmaWxsPSJ1cmwoI0QpIiBkPSJNNjAuMzA3IDk2LjQ1NWMyNi4wOTQgMS45NzMgNDguODQ3LTE3LjU4MiA1MC44Mi00My42NzZhNDcuMzggNDcuMzggMCAwIDAtNC43MDYtMjQuNDM4SDYzLjdjMTEuNjgzLjA1NCAyMS4xIDkuNTY3IDIxLjA1NiAyMS4yNUEyMS4xNiAyMS4xNiAwIDAgMSA4MC4yIDYyLjYwOSIvPjxwYXRoIGZpbGw9InVybCgjRSkiIGQ9Ik0yNC43NyAyMi44NGwxOS4wMzggMzNjLTEuNC00Ljc0Ny0xLjEtOS44MzcuODQ1LTE0LjM4NUwyNS42MTUgMjEuNTcyIi8+PHBhdGggZmlsbD0idXJsKCNGKSIgZD0iTTYwLjMwNyA5Ni40NTVMODAuMiA2Mi42YTIxLjE2IDIxLjE2IDAgMCAxLTEyLjI2OSA3LjE5MmwtOC40NiAyNi42NTMiLz48cGF0aCBmaWxsPSJ1cmwoI0cpIiBkPSJNMTA2LjQyIDI4LjM0SDYzLjdjNi40MzcuMDMgMTIuNSAyLjk4OCAxNi41IDguMDM4bDI3LjA3Ni02Ljc3Ii8+PC9nPjwvc3ZnPg==" parent="42" vertex="1">
                    <mxGeometry x="81" y="122" as="geometry"/>
                </mxCell>
                <mxCell id="12" value="" style="shape=image;verticalLabelPosition=bottom;verticalAlign=top;imageAspect=0;image=data:image/svg+xml,PHN2ZyB4bWxucz0iaHR0cDovL3d3dy53My5vcmcvMjAwMC9zdmciIHByZXNlcnZlQXNwZWN0UmF0aW89InhNaW5ZTWluIG1lZXQiIHZpZXdCb3g9IjIuMjQwMDAwMDA5NTM2NzQzIDQuMDMxOTY4MTE2NzYwMjU0IDIwLjExMDYyNDMxMzM1NDQ5MiA0LjIyNTAzMTg1MjcyMjE2OCIgaGVpZ2h0PSIyMC42MTY2MTYwNjcyODQ0OSIgd2lkdGg9Ijk4LjE5NjQwNzc4MDA1MTIzIj48cGF0aCBmaWxsPSIjMDkwIiBkPSJNNi4wMSA4LjI0N2MtLjExNCAwLS4yMjUtLjA0NC0uMzEtLjEyOEwzLjExNCA1LjUzM1Y3LjhjMCAuMjQtLjE5Ni40MzctLjQzNy40MzdTMi4yNCA4LjA1MiAyLjI0IDcuOFY0LjQ4YzAtLjE3Ny4xMDctLjMzNi4yNy0uNDA0cy4zNS0uMDMuNDc2LjA5NWwyLjU4NiAyLjU4NlY0LjQ4YzAtLjI0LjE5Ni0uNDM3LjQzNy0uNDM3cy40MzcuMTk2LjQzNy40MzdWNy44YzAgLjI0LS4xOTYuNDM3LS40MzcuNDM3bTIuMDIzLTQuMmwtLjEyLjIyNC0uOTMgMS42ODgtLjEyLjIxMy4xMi4yMTMuOTMgMS42MzMuMTI1LjIyNGgyLjQzbC4xMi0uMjQ2LjY5NC0xLjM5OC4zMS0uNjM0aC0uNzA0bC0xLjc3NS4wMDVjLS4yMy0uMDAzLS40NDMuMjA2LS40NDMuNDM3cy4yMTIuNDQuNDQzLjQzN2wxLjA3LS4wMDUtLjI2Mi41M0g4LjU0NmwtLjY4My0xLjIwMi42ODgtMS4yNDVoMS40NjRsLjM0LjdoLjg4bC0uNTU0LTEuMzI4LS4xMi0uMjQ2aC0yLjUzbTQuNDI2LS4wMDVjLS4yMy4wMDMtLjQzNC4yMTQtLjQzLjQ0MnYxLjE0aC44NzR2LTEuMTRjLjAwMy0uMjMyLS4yLS40NDUtLjQ0Mi0uNDQybTEuNCA0LjIxNWMtLjI0IDAtLjQzNy0uMTk2LS40MzctLjQzN1Y0LjQ4N2MwLS4yNC4xOTYtLjQzNy40MzctLjQzN3MuNDM3LjE5Ni40MzcuNDM3djIuMjc3bDIuNTg2LTIuNTg2Yy4xMjUtLjEyNS4zMTMtLjE2Mi40NzYtLjA5NXMuMjcuMjI3LjI3LjQwNFY3LjgyYzAgLjI0LS4xOTYuNDM3LS40MzcuNDM3cy0uNDM3LS4xOTYtLjQzNy0uNDM3VjUuNTQybC0yLjU4NiAyLjU4NmMtLjA4Mi4wODItLjE5My4xMjgtLjMxLjEyOG03LjAwNS0yLjEwNmwxLjM2LTEuMzU0Yy4xNy0uMTcuMTctLjQ0Ny4wMDEtLjYxOHMtLjQ0Ny0uMTctLjYxOC0uMDAxbC0xLjM2IDEuMzU3LTEuMzYtMS4zNTdjLS4xNy0uMTctLjQ0OC0uMTctLjYxOC4wMDFzLS4xNy40NDguMDAxLjYxOGwxLjM2IDEuMzU0TDE4LjI3IDcuNWMtLjE3LjE3LS4xNy40NDctLjAwMS42MTguMDgyLjA4My4xOTMuMTMuMy4xM3MuMjIzLS4wNDIuMzA4LS4xMjhsMS4zNTctMS4zNTMgMS4zNTcgMS4zNTNjLjA4Mi4wODIuMTkzLjEyOC4zMDguMTI4cy4yMjQtLjA0My4zLS4xM2MuMTctLjE3LjE3LS40NDctLjAwMS0uNjE4bC0xLjM1NS0xLjM1bS04LjQwNiAyLjA5NGMtLjIzLS4wMDMtLjQzNC0uMjE0LS40My0uNDQydi0xLjgzaC44NzRWNy44Yy4wMDMuMjMyLS4yLjQ0NS0uNDQyLjQ0MiIvPjwvc3ZnPg==" parent="42" vertex="1">
                    <mxGeometry x="11" y="96" width="98" height="21" as="geometry"/>
                </mxCell>
                <mxCell id="22" value="" style="shape=image;verticalLabelPosition=bottom;verticalAlign=top;imageAspect=0;image=data:image/svg+xml,PHN2ZyB4bWxucz0iaHR0cDovL3d3dy53My5vcmcvMjAwMC9zdmciIGhlaWdodD0iNjQiIHdpZHRoPSI2NCIgdmlld0JveD0iLTM1LjUgMjYgMzIgMzIiPjxwYXRoIGZpbGw9IiMwMDk0MzgiIGQ9Ik0tMzMuNDQyIDQyLjAyM3YtNy42MzdhLjY4LjY4IDAgMCAxIC4zODUtLjY1MWwxMy4xNzMtNy42MDhjLjIzNy0uMTQ4LjUwMy0uMTc4Ljc0LS4wM2wxMy4yMzIgNy42MzdhLjcxLjcxIDAgMCAxIC4zNTUuNjUxVjQ5LjYzYS43MS43MSAwIDAgMS0uMzU1LjY1MWwtMTEuMzY3IDYuNTdhNTYuMjcgNTYuMjcgMCAwIDEtMS44MDYgMS4wMzZjLS4yNjYuMTQ4LS41MzMuMTQ4LS44IDBsLTEzLjIwMi03LjYwOGMtLjIzNy0uMTQ4LS4zNTUtLjMyNi0uMzU1LS42MjJ2LTcuNjM3eiIvPjxwYXRoIGZpbGw9IiNmZWZlZmUiIGQ9Ik0tMjQuMTE4IDM5LjE4djguOWMwIDEuMDA2LS44IDEuODk0LTEuODY1IDEuODY1LS42NS0uMDMtMS4xNTQtLjI5Ni0xLjUtLjg1OC0uMTc4LS4yNjYtLjIzNy0uNTYyLS4yMzctLjg4OFYzNS44MzZjMC0uODMuNTAzLTEuNDIgMS4xNTQtMS42ODdzMS4zMDItLjIwNyAxLjk1NCAwYy42MjIuMTc4IDEuMDk1LjU2MiAxLjUgMS4wMzZsNy44NzQgOS40NDNjLjAzLjAzLjA2LjA5LjExOC4xNDh2LTljMC0uOTQ3LjY1LTEuNjg3IDEuNTctMS43NzYgMS4xNTQtLjE0OCAxLjkyNC42OCAyLjA0MiAxLjU0djEyLjZjMCAuNy0uMzI2IDEuMjE0LS45MTggMS41NC0uNDQ0LjIzNy0uOTE4LjI5Ni0xLjQyLjI2NmEzLjIzIDMuMjMgMCAwIDEtMS45NTQtLjgyOWMtLjI5Ni0uMjY2LS41MDMtLjU5Mi0uNzctLjg4OGwtNy40OS04Ljk3YzAtLjAzLS4wMy0uMDYtLjA2LS4wOXoiLz48L3N2Zz4=" parent="42" vertex="1">
                    <mxGeometry x="28" y="134" width="64" height="64" as="geometry"/>
                </mxCell>
                <mxCell id="43" value="" style="group;strokeColor=#A6A6A6;dashed=1;" parent="1" vertex="1" connectable="0">
                    <mxGeometry x="640" y="210" width="130" height="150" as="geometry"/>
                </mxCell>
                <mxCell id="39" value="" style="whiteSpace=wrap;html=1;strokeColor=none;" parent="43" vertex="1">
                    <mxGeometry width="120" height="150" as="geometry"/>
                </mxCell>
                <mxCell id="6" value="" style="shape=mxgraph.cisco.servers.fileserver;sketch=0;html=1;pointerEvents=1;dashed=0;fillColor=#f0a30a;strokeColor=#BD7000;strokeWidth=2;verticalLabelPosition=bottom;verticalAlign=top;align=center;outlineConnect=0;fontColor=#000000;" parent="43" vertex="1">
                    <mxGeometry x="48.25" y="40" width="23.5" height="42" as="geometry"/>
                </mxCell>
                <mxCell id="9" value="" style="shape=image;verticalLabelPosition=bottom;verticalAlign=top;imageAspect=0;image=data:image/svg+xml,PHN2ZyB4bWxucz0iaHR0cDovL3d3dy53My5vcmcvMjAwMC9zdmciIGhlaWdodD0iNjAiIHdpZHRoPSIxMjAiIHZpZXdCb3g9IjAgMCAxMjAgNjAiPjxnIHRyYW5zZm9ybT0ibWF0cml4KDEuMzAyNzggMCAwIDEuMzAyNzggMzkuODQxMzYyIC0uNTE3MDAzKSI+PHBhdGggZmlsbD0iI2QxYTQxYiIgZD0iTTUuNTI0IDE5LjU4YTIwLjg4IDIwLjg4IDAgMCAwIDEuMjE1IDEuMzY2Yy0xLjI5Ni4zOTItMi4xNSAxLjExNS0yLjY4MiAxLjc1OC0uODQ0IDEuMDE0LTEuMjg2IDIuMzUtMS4xODUgMy40OTVILjY0M2MuNDUyLS45NzQgMi4yNC0zLjc4NyA0Ljg4Mi02LjYyem0yNS44NjQgNy4yMjJoLTIuNzEyYy02LjIyOC0zLjI1NC0xMS43MDItNS41NDUtMTcuNTA3LTYuMDQ3LjAxLS44MDQuMTYtMS43MjguNDMyLTIuNzQybC0uNTMyLS4xNGMtLjI4IDEuMDQ1LS40MzIgMi0uNDUyIDIuODQzYTI3LjUzIDI3LjUzIDAgMCAwLTEuODI4LS4wNiA3Ljc1IDcuNzUgMCAwIDAtMS40MjYuMTMxIDIwLjAxIDIwLjAxIDAgMCAxLTEuNDU2LTEuNjE3YzIuNjcyLTIuNzgyIDcuMS01LjMwMyAxMC45MjgtNi4yNTggMS4wODUgMy41OTYgMy40MDUgNi4wNTcgNi4yMTcgNy43MTRhMTIuNDEgMTIuNDEgMCAwIDAgLjYxMy0uMzcybDQuOTEyIDUuMjkzLjItLjAyYzEuMzQ2LS4xMiAyLjEuNjEzIDIuMy44NDQuMTYuMTYuMjQuMy4zLjQzMnoiLz48cGF0aCBmaWxsPSIjZmZkYzc2IiBkPSJNMjguOTk4IDkuMTA0Yy4xIDQuODgyLTIuNCA4Ljc3LTUuODc2IDEwLjc2OC01LjkxNi0yLjk1My03LjAzLTEwLjQyNi02LjAyNy0xNC40MzQuMjggMS41MzcuNzk0IDIuNSAxLjg5OCAyLjk2MyAyLjQtLjY4MyA1LjcxNS0uNzQzIDguMTQ2LS4wNyAxLjAxNC0uNzQzIDEuNDA2LTEuODY4IDEuNjI3LTIuODUzLjI2IDEuMTQ1LjIyIDMuNjI2LjIzIDMuNjI2eiIvPjxnIGZpbGw9IiMwMTAyMDIiPjxwYXRoIGQ9Ik0xNC4xMDIgMTMuNzI1bC45MDQgMi42ODItMi43NDItMS44NDh6TTExLjQ2IDE0LjlsLjk2NCAxLjY2Ny0yLjA0LTEuMDM1em0tMi4yIDEuMzA2bC40NjIgMS42NjctMS40MDYtLjk2NHptMTQuOTU2IDQuNDhsLS44NzQgMS4zMzYgMS41MzctLjcwM3ptMS4zNjYgMS41MzdsLTEuMzk2IDEuMDc1IDEuOTQtLjUwMnpNMjIuMTY4IDcuNzA4bDEuMDM1IDIuMjcuNjczLTIuM3ptLTUuMjUzIDMuMzA1bDEuNjM3Ljg3NC0xLjQ3Ny4xem0uNDAyIDEuNzc4bDEuMDA0LjQwMi0uODQ0LjIzem0xMS43MTItMS4xMzVsLTEuMzQ2LjU2MiAxLjEwNS4xN3ptLS41NDIgMS42MzdsLTEuMDM1LjMuODM0LjN6bS0xMi4xMTUgMi41aDMuMjM0di40MDJoLTMuMjM0em0wLS45NTRoMy4yMzR2LjQwMmgtMy4yMzR6bTkuODY0Ljk1NGgzLjIzNHYuNDAyaC0zLjIzNHptMC0uOTU0aDMuMjM0di40MDJoLTMuMjM0em0tMS4xNDUtMi4zN2gtNS4yNjN2LS4zNjJoMS42MzdjLjItLjg2NC4yNC0xLjY4NyAwLTIuMS0uMS0uMTgtLjI1LS4yNi0uNDUyLS4yNi0uOTM0IDAtMS4zMjYuOTk0LTEuMzM2IDEuMDM1bC0uMzMtLjEzYy4wMi0uMDUuNDkyLTEuMjY2IDEuNjc3LTEuMjY2YS44NC44NCAwIDAgMSAuNzYzLjQ0MmMuMy41MTIuMjYgMS4zODYuMDYgMi4zaDIuODczYy4zODItMS4xMjUgMS4xNzUtMS42NDcgMi41LTEuNjQ3di4zNjJjLTEuNDQ2IDAtMS44NDguNjEzLTIuMTQgMS4yOTZoMS41Njd2LjM2MnoiLz48cGF0aCBkPSJNMjUuMzMyIDE0LjI1N2MtLjQyMi0uNjMzLS41NjItMS4xNjUtLjM4Mi0xLjc3OGgtLjM2MmMtLjEzLjQwMi0uMDggMS4wMTQuMjQgMS41NDdoLTMuNjU2YTguNSA4LjUgMCAwIDAgLjU4My0xLjU0N2gtLjM3MmMtLjE3LjU5My0uNDAyIDEuMTc1LS42NjMgMS42MzdsLS4wOC4xNSAyLjA1IDEuMjg2LTEuMTU1Ljc2My4yLjMgMS4yODYtLjg1NCAxLjM5Ni45MDQuMi0uMy0xLjI4Ni0uNzk0YTEyMi43OSAxMjIuNzkgMCAwIDEgMi4wMDktMS4zMTZ6bS0yLjMyIDEuMDg1bC0xLjUxNy0uOTU0aDIuOTYzem02LjU4OC02LjY3YzAtLjYyMy0uMi0zLjI2NC0uNTUyLTMuOTg4LS45NjQuMzcyLTIuNzMyIDEuNTU3LTMuMTM0IDIuNzgyYTE5LjgyIDE5LjgyIDAgMCAwLTUuOTU2LjA3Yy0uMy0xLjMxNi0xLjg5OC0yLjMyLTMuMDk0LTIuODgzLS41MDIuODU0LS43MjMgMi44MjItLjY3MyA0LjIyaC0uMDFjLjIyIDUuODY2IDMuMTA0IDkuNTIyIDYuODcgMTEuNzQyIDMuODc3LTIuMiA2LjY1LTYuNTMgNi41NS0xMS45NDN6bS0zLjIyNC0xLjEzNWMuMDEgMCAuMDMuMDEuMDQuMDEtLjAyIDAtLjAzLS4wMS0uMDQtLjAxem0tLjI0LS4wNGMuMDMuMDEuMDcuMDEuMS4wMi0uMDQtLjAxLS4wNy0uMDItLjEtLjAyek0yOSA5LjA5NGMuMSA0Ljg4Mi0yLjQgOC43Ny01Ljg3NiAxMC43NjgtNS45MTYtMi45NTMtNy4wNC0xMC40MjYtNi4wMjctMTQuNDM0LjI4IDEuNTM3Ljc5NCAyLjUgMS44OTggMi45NjMgMi40LS42ODMgNS43MTUtLjc0MyA4LjE0Ni0uMDcgMS4wMTQtLjc0MyAxLjQwNi0xLjg2OCAxLjYyNy0yLjg1My4yNiAxLjE0NS4yMiAzLjYyNi4yMyAzLjYyNnoiLz48cGF0aCBkPSJNMzEuNTIgMjZjLS42MTMtLjY4My0xLjc5OC0xLjAwNC0yLjc5Mi0uOTc0LS43MDMtLjg0NC00LjgtNS4xNTMtNC44LTUuMTUzbC0uMjguMzYyTDI4LjYgMjUuNTVsLjItLjAyYzEuMzQ2LS4xIDIuMS42MTMgMi4zLjg0NGExLjM0IDEuMzQgMCAwIDEgLjI4MS40MzJIMjguNjdjLTYuMjI4LTMuMjU0LTExLjcwMi01LjU0NS0xNy41MDctNi4wNDcuMDEtLjgxNC4xNi0xLjcyOC40MzItMi43NDJsLS41MzItLjE0Yy0uMjggMS4wNDUtLjQzMiAyLS40NTIgMi44NDNhMjcuNTUgMjcuNTUgMCAwIDAtMS44MjgtLjA2IDcuNzUgNy43NSAwIDAgMC0xLjQyNi4xMzFBMjAuMTIgMjAuMTIgMCAwIDEgNS45IDE5LjE3M2MyLjcwMi0yLjgxMiA3LjE1Mi01LjM1NCAxMS4wMi02LjI4OGwtLjEyLS41NDJjLTQuMTU4IDEuMDA0LTguNzA4IDMuNzM3LTExLjI1IDYuMzY4LTEuMTc1LTEuNTg3LTEuNjQ3LTIuODkzLTEuNzc4LTMuODc3LS4xNy0xLjI0Ni4xMi0yLjQuODY0LTMuMzE1IDEuMTU1LTEuNDM2IDIuODAyLTEuNTM3IDQuNS0xLjI1Ni0uMDMuMjcgMCAuNTIyLjEuNjgzLjQ0Mi42NjMgMi44NTMuODk0IDQuMjguMjUtMS4wNTUtMS40ODctMy4yMDQtMi4yLTMuNzk3LTEuOTE4LS4yLjEtLjM0Mi4yNy0uNDQyLjQ4Mi0uNTgzLS4xLTEuMTY1LS4xOC0xLjU4Ny0uMTgtMS40ODcuMDEtMi42MzIuNTMyLTMuNDg1IDEuNTg3LS44MzQgMS4wNDUtMS4xNzUgMi4zMy0uOTc0IDMuNzM3LjIgMS4zMjYuODQ0IDIuNzQyIDEuOTUgNC4ybC0uNTMyLjU4M0MxLjk2IDIyLjY5NCAwIDI1LjkyIDAgMjYuNDZ2LjI4aDMuNTQ2bC0uMDYtLjMzYy0uMi0xLjA1NS4yLTIuMzggMS4wMTQtMy4zNjUuNTEyLS42MjMgMS4zNjYtMS4zMjYgMi43MDItMS42NTcgMS4xODUgMS4xNjUgMi43MDIgMi40IDQuNCAzLjU4NmgyLjYzMnYtLjI4YzAtLjMtLjE1LS41ODMtLjQzMi0uNzczLS40MTItLjI3LTEuMDU1LS4zLTEuNjQ3LS4xLS41NjItLjYyMy0uODc0LTEuNDY2LS45NDQtMi41IDUuNzE1LjUwMiAxMS4yIDIuODEyIDE3LjM1NyA2LjAzN2gzLjM5NWwuMDQtLjIyYy4wNS0uMy0uMTItLjc0My0uNDcyLTEuMTM1ek00LjA2IDIyLjY4NWMtLjgzNCAxLjAxNC0xLjI4NiAyLjM1LTEuMTg1IDMuNDk1SC42NDNjLjQ1Mi0uOTc0IDIuMjQtMy43NzcgNC44ODItNi42Mi4zNjIuNDUyLjc3My45MDQgMS4yMTUgMS4zNjZhNS41MiA1LjUyIDAgMCAwLTIuNjgyIDEuNzU4eiIvPjwvZz48L2c+PHBhdGggZD0iTTIxLjc1NyA0NC42OGwtLjg4NiAyLjcwNWgtMS4xNWwyLjkyLTguNjE4aDEuMzRsMi45NDUgOC42MThIMjUuNzNsLS45LTIuNzA1em0yLjgyNS0uODYybC0uODM4LTIuNWMtLjE5Mi0uNTUtLjMtMS4wNzctLjQ1NS0xLjU4aC0uMDI0bC0uNDMgMS41NTYtLjgzOCAyLjVoMi41ODZ6bTMuNTItLjU3NWwtLjA0OC0yaDEuMDA1bC4wNDggMS4wNTNoLjAyNGMuNDU1LS43NDIgMS4xOTctMS4xOTcgMi4yMDItMS4xOTcgMS40ODQgMCAyLjYgMS4yNyAyLjYgMy4xMzYgMCAyLjIyNi0xLjM2NSAzLjMyOC0yLjggMy4zMjgtLjgxNCAwLTEuNTMyLS4zNi0xLjkxNS0uOTgyaC0uMDI0djMuMzUyaC0xLjF6bTEuMTI1IDEuNjI4YzAgLjE2OC4wMjQuMy4wNDguNDU1LjIxNS44Ljg4NiAxLjMxNyAxLjY3NiAxLjMxNyAxLjE5NyAwIDEuODY3LS45ODIgMS44NjctMi4zOTQgMC0xLjI0NS0uNjQ2LTIuMjk4LTEuODQzLTIuMjk4LS43NjYgMC0xLjQ4NC41NS0xLjcgMS40YTEuNSAxLjUgMCAwIDAtLjA3Mi40NTV2MS4wNzd6bTkuNTc2IDIuNTM4bC0uMDk2LS44aC0uMDQ4Yy0uMzM1LjQ4LTEuMDA1LjktMS45LjktMS4yNDUgMC0xLjktLjg4Ni0xLjktMS43NzIgMC0xLjQ4NCAxLjM0LTIuMzIyIDMuNy0yLjI5OHYtLjEyYzAtLjUwMy0uMTQ0LTEuNDM2LTEuNDEyLTEuNDM2LS41NzUgMC0xLjE3My4xNjgtMS42MDQuNDU1bC0uMjYzLS43NDJjLjUwMy0uMzM1IDEuMjQ1LS41NSAyLjAzNS0uNTUgMS45IDAgMi4zNDYgMS4yOTMgMi4zNDYgMi41Mzh2Mi4zMjJjMCAuNTI3LjAyNCAxLjA1My4wOTYgMS40ODR6bS0uMTY4LTMuMTZjLTEuMjItLjAyNC0yLjYuMTkyLTIuNiAxLjQgMCAuNzE4LjQ4IDEuMDc3IDEuMDUzIDEuMDc3LjgxNCAwIDEuMzE3LS41MDMgMS40ODQtMS4wM2EuOTYuOTYgMCAwIDAgLjA3Mi0uMzU5em03LjMyNiAyLjkyYy0uMjg3LjE0NC0uOTU4LjM2LTEuNzcyLjM2LTEuODY3IDAtMy4wODgtMS4yNy0zLjA4OC0zLjE2IDAtMS45MTUgMS4yOTMtMy4yOCAzLjMyOC0zLjI4LjY3IDAgMS4yNDUuMTY4IDEuNTU2LjNsLS4yNjMuODYyYy0uMjYzLS4xNDQtLjY5NC0uMjg3LTEuMjkzLS4yODctMS40MTIgMC0yLjE4IDEuMDUzLTIuMTggMi4zNDYgMCAxLjQzNi45IDIuMzIyIDIuMTU1IDIuMzIyLjY0NiAwIDEuMDUzLS4xNjggMS40LS4zem0xLjMxNy04LjgzNGgxLjEyNXYzLjg1NGguMDI0YTIuMTUgMi4xNSAwIDAgMSAuODE0LS44IDIuMjkgMi4yOSAwIDAgMSAxLjE0OS0uMzExYy44MzggMCAyLjE1NS41MDMgMi4xNTUgMi42NTd2My42ODdINTEuNDJWNDMuOWMwLTEuMDA1LS4zNi0xLjg0My0xLjQzNi0xLjg0My0uNzE4IDAtMS4yOTMuNTAzLTEuNTA4IDEuMTI1LS4wNzIuMTQ0LS4wNzIuMy0uMDcyLjUyN3YzLjczNUg0Ny4yOHptNy43IDYuMTc3Yy4wMjQgMS41MzIgMS4wMDUgMi4xNTUgMi4xMyAyLjE1NWE0LjM3IDQuMzcgMCAwIDAgMS43MjQtLjMxbC4xOTIuODE0Yy0uNDA3LjE2OC0xLjA3Ny4zODMtMi4wNi4zODMtMS45MTUgMC0zLjA0LTEuMjQ1LTMuMDQtMy4xMTJzMS4xLTMuMzI4IDIuODk3LTMuMzI4YzIgMCAyLjU2MiAxLjc3MiAyLjU2MiAyLjkyIDAgLjI0LS4wMjQuNDA3LS4wNDguNTI3aC00LjM1N3ptMy4zMDQtLjgxNGMuMDI0LS43MTgtLjI4Ny0xLjgyLTEuNTU2LTEuODItMS4xNSAwLTEuNjI4IDEuMDUzLTEuNzI0IDEuODJ6bTYuOTE2LTMuOGgtMi42di0uOTU4aDYuMzY4di45NThoLTIuNjMzdjcuNjZoLTEuMTI1em05LjM4NSA0LjUyNWMwIDIuMjk4LTEuNTggMy4yOC0zLjA4OCAzLjI4LTEuNjc2IDAtMi45Ny0xLjIyLTIuOTctMy4xODQgMC0yLjA2IDEuMzY1LTMuMjggMy4wNjQtMy4yOCAxLjc3MiAwIDIuOTkzIDEuMjkzIDIuOTkzIDMuMTg0em0tNC45MDguMDcyYzAgMS4zNjUuOCAyLjM3IDEuODY3IDIuMzdzMS44NjctMS4wMDUgMS44NjctMi4zOTRjMC0xLjA1My0uNTI3LTIuMzctMS44NDMtMi4zNy0xLjMxNy0uMDI0LTEuOSAxLjE5Ny0xLjkgMi4zOTR6bTYuMzItMS40MzZsLS4wNDgtMS42NzZoLjk4MmwuMDQ4IDEuMDA1aC4wNDhjLjMzNS0uNi45LTEuMTUgMS45NC0xLjE1YTEuODEgMS44MSAwIDAgMSAxLjc0OCAxLjI0NWguMDI0Yy4xOTItLjMzNS40My0uNjIyLjY5NC0uODE0LjM2LS4yODcuOC0uNDMgMS4zNjUtLjQzLjgxNCAwIDIuMDM1LjUyNyAyLjAzNSAyLjY4djMuNjRoLTEuMXYtMy40OTVjMC0xLjE5Ny0uNDMtMS45MTUtMS4zNC0xLjkxNS0uNjQ2IDAtMS4xNS40OC0xLjM0IDEuMDNhMS44OSAxLjg5IDAgMCAwLS4wOTYuNTV2My44M2gtMS4xdi0zLjdjMC0uOTgyLS40My0xLjctMS4yOTMtMS43LS42OTQgMC0xLjIyLjU1LTEuNCAxLjEyNS0uMDcyLjE2OC0uMDk2LjM2LS4wOTYuNTV2My43MzVINzZ6bTE1LjA1OCA0LjI4NWMtLjI4Ny4xNDQtLjk1OC4zNi0xLjc3Mi4zNi0xLjg2NyAwLTMuMDg4LTEuMjctMy4wODgtMy4xNiAwLTEuOTE1IDEuMjkzLTMuMjggMy4zMjgtMy4yOC42NyAwIDEuMjQ1LjE2OCAxLjU1Ni4zbC0uMjYzLjg2MmMtLjI2My0uMTQ0LS42OTQtLjI4Ny0xLjI5My0uMjg3LTEuNDEyIDAtMi4xOCAxLjA1My0yLjE4IDIuMzQ2IDAgMS40MzYuOSAyLjMyMiAyLjE1NSAyLjMyMi42NDYgMCAxLjA1My0uMTY4IDEuNC0uM3ptNC43NC4yMTVsLS4wOTYtLjhoLS4wNDhjLS4zMzUuNDgtMS4wMDUuOS0xLjkuOS0xLjI0NSAwLTEuOS0uODg2LTEuOS0xLjc3MiAwLTEuNDg0IDEuMzQtMi4zMjIgMy43LTIuMjk4di0uMTJjMC0uNTAzLS4xNDQtMS40MzYtMS40MTItMS40MzYtLjU3NSAwLTEuMTczLjE2OC0xLjYwNC40NTVsLS4yNjMtLjc0MmMuNTAzLS4zMzUgMS4yNDUtLjU1IDIuMDM1LS41NSAxLjkgMCAyLjM0NiAxLjI5MyAyLjM0NiAyLjUzOHYyLjMyMmMwIC41MjcuMDI0IDEuMDUzLjA5NiAxLjQ4NHptLS4xNjgtMy4xNmMtMS4yMi0uMDI0LTIuNi4xOTItMi42IDEuNCAwIC43MTguNDggMS4wNzcgMS4wNTMgMS4wNzcuODE0IDAgMS4zMTctLjUwMyAxLjQ4NC0xLjAzYS45Ni45NiAwIDAgMCAuMDcyLS4zNTl6bTQuMjEzLTQuNzg4djEuNzcyaDEuNjA0di44NjJIOTkuODV2My4zMjhjMCAuNzY2LjIxNSAxLjE5Ny44MzggMS4xOTcuMjg3IDAgLjUwMy0uMDQ4LjY0Ni0uMDcybC4wNDguODM4Yy0uMjE1LjA5Ni0uNTUuMTQ0LTEuMDA1LjE0NC0uNTI3IDAtLjk1OC0uMTY4LTEuMjItLjQ4LS4zLS4zMzUtLjQzLS44ODYtLjQzLTEuNjA0VjQyLjIzaC0uOTU4di0uODYyaC45NTh2LTEuNDg0eiIvPjwvc3ZnPg==" parent="43" vertex="1">
                    <mxGeometry x="18.25" y="70" width="111.75" height="59" as="geometry"/>
                </mxCell>
                <mxCell id="23" value="" style="shape=mxgraph.cisco.servers.fileserver;sketch=0;html=1;pointerEvents=1;dashed=0;fillColor=#f0a30a;strokeColor=#BD7000;strokeWidth=2;verticalLabelPosition=bottom;verticalAlign=top;align=center;outlineConnect=0;fontColor=#000000;" parent="43" vertex="1">
                    <mxGeometry x="24.75" y="60" width="23.5" height="42" as="geometry"/>
                </mxCell>
                <mxCell id="44" value="" style="group;strokeColor=#BDBDBD;dashed=1;" parent="1" vertex="1" connectable="0">
                    <mxGeometry x="533.5" y="507" width="273" height="151" as="geometry"/>
                </mxCell>
                <mxCell id="11" value="" style="shape=image;verticalLabelPosition=bottom;verticalAlign=top;imageAspect=0;image=data:image/svg+xml,PHN2ZyB4bWxucz0iaHR0cDovL3d3dy53My5vcmcvMjAwMC9zdmciIGhlaWdodD0iNjAiIHdpZHRoPSIxMjAiIHZpZXdCb3g9Ii0xNjkgMjg1LjkgMTIwIDYwIj48cGF0aCBmaWxsPSIjZjYwIiBkPSJNLTEzOC4yODIgMzA4Ljk2N2gtOS4yMWMtLjQ2NSAwLS44MzMtLjM4LS44MzMtLjgzM3YtOS42YzAtLjcxNC0uNTc0LTEuMjg4LTEuMjg4LTEuMjg4aC0zLjI5Yy0uNzE0IDAtMS4yODguNTc0LTEuMjg4IDEuMjg4djkuNTM2YzAgLjQ5OC0uNC44OTgtLjg5OC44OThsLTMuMDIuMDFhLjg5Ljg5IDAgMCAxLS44OTgtLjg5OGwuMDIyLTkuNTQ3YzAtLjcxNC0uNTc0LTEuMjg4LTEuMjg4LTEuMjg4aC0zLjI5Yy0uNzE0IDAtMS4yODguNTc0LTEuMjg4IDEuMjg4djI2Ljg3NmExLjE1IDEuMTUgMCAwIDAgMS4xNDcgMS4xNDdoMjUuNDI2YTEuMTUgMS4xNSAwIDAgMCAxLjE0Ny0xLjE0N3YtMTUuMjk0YTEuMTQgMS4xNCAwIDAgMC0xLjE0Ny0xLjE0N3ptLTQuMzIgMTAuMDg4YzAgLjgyMy0uNjcgMS40OTQtMS40OTQgMS40OTRoLTIuNTk4Yy0uODIzIDAtMS40OTQtLjY3LTEuNDk0LTEuNDk0di0yLjU5OGMwLS44MjMuNjctMS40OTQgMS40OTQtMS40OTRoMi41OThjLjgyMyAwIDEuNDk0LjY3IDEuNDk0IDEuNDk0eiIvPjxwYXRoIGZpbGw9IiNmZWZlZmQiIGQ9Ik0tODAuMzA0IDMyNC4yOTRjLjY4NS4yNjQgMS4xNDMtLjA1IDEuMTQzLS43ODV2LTEzLjg3Yy4yNC4xNTcuMjQ1LjM1Mi4yOTUuNTE1bDQuMjY2IDEzLjU3NmMuMTMyLjQyLjI5LjY0Ljc0OC41ODQuNDQtLjA1Ny45MzYuMTc2IDEuMTQzLS41NGwxLjg0Ny01Ljk3NCAyLjY2NC04LjVhLjQ3LjQ3IDAgMCAwIC4wOTQuMDEzdi43MzVsLS4wMTMgMTMuNTc2YzAgLjUyOC4xMi43MDQuNjc4LjcxNi42NC4wMDYuNjk3LS4yOTUuNjktLjgwNGwtLjAwNi0xNC40YzAtMS42MiAwLTEuNjAyLTEuNjQtMS42MjctLjUxNS0uMDA2LS43NzMuMTI2LS45My42NDdsLTQuMjQ3IDEzLjc4M2MtLjI1LS4xMi0uMjQ1LS4zMDgtLjI4My0uNDRsLTMuNzc2LTEyLjI4OGMtLjUyLTEuNzItLjUtMS43MTUtMi4yODctMS43MS0uNDk2IDAtLjYxNi4xNzYtLjYxLjYzNWwuMDEzIDE1LjQ5OG0yNC42LS41MzRjMS4zNy0xLjU3NyAxLjg0Ny0zLjI5OCAyLjAzLTUuMTI2LjI0NS0yLjQ4OC4xODgtNC45MzgtLjctNy4zMTItMS4xNzUtMy4xLTQuMzk4LTQuMzU0LTcuMTU1LTIuNzQ1LTEuNDkuODY3LTIuMiAyLjI4Ny0yLjY0IDMuODc2LS41IDEuNzg0LS41NCAzLjYtLjQzMyA1LjQ0LjA3IDEuMTA2LjIyNiAyLjE4Ni41NiAzLjIzNS44NjcgMi42OSAyLjQ5NCAzLjg2NCA1LjMwOCAzLjg2NGw1LjcxNy4wMmMuNjQuMDEzLjY4NS0uMjY0LjY5LS43NzMuMDA2LS41MjgtLjE3LS42ODUtLjY3OC0uNjM0bC0yLjY5LjE1N3ptLTcwLjk3LTcuMDQyYy40NjUtLjIyNi44NzMtLjM1OCAxLjI0NC0uNjAzIDEuNC0uOTA1IDIuMDQyLTIuNzcgMS42Mi00LjcxMi0uMzc3LTEuNzM0LTEuNTktMi43OTYtMy41MTgtMy4wOTctMS40MTMtLjIyLTIuODQ2LS4wNTctNC4yNi0uMTMyLS41NzItLjAzLS43My4xMzItLjczLjd2MTUuMzZjMCAuNTYuMTI2Ljc0OC43LjczNS41NC0uMDEzLjc1NC0uMS43NC0uN2wtLjAyNS02LjM0Yy0uMDA2LS40MTUuMS0uNTc4LjUzNC0uNTQ3LjQ3Ny4wMzguOTYuMDA2IDEuNDQ1LjAwNiAxLjY4NC4wMTMgMi41NS42MzUgMi45NyAyLjI4bC45MzYgNC4zNjZjLjEyNi43MjIuMzc3Ljk5MyAxLjEzNy45MzYuNTAzLS4wMzguNS0uMjA3LjQxNS0uNTc4bC0uODczLTQuM2MtLjI4My0xLjQ0LS42NjYtMi44MjctMi4zNS0zLjM2N3ptMjUuNDkzLTEuNjk2di0uNjY2bC4wMTItNS41MWMuMDA2LS40ODQtLjA4Mi0uNjg1LS42MzUtLjY3OC0uNTIuMDA2LS42NTMuMTU3LS42NDcuNjY2bC4wMTIgMTEuMDk0YTEzLjkyIDEzLjkyIDAgMCAwIC4wODggMS40NDVjLjI0NSAyLjIxIDEuNDI2IDMuNTggMy4yOTggMy44NDUgMS44OTcuMjcgMy42OTQtLjc2IDQuMzU0LTIuNzI2LjgzNi0yLjQ3LjgxNy00Ljk3Ni0uMzUyLTcuMzYzLS42NTMtMS4zMzgtMS43NzgtMi4wODYtMy4zMy0xLjk4NS0xLjI2My4wNzUtMi4wOC44MjMtMi44MDIgMS44Nzh6bS0xMC4wMi4yODNsLjAxMi02LjQ0NmMuMDA2LS40Ny0uMDU3LS42OS0uNjIyLS42OS0uNTYgMC0uNjIyLjItLjYyMi42NzhsLjAwNiAxMS43YzAgLjcxNi4xMiAxLjQyLjM1MiAyLjA5Mi40NCAxLjI3IDEuMjI1IDIuMTkyIDIuNjA3IDIuNDg4IDIuMDkyLjQ0NiA0LjAwMi0uNTQgNC43MzctMi41OTUuODQyLTIuMzUuNzczLTQuNzM3LS4xMzgtNy4wNi0uNDAyLTEuMDE4LTEuMTMtMS43ODQtMi4xOC0yLjE3NC0xLjU4My0uNTktMi45Ny4wNDQtNC4xNTMgMS45OTh6bS00LjMyOCA4LjA0N2wtLjAwNiAxLjAxYy0uMDYzLjUuMTQ0LjYwMy42MTYuNjE2LjUyOC4wMTIuNTg0LS4yMDcuNTc4LS42NDdsLS4wMTMtNy44NTNjMC0uMjk1LS4wMy0uNTk3LS4wODgtLjg4Ni0uMzA4LTEuNTc3LTEuMzI2LTIuNDEyLTMuMDAzLTIuNDctMi4zMDYtLjA4Mi0zLjczOC42OS00LjE1MyAyLjI2OC0uMDYzLjI0NS0uMjk1LjU5Ny4wOTQuNzczLjQ4NC4yMiAxLjIzOC0uMDM4IDEuMzYzLS40MjcuMTg4LS41NzguNTItMS4wMDUgMS4xLTEuMjQ0IDEuNzc4LS43MyAzLjM1NS4yNSAzLjQ2OCAyLjE1NWwuMDM4LjY4NWMuMDMgMS4wMjQuMDMgMS4wMS0uOTggMS4wODctMS40LjEwNy0yLjc5Ni4yNC00LjAxNCAxLjA0My0xLjI4OC44NTQtMS43NDYgMi41NDQtMS4xMyA0LjExLjQ5NiAxLjI2MyAxLjc3OCAxLjg1MyAzLjM2NyAxLjU4MyAxLjEwNi0uMTc2IDEuOTQ3LS43NiAyLjc2NC0xLjgwM3ptMjkuNy0xMy4zN2MtLjg2Ny4zNC0xLjQyLjc5OC0xLjIyNSAxLjc1My4wMy4xNTcuMDA2LjMyLjAwNi40ODQgMCAxLjE1NiAwIDEuMTc1LTEuMTMgMS4xNTYtLjQyNy0uMDA2LS42Ni4wMy0uNjYuNTcyIDAgLjUxNS4xNDQuNzIyLjY2LjY0LjEzMi0uMDIuMjc2LjAyLjQxNS0uMDA2LjY0LS4xMi43NC4xODIuNzM1Ljc1NGwuMDEzIDcuMjk0Yy4wMyAxLjcuODkyIDIuNTEzIDIuNTcgMi42LjM2NC4wMi43My0uMDM4IDEuMS0uMDQ0LjgwNC0uMDEzLjUwMy0uNjE2LjUxLTEgLjAxMy0uNTg0LS40MDgtLjI2NC0uNjM1LS4yMi0xLjQ0NS4yNDUtMi4zMDYtLjMyLTIuMzI0LTEuNjY1bC0uMDI1LTcuMjk0YzAtLjMzMy4xMi0uNDQuNDQtLjQyN2wyLjA2Ny4wMTJjLjU2LjAzLjQ3Ny0uMzE0LjUwMy0uNjY2LjAyNS0uNDAyLS4wODItLjU4NC0uNTI4LS41Ni0uNTk3LjAzOC0xLjE5NC0uMDI1LTEuOC4wMi0uNTIuMDM4LS43MzUtLjA5NC0uNjk3LS42NjZ2LTIuNzR6bS01LjE5IDkuMTg1bC4wMTMtNS4yMzNjLjAwNi0uNDUyLS4xMTMtLjU5Ny0uNTcyLS41NzItLjQwMi4wMi0uNjcyLS4wMDYtLjY2Ni41NnYxMC40NzJjLS4wMDYuNTM0LjIyLjU3OC42NTMuNTg0LjQ0Ni4wMDYuNTg0LS4xMTMuNTc4LS41NzJsLS4wMDYtNS4yNHptLjI3Ni05LjkzMmMwLTEuMDUgMC0xLS45Ni0xLjA2Mi0uNjcyLS4wNDQtLjg0OC4xNy0uODE3LjgyMy4wNTcgMS4yNjMuMDEzIDEuMjQ0IDEuMjk0IDEuMjI1LjQwMi0uMDA2LjUyOC0uMTM4LjQ4NC0uNTEtLjAxMy0uMTU3IDAtLjMyIDAtLjQ3N3oiLz48cGF0aCBmaWxsPSIjYWNiN2IxIiBkPSJNLTY4LjE5OCAzMDkuMjk4bC0yLjY2NCA4LjUtMS44NDcgNS45NzRjLS4yMDcuNzE2LS42OTcuNDg0LTEuMTQzLjU0LS40Ni4wNTctLjYxNi0uMTYzLS43NDgtLjU4NGwtNC4yNjYtMTMuNTc2Yy0uMDUtLjE2My0uMDYzLS4zNTgtLjI5NS0uNTE1djEzLjg3YzAgLjU5LS4yOTUuOTA1LS43Ni44OC0uNSAwLS41OS0uNTItLjU5LS43NGwtLjAwNi05LjUwNS0uMDA2LTUuOTkzYy0uMDA2LS40NjUuMTA3LS42MzUuNjEtLjYzNSAxLjc5Ny0uMDA2IDEuNzY1LS4wMiAyLjI4NyAxLjcxbDMuNzc2IDEyLjI4OGMuMDQ0LjEzOC4wMy4zMi4yODMuNDRsLjU0LTEuNzY1IDMuNzA2LTEyLjAxOGMuMTU3LS41Mi40MTUtLjY1My45My0uNjQ3IDEuNjQuMDI1IDEuNjQuMDA2IDEuNjQgMS42MjdsLjAwNiAxNC40YzAgLjUxLS4wNS44LS42OS44MDQtLjU2LS4wMDYtLjY4NS0uMTg4LS42NzgtLjcxNmwuMDEzLTE0LjMxYy0uMDM4LS4wMTItLjA2My0uMDItLjA5NC0uMDI1ek0tNTUuOSAzMjMuMWwyLjY5LS4xN2MuNTEtLjA1LjY5LjEwNy42NzguNjM1LS4wMDYuNTEtLjA1Ljc4NS0uNjkuNzczbC01LjcxNy0uMDJjLTIuODE0IDAtNC40NDItMS4xNzUtNS4zMDgtMy44NjQtLjM0LTEuMDUtLjQ5Ni0yLjEzLS41Ni0zLjIzNS0uMTEzLTEuODM0LS4wNjMtMy42NTYuNDMzLTUuNDQuNDQtMS41ODMgMS4xNTYtMy4wMSAyLjY0LTMuODc2IDIuNzU4LTEuNjA4IDUuOTgtLjM2NCA3LjE1NSAyLjc0NS44OTggMi4zNzUuOTU1IDQuODMuNyA3LjMxMi0uMTgyIDEuODQtLjY2IDMuNTYyLTIuMDMgNS4xNHptLjUwMy03LjI3NWMuMDctMS40NTctLjA0NC0yLjk4NC0uNTQ3LTQuNDYtLjM5LTEuMTI1LTEuMDA1LTIuMDU0LTIuMi0yLjQ3LTEuODE2LS42MjgtMy43MDYuMjk1LTQuNDE2IDIuMjE4LS43NzMgMi4wODYtLjc5OCA0LjI2LS42NCA2LjQ0LjA3NSAxLjA1LjIxNCAyLjA5Mi42MTYgMy4wODUuNDQ2IDEuMTEyIDEuMTk0IDEuOSAyLjQgMi4xNSAyLjA0Mi4zOTYgMy41NS0uNDk2IDQuMjQ3LTIuNDc1LjQ5Ni0xLjQyNi41ODQtMi45MDIuNTQtNC40ODV6Ii8+PGcgZmlsbD0iI2ZlNjgwNCI+PHBhdGggZD0iTS0xMjYuODggMzE2LjA1OGMxLjY4NC41NCAyLjA2IDEuOTMgMi4zNTYgMy4zOGwuODczIDQuM2MuMDc1LjM3LjA4OC41NC0uNDE1LjU3OC0uNzU0LjA2My0xLjAxLS4yMDctMS4xMzctLjkzNmwtLjkzNi00LjM2NmMtLjQyLTEuNjQ2LTEuMjg4LTIuMjc0LTIuOTctMi4yOC0uNDg0IDAtLjk2Ny4wMjUtMS40NDUtLjAwNi0uNDMzLS4wMy0uNTQuMTI2LS41MzQuNTQ3bC4wMjUgNi4zNGMuMDEzLjYwMy0uMi42OTctLjc0LjctLjU4NC4wMTItLjcxNi0uMTc2LS43LS43MzV2LTE1LjM2YzAtLjU3OC4xNTctLjc0LjczLS43IDEuNDIuMDc1IDIuODQ2LS4wODggNC4yNi4xMzIgMS45MjIuMzAyIDMuMTM1IDEuMzYzIDMuNTE4IDMuMDk3LjQyIDEuOTQtLjIyIDMuODA3LTEuNjIgNC43MTItLjM3LjIyNi0uNzg1LjM2NC0xLjI1LjU5em0tNC4xOTctMy45NDVsLjAwNiAyLjc1MmMwIC4yMDctLjA5NC41LjI4My40OTYgMS4yNjMuMDI1IDIuNTMyLjAzOCAzLjctLjU0NyAxLjI1Ni0uNjI4IDEuOTQtMi4wMjMgMS43MS0zLjQ1NS0uMjItMS4zNTctMS4wMzctMi4wOTItMi41NzYtMi4zNTYtLjg5Mi0uMTUtMS43ODQtLjA5NC0yLjY3Ni0uMTI2LS4zNzctLjAxMy0uNDY1LjEzMi0uNDYuNDc3bC4wMTIgMi43NTh6bTI5LjcgMi4yNWMuNzIyLTEuMDUgMS41NC0xLjgwMyAyLjgwOC0xLjg4NSAxLjU1Mi0uMSAyLjY3Ni42NDcgMy4zMyAxLjk4NSAxLjE2OCAyLjM4NyAxLjE4NyA0Ljg5NC4zNTIgNy4zNjMtLjY2NiAxLjk2Ni0yLjQ1NiAyLjk5Ny00LjM1NCAyLjcyNi0xLjg3Mi0uMjctMy4wNDctMS42MzMtMy4yOTgtMy44NDVhMTIuMzEgMTIuMzEgMCAwIDEtLjA4OC0xLjQ0NWwtLjAxMy0xMS4wOTRjMC0uNTEuMTI2LS42Ni42NDctLjY2Ni41NDctLjAwNi42NC4xOTUuNjM1LjY3OGwtLjAxMyA1LjUxLS4wMDYuNjcyem01LjU3MiA0LjMyMmMtLjAwNi0xLjY0Ni0uMzE0LTMuMDM0LS44MTctMy44NS0uODczLTEuNDA3LTIuMjMtMS41Ny0zLjM3NC0uMzgzLS4yMi4yMjYtLjQ0LjQ4NC0uNTcyLjc2Ni0xLjAxOCAyLjE5Mi0xLjExMiA0LjQ0OC0uMjA3IDYuNjcyLjY2IDEuNjIgMi40MyAxLjk1NCAzLjY3LjgxNy40MTUtLjM4My42OS0uODU0Ljg4LTEuMzc2LjMyNy0uODk4LjQwMi0xLjgzNC40Mi0yLjY0NXptLTE1LjU5Mi00LjA0YzEuMTg3LTEuOTU0IDIuNTctMi41ODIgNC4xNTMtMS45OTggMS4wNS4zOSAxLjc3OCAxLjE1NiAyLjE4IDIuMTc0LjkxIDIuMzI0Ljk4IDQuNzEyLjEzOCA3LjA2LS43MzUgMi4wNTQtMi42NDUgMy4wMzQtNC43MzcgMi41OTUtMS4zNzYtLjI5NS0yLjE2Ny0xLjIyLTIuNjA3LTIuNDg4LS4yMzItLjY3Mi0uMzU4LTEuMzc2LS4zNTItMi4wOTJsLS4wMDYtMTEuN2MwLS40NzcuMDYzLS42NzguNjIyLS42NzhzLjYyMi4yMi42MjIuNjlsLS4wMTIgNi40NDZ6bTUuNTUzIDMuOWMtLjAwNi0xLjU4My0uMjc2LTIuODQtLjgtMy43Mi0uODMtMS4zNy0yLjItMS41NDUtMy4zMy0uNDE1LS44NzMuODgtMS4xOCAxLjk5OC0xLjMxMyAzLjE4LS4xNyAxLjU0NS0uMTYzIDMuMDc4LjU5IDQuNDk4LjY0NyAxLjIyIDEuODY2IDEuNjAyIDMuMDI4IDEuMDEuNjY2LS4zNCAxLjA4Ny0uOTA1IDEuMzYzLTEuNTc3LjM5LS45Ni40NzctMS45NjYuNDctMi45Nzh6bS05Ljg4MiA0LjE0NmMtLjgxNyAxLjAzNy0xLjY1MiAxLjYyNy0yLjc1MiAxLjgxLTEuNTkuMjctMi44Ny0uMzItMy4zNjctMS41ODMtLjYxNi0xLjU2NC0uMTU3LTMuMjU0IDEuMTMtNC4xMSAxLjIxMi0uODA0IDIuNjEzLS45NDIgNC4wMTQtMS4wNDMgMS4wMS0uMDc1IDEuMDEtLjA2My45OC0xLjA4N2wtLjAzOC0uNjg1Yy0uMTEzLTEuOTA0LTEuNy0yLjg4NC0zLjQ2OC0yLjE1NS0uNTcyLjIzMi0uOTEuNjY2LTEuMSAxLjI0NC0uMTI2LjQtLjg4LjY0Ny0xLjM2My40MjctLjM5LS4xNzYtLjE1Ny0uNTI4LS4wOTQtLjc3My40MTUtMS41NzcgMS44NDctMi4zNSA0LjE1My0yLjI2OCAxLjY3Ny4wNTcgMi42OTUuODkyIDMuMDAzIDIuNDcuMDU3LjI5LjA4OC41OS4wODguODg2bC4wMTIgNy44NTNjMCAuNDQtLjA1LjY2LS41NzguNjQ3LS40Ny0uMDEyLS42NzgtLjEyNi0uNjE2LS42MTYuMDItLjI3LS4wMDYtLjU0LS4wMDYtMS4wMTh6bS0xLjEzNy0zLjc2M2wtMS4zNjMuMTVjLS44NTQuMTYzLTEuNjMzLjQ5Ni0yLjA5MiAxLjI4OC0uMzk2LjY3OC0uNSAxLjM4OC0uMDIgMi4wNzMuNDUyLjY1MyAxLjEyNS43MjIgMS44NC41OWEzLjI4IDMuMjggMCAwIDAgMi42OTUtMi45MDJjLjEzOC0xLjIxMi4xMzgtMS4yMi0xLjA2Mi0xLjJ6bTMwLjgyNy05LjYwNWwtLjAxMyAyLjc0NWMtLjAzLjU3Mi4xNzYuNzA0LjY5Ny42NjYuNTktLjA0NCAxLjE5NC4wMiAxLjgtLjAyLjQ0Ni0uMDI1LjU1My4xNTcuNTI4LjU2LS4wMjUuMzQ2LjA1Ny42OTctLjUwMy42NjYtLjY4NS0uMDM4LTEuMzc2LjAwNi0yLjA2Ny0uMDEyLS4zMi0uMDA2LS40NC4wOTQtLjQ0LjQyN2wuMDI1IDcuMjk0Yy4wMjUgMS4zNDQuODggMS45IDIuMzI0IDEuNjY1LjIzMi0uMDM4LjY0Ny0uMzU4LjYzNS4yMi0uMDA2LjM4My4yOTUuOTg2LS41MSAxbC0xLjEuMDQ0Yy0xLjY3Ny0uMDg4LTIuNTMyLS45MS0yLjU3LTIuNmwtLjAxMy03LjI5NGMuMDA2LS41NzItLjA5NC0uODgtLjczNS0uNzU0LS4xMzIuMDI1LS4yNzYtLjAxMi0uNDE1LjAwNi0uNTE1LjA4Mi0uNjUzLS4xMjYtLjY2LS42NCAwLS41NC4yMzItLjU3OC42Ni0uNTcyIDEuMTMuMDEyIDEuMTMgMCAxLjEzLTEuMTU2IDAtLjE2My4wMjUtLjMyNy0uMDA2LS40ODQtLjE4Mi0uOTY3LjM3LTEuNDIgMS4yMzgtMS43NiAwIC45NTUtLjg2Ny4zNCAwIDB6bS01LjE5IDkuMTg1bC4wMTMgNS4yMzNjLjAwNi40Ni0uMTM4LjU3OC0uNTc4LjU3Mi0uNDMzLS4wMDYtLjY1My0uMDUtLjY1My0uNTg0di0xMC40NzJjLS4wMDYtLjU2NS4yNjQtLjU0LjY2Ni0uNTYuNDYtLjAyNS41NzguMTIuNTcyLjU3MmwtLjAyIDUuMjR6bS4yNzYtOS43NzVjMCAuMTU3LS4wODIuOTg2LS40ODQuOTkzLTEuMjgyLjAyLTEuMjQ0LjAzLTEuMjk0LTEuMjI1LjAwNi0uNjY2LjE3Ni0uNzU0LjgxNy0uODIzLjk1NS4xLjk2LjAxMy45NiAxLjA1NXoiLz48cGF0aCBkPSJNLTkxLjQ5MyAzMDkuNTdoLS43Yy0uMjk1IDAtLjUzNC0uMjQtLjUzNC0uNTM0di0uOTg2YzAtLjI5NS4yNC0uNTM0LjUzNC0uNTM0aC43Yy4yOTUgMCAuNTM0LjI0LjUzNC41MzR2Ljk4NmMwIC4yOTUtLjI0LjUzNC0uNTM0LjUzNHoiLz48L2c+PC9zdmc+" parent="44" vertex="1">
                    <mxGeometry x="76.5" y="49" width="120" height="60" as="geometry"/>
                </mxCell>
                <mxCell id="29" value="" style="whiteSpace=wrap;html=1;fillColor=#60a917;fontColor=#ffffff;strokeColor=#2D7600;" parent="44" vertex="1">
                    <mxGeometry x="38.25" y="15.5" width="46.5" height="21" as="geometry"/>
                </mxCell>
                <mxCell id="30" value="" style="whiteSpace=wrap;html=1;fillColor=#60a917;fontColor=#ffffff;strokeColor=#2D7600;" parent="44" vertex="1">
                    <mxGeometry x="115.25" width="46.5" height="21" as="geometry"/>
                </mxCell>
                <mxCell id="31" value="" style="whiteSpace=wrap;html=1;fillColor=#60a917;fontColor=#ffffff;strokeColor=#2D7600;" parent="44" vertex="1">
                    <mxGeometry x="188.25" y="21" width="46.5" height="21" as="geometry"/>
                </mxCell>
                <mxCell id="32" value="" style="whiteSpace=wrap;html=1;fillColor=#60a917;fontColor=#ffffff;strokeColor=#2D7600;" parent="44" vertex="1">
                    <mxGeometry x="226.5" y="63" width="46.5" height="21" as="geometry"/>
                </mxCell>
                <mxCell id="33" value="" style="whiteSpace=wrap;html=1;fillColor=#60a917;fontColor=#ffffff;strokeColor=#2D7600;" parent="44" vertex="1">
                    <mxGeometry x="206.5" y="109" width="46.5" height="21" as="geometry"/>
                </mxCell>
                <mxCell id="34" value="" style="whiteSpace=wrap;html=1;fillColor=#60a917;fontColor=#ffffff;strokeColor=#2D7600;" parent="44" vertex="1">
                    <mxGeometry x="123.5" y="130" width="46.5" height="21" as="geometry"/>
                </mxCell>
                <mxCell id="35" value="" style="whiteSpace=wrap;html=1;fillColor=#60a917;fontColor=#ffffff;strokeColor=#2D7600;" parent="44" vertex="1">
                    <mxGeometry x="46.5" y="109" width="46.5" height="21" as="geometry"/>
                </mxCell>
                <mxCell id="36" value="" style="whiteSpace=wrap;html=1;fillColor=#60a917;fontColor=#ffffff;strokeColor=#2D7600;" parent="44" vertex="1">
                    <mxGeometry y="63" width="46.5" height="21" as="geometry"/>
                </mxCell>
                <mxCell id="58" style="edgeStyle=orthogonalEdgeStyle;html=1;exitX=1;exitY=0.5;exitDx=0;exitDy=0;entryX=0.5;entryY=0;entryDx=0;entryDy=0;entryPerimeter=0;" edge="1" parent="1" source="45" target="5">
                    <mxGeometry relative="1" as="geometry">
                        <mxPoint x="250" y="330" as="targetPoint"/>
                    </mxGeometry>
                </mxCell>
                <mxCell id="45" value="" style="shape=image;verticalLabelPosition=bottom;verticalAlign=top;imageAspect=0;aspect=fixed;image=data:image/png,iVBORw0KGgoAAAANSUhEUgAAAIAAAACACAYAAADDPmHLAAAACXBIWXMAAAsTAAALEwEAmpwYAAAgAElEQVR4nOx9B5SdxZG1yEkgogIG/8YGY2OMF2N712kNDmsMJiNETkYEkYVylkbSjGZGk3POOeecc85ZGuUsEey1fwPv1V+3+us3PQ+xiwRe73+O5pw+38tvZur2rVvV1dUzZpz5OfNz5ufMz5mfMz9nfs78nPk583Pm58zPmZ8zP2d+zvyc+Tnzc+bnzM9X9XPW/yfjzM+X/PlnG/AMKP7JP1/kH3r2/6JxBgBf0c9/ZehzeJzrNM6zhvPjzs9/0fF5n/Nffbb52DlO48sA5n/b+If+nMzo+p/o/A8/n8cFTuPCLzguMsYXeb3z9/xX43xrOAPqvwPEP9uw/xWj/o8B4mTG10Y3DQ7DXczjEmvM5HEpj8tOMmadxjjZ51xmfcfJxkyncYn1+5kgMwFyMpZxZo1/9jjbuP53QPjSP84f6Gx4/APxD8U/F4a4nMcVZ5111tU8ruHbGLOtMccac53GPGtce5IxzxjO75tjjNlO4xpjXG2Nq3hcid/P+j01oJyB8Xnscv7/knEyl+jMYF8ZGE4262XGs4EvPueccy4799xzr+DrVTyuOfvss7WBYbzreFzP4//wa7/BH3ID3/4mj29Z40Zr3MTj258zbrKGfq1+7zetcYMxvmGN/8Pj67ieffZZX+fvlsG/2/XnnH32dXy91vodNVAADBMUmjkucRoX/5PHyVyjM3P9V8xwyj+fN/Mv5H/oJWefdRb+WTPnzp17xe233379j3/84xt/8pOf3MLX23/EP/zYT2677bYf33rrrT+55ZZb/vW73/3uT3n87ObvfOfnN99888+/ffPNv/j2t7/9y5tuuulXetx444138nBcrcf/nV/H4+Zf8vt+cfPN3/n5d77znZ9Zn/dv+Ozvfe97P8HAd33/+9+Xge/m6w/5PbfdcMMNt1x22WU3WgD5FoPgJh43WEABUMEwmknAFlfy34hxuTVmGeOyf/K4FMMApunKzj8JEL40AEzjY+bjSy+/9NJLL1+2dOmvG+trXXfvnCg4uG9Px+ED+/qPHTk4euzwwfFD+/eO7921c2RyYmxkYnR4eGx4cHhksH94sL9neKC3a6Svu3Okt6tjpKujbbSzvWWks61lpL21ebSDB658H4+PdvPzPZ3to/09XSMDvd0jQ/298jmjQwPDE6NDwzvGR4b5O4Z27xwf4u8b3r9n18iBfXtG+Dq8d/dk//jIUCN/R05udqbv22+99cqv77rr9+ece+6t/DfcxiC4jf+eW3h8h8dNPL7JA4x1PY/reHyNx7U85vGYa1xP5sr+UWPOWdPd3DWWi4U7A2tpN6ZZ4mSMcMoAcKZ+7fMvYaq/4sILL5wVFRn5LBEd+fD4Ydo7OUo7xwZoYqSPxga7abi/g0b6O2m4r52GettpoKeV+rtbqKe9kXo6GqmrrZ7ammqoub6SWhoqqbGmjBpry6iproJvl1OD3C+nFn6+tbGaWhuqqL25hrpa62X0dTbTIH/mUG8bjQx00iiPsaFumhjuoR2jfbRrfJD27hym3RODMg7t3UFHD0zSXz448umBvZMTifFxobf94Af38t/zY2v8C4/v8/juDOV6vjUDbku5j+sZKNedpdzH1/Tg/8O1Z/9PDXZb/H3zeMzlwWA4S7QTu995ltaCC9PuC0C4wACBZoLTAoDp9y8CHfIvc8XChS/9/NO//+3Qvl3jbNQGW3d7va2judbW3lRta22ssrU1Vdkaakpt9VXFttrKIltNeYGtojTXVlaUbSspyLQV5qbZ8rKSbDkZibbs9ERbbmayLSs9wZaeEmtLS4qxZabG2dKTY2wZfD83M8mWm5FkK8pLt5UX59jKCrNsFSW5tjr+7KbaMltLQ4Wts6XW1sbf29lSY8Pv09PRYGOA8GixDfe12Ub62+0jA+12vs1g6aBjBydpZKhv/K0339z8m1//5vV77rnntfvu++PCBx988MVHH33kuQULHnv6ySefePKZZ555/Lnnnl3w/PPPz3/xxRcfxfjTn/4kY+FLLz3C/4dH5PpFxkLz9QutYTz3ebd5vLxw4cMvv/zyQy+/vPChP730p/ueevLJu+64445bZijXBbaCrtFAuMwCwYVOIPhSs/9Cy+9cffmsWVc31lUHvH/sIPV1NX/K/3Dq5VnNhicGgcxUzGA2PLHhqaosn4rzM6ggO5Vys1IpPzud8nPSqTAnkwrzc3nkU0lRMRUXFlFBbh4V5uXz67IoJyuJ0lNjKS0pnhgMlJIQSRkpcZSXmUyFuenEQKKq0nz5nobqEmquKycGIHW31THLNDBLNDJLtDBLtDIbtTMzgSk67HwVYIwPddGxQ7tpZLD3k46Wpk8G+7o/GR8Z+GTPzvFPDu7d9cnRQ/s/OXH00McfnTj68V8+PPHxf/L4258/+Pj//uXDjz/+658//vt/fiTjE9z+K1//9hd+/KOPP+aruv1nvuI567V47q/69X/++P/+J3/O39Rr5H1//bM1PpLHP7Zep1/zifq8T/j7//aXD47zr7ijzs/P9+1rZs+GtrkBLmuGchVXGiDQTHDO6QJAz/6LMfv5Oveqq666rq25sWxyfNCOmd7BBgdVt/E/n2c98aynmopC4tnKhs+kksJcHgyCggIxdHlpBVVVVFFNVS3V1zRSQ10TNdU3U0tjCzU3tLBLaOVrKz/WQHU1dVRZXs3vL6Ss9BRKToim2KgQSooLo6y0eAZTioCrlMFQXVZAzAjsViqI2YCBWC3ABAgGLRBg9gMQYIKJkR6wg31yrI+/s4a/I4fqq8v476hlF9XALovdS38XjQ/3snsbpJ3sVvbsGKZ97O727x6nPXzV9/c6xgjt2zUmz++bHKMDeyZoL9/Hc3i9em5Crnh83279GvWZB/n2np0j/Poxec3unfi8UXkNnj+wZ1xeC+Y9emgP0ad//zQjPc39kpkzvw1hO0OJ2rlOINDC8JQBoGc/UDSTAYBw6fqrr7rqpramhtrhvk4Y3QYf3VBdKjOxqiyPDZ/Lsz2NZ3kGFRbmUXFpCZWUVlJlRR3VVddRfW0DG72RmmHwphZqbW6j1pY2amtpp/bWDmpv66COtk4Zne1d6jGMpmb+njo2VDGzQgJFRwRRbGQwJcSEUXZGIhXkpAkYqplx6vh3aWEgsHsgdgs00N1sjRYHEMAAoh0GOwAGe2V5kb20KNdeW1Vmb6yvtHe1N9oHejvso4Pd9rHhXvuO0QE7QL9ncsTOBrXv3jHsuLKx7Gwkue7hgcfZkHLdu3PUfnDvhP3Abh58Pbh3hzyH1+v34DPwPD4bz7Hh7QwuOxtd7u/jq/6O/TzkO3ePf7qfAfGXj4799amnnnycbQMh+20LBBCLcAcQh9oVnDYAoCxnWcr3hssvv/x79dWV9YMs7li42eqYfquZ6mF4zPjcXKbvHJ79PGvLSsp5tpdTbXU1G76eGut5tjfybG9qdRjcNHZXR7eMnq5e6u7sUaNLXbs6e3n0yPNtDIaqygp2EakUFx1OMQyGpPgIZoUEystKphIAgX+nhpoSAQJrBGgVFqMt1N/VLACAS8AAEHAdYsFaUVIgTFBVVsiCtIramuuot4tBM8CvYSaYGO2nyYkhmfkQvbt3DAkD7Nk5Ko/v4seFGXjmYrChhBUw2/fLjB6l3ZPqcTDEJMTqLvV6zHCIV1wZNPL5+FzNLof27SQGkLwP9xkwuNo+PHGQ0pITIlgc/mCGErLIk3xthgpnTRY4ZQA46H+Gyu7hQ789c+bMO0qLChp7WYlDlJUWZjG9Z1N+Lhs/m2d/fh6VlhRReVkZz/pqNn69NeMVzbfxbIfhYXBtdG3s3u4+6uvpnzb6ewdk9PLo6e5nQPRSD7+2R0DRza6iibVDrgAhMtSfkuMjKTM1nhkhVdxQLbsjuAboA2gDsIB2BRoI4hKGu9lVtFFuZiqVMgjqqsvZnVTx9zBzMNgBgPEhBsFIP0caA2I8DI46xehifB67GAgwEOh71w7r9o4RueI5AAXUj4HHAYZJjlTw3G6ACFd8zs5h673DYmxcxT1YLoKZBI/Zjh/eY68qL6q98orLf872uQMh7QyVDIMrgNu+xGKBUwLA2TMM+geaEB/z9daLL774Z3lZGS0I44oLsmzFhQWUmZlBOdmZbPxC8fNlpWXi52ura8X4jQ3NQvky643Zro2uBww90DcoY7B/yGmoxwbwmt5BBseAMIUCQx+zUQOlpCRQSJAPRYcHUWpiNOVkJBFHD1RZmicg6GB30M0haC8LRISQCCUBAoSP2i20NtZSRmoilZdAYJYKC3S3N7HgbaFhYYIexQYc8o4P9zEY+gUIYnCwA18nx4fkPmbxjvEBAQJu4/WY8drI4/wZ0BYCAr7i/q7xIcfrJ3ngtbiNIbpAgKAANjk2aEN4W19T3j1v7pzfsX1+yna6zWABuO1LLRY/JQA41P8MFV/OQZKErz+88MILf5OWlNTeWFNJmWlptsz0dDY+K/u8XPHPZSWlLNwqqLqyWhm/Xhkfvr7DyfgwoJ71MDoAoA0+NDBMw4MjMtTtUQ7dRuX20IB6Tb8AoV8+p68L7qFTwBceEkChgT4UHx0qbACWqijJoUYWqQBCZ2sdu4ImAQBEInQBGADXnaMsChtr2J0kCbPVc0TT3FBNnSwMAYQh1j4jA/zawS6CDoJRMcaYHQCMsaEe/j27xbB4bJTvw7hgDbCHerxHiUt+bIcFDLiXHZbBxegaGGMA17AMAAOfBbYBANi12BDJNNVVDs6dN/c+ts+/s53u4OvNM1QaXruB0wYA3ggx8TUrW/bT888/7+7Y2Ii+wtwcykhO4Tg9k/Jy8qkov5RKi0uY+stZ4Vezgq8Vhe9sfG14Z4p3NjqMrcfYyDiNDo85rhh4fJhfP8hjoG+I+rp5dAJQ/Wy0GoqPjaCQQG8BQUZKLBVx6FhRkivhIsQh2KCXXQI0gXYHmgX2sZ+urSqldGYUFoZyG9FBG8LclnqJEKCBhvstMDAzqNtdAhCwBAw/2NshVwBjhB8Hawzx6wZ62hlA3cIoeP1wH7skjjgmRhRghq3PxPvgHnYwcAAm7XaUtkBkMWI7epABUFs5PG/u3IfZTr9hG/2Er9+bodLec6wJfPGpGN8M/+A/QCNYTIHI+NcHH3xoc1pqwl/T0lKY+jPtOTnZyu8XFarZX1EpAGioq6cmpn4YH9SvZ75pfMx6NaPVMA2ux/johGNMjO2Qgdv6efUeZgRmhb6+Yfnc3p5eFn7t7AbiKdDXQ6KFzJQ4YQKEi/VVJRK2djET6OgAxtf5AhkMhBp2AZlpiZK3qGRhCDZoYTaAWwAj9HW3SsjY3aF0Qg+uDI6BnjYxdD9fuzuaGOBtzFCt4kY4uuD3MYDY6Mq1tAoghq3XAxCDPEYlo8rilEEE44Mx8JzohR3K1fDVdnj/JIvdiuE5s2cvYPv8BybpDCUGwdimDjhlAID+sfAA+ucY86xbH5u/YEVqctpH6SmplJGWbs/OyubZn0OFEuOz8GP6ra6ssmY/ANDIAGhh0dfGAOicJvScZz0MqWe5s9F3TkyyL90pV30bA88JCIb5vWCEwWHLNfDndzPg2jsoOjKSNruspUAfT4qLCpVkVENtFTOByhcgV9Df3TwtYYQrmABp5M7WJioqyFFhbV6mRAmVZYgwyvlzKvjvrGDdUCOCEVemY3EZYAzcbuLHAZoO1h6trJtaGtT9Rn5vI78X78No50ilHSzDo4NZBuDo72oTFgGgAJgxi02gFeAuJscHbMgRNFSXj1wz+5on2F5/YFv9gq+YrNAByBQiJzDzixrfFICi/jm8QIbpW4/Pn/9GRmr6h6nJqZSWkm7Pyshi1Z9DBXn5ksXD7K+w6L++to59fwPTf5Oo/o62dgGAKfb0rD+Z8fVMN40+uWMXK+PdMnBbD7xGgwWfgc8bABv0MtP0dlF7cztFR0SQ93Z3iokMp9SkeDZgMdVXqxAR6xJ9IgoVABAR4LpjpEdAsGfHoCRehvoRojbz38PG6WjhWcwzHgbqA6V38LWLaZvpm1831N+DDKOMseF+xxgdglbAYPbr7ZT3gPrx2fg8fA7YpJVBABC1M9NgfaSdXQ+YBKwCIIi7YYZgrWHbz78bi9VRBsDTbKd7GQD/ztfbZ6jl82tPFQB69ov6t9b3v/bLX/zi7pTE2D0pSQmUlppiy8pg1S+zH6ncAgEAZj/EX211jWP2t3C8rmY//2EcsplKHzP184yvDW8afffkHhl7du11DNzHcwokihFGh9lYAAGYoI9ps0flDSJCgygkwJdSEmIoOyNZogMkjdqaqiRHAC0Ad2DmBnaO9oo4nBgGEIYkFj92cC8dP7yPPjh6kE4c2cf399CxQ9Zjx/DYfhnvHz1g3d4nWbtjPPCa44f5tfz6E4f3O+7j/UcP7KEj+3fRYR4H9uxg0PEkGB2kjtZGAQQYAxpEuRwVlTAYbBCD1eXFo9dcc/UzbKv7GAC/sgCAzODXvigAnGf/RTr1e+O3brolPDioMo0FUWpqsi0zI5Wys7JUzJ/L4q+gUIk/Cf0qBQCY/SYAujo6eLZMB4Dz7HemfNP4e3fvc4x9e/ZbV/2YBoLBBhCJ/NkSNsLldHVSeXER+Wx3Y03AroCFIbKHWE9A1hCuAMkiAEBnCsEEAIIeDteg1hTktnYZYA+8RkcTGkTqPt7faQGJn7PE5nCfSknr12rGAegmORKB+0Fq+ODenfz3jTGbdVBNRYlDh3S2NiBJZUP0UF0BAFzzLNvr/pMAQIeC/63xtfoX8YdlxvPOO/+alWvW+uVkZBKHfrb09GTKykynvOxs9olTsx8AUKFflQMAoH/4f8x+DACgr6dnGgBMwQfDad9uGh8zXRseY//eA9bYJ2Pfnr0CArxm1849CgRjE45IARFCL3/3II+05CTycHNhNvCXPEFuZpJEBggPu9vrJVGklrBbjXSxShbBeFg30I9pY+FxGE+HkSaD6MdxxdDP4XPwGXg/Hte3TcDpz8NzuycG6DCzzwSHjY2sF9jg4iI6WupsEIsVZUUmAO7k6w9nqGXtUwKAQ/yx38fsv/LeP9zzu/SUpKPpifH2zNQMe2ZGOs/+DKb+bJn9AIAkfhyxf5XD/2P2AwDw/1MM8FkAmPRvUr9J9zD8gX0H6eD+QzIOHTjM4yAdPoj7B/g5BQoAwWQCfDZyBv2sB/r5u5samijAz5uZwFXSx6lJMbJ+gFXLproy0QPa+HpW69mpZyie04bVrKCNqGe5Bod+TAMI92F8vF4LTWuV0vE+5xS1fp1mBuQHmtj45aUFEKG2fo4+yksKxq65+urnDADccToA0LP/Yvb9V82ePWdOaGBAcmZKIqXz7EfCJ0syfhmUmwvxVyD0r1b4lP/X8f/JANDd2TUNACfz/ycDgDY+hjL8ETpy6IgY/8ihw3I9fPAgA2C/sMGeXRCJiBQQISBERJ6A3YDkHzr4984jL4+tFIocQUyYZAsrS/IYAOXiBiAItSvQ/3wzUWQaTRtWuwttPG10zQIaSJox9GdrIOn3Ol81aExQiB7ZOSwRSGVpga2rrZHKivPGWANoANx1OgBwzH42/mVnnX3WrMcff+IPWWkp76ckJtkzUlPsOez7czKR78+ivFxL/QMAxcUO/68BAP+vIoBWAQAGANDX02vF/0MOEfh5AHCe/cr4h9nox+joYYwjdOzIUb4eltsAwYF9CgS7JxEhQBSOCwiGBgc5xuYIhIHY1thMft7babvHFooOD2RXEEVFuWlUV1Vs1RPUS5YQBtIsYBpUG0wbVoNCU7xJ+Sqz+FmaN42uX6/ZxdQQzm5IswquI/0dPPlybAg1y0ryGQDXPM/2e+BUGeCk4m/u3Guv8ffzi0tP4tmfkmRjILC/ZOrPyqR8BkB+HruAglwqLiqgstJiCf+0AIQL+DwAKB3Q58gBaABoEahjfA0A7fs1/R8+eESMf+zIMTH+8aPHLBAcETaAO9AssHMC0QQLwhGEhnADDACwEI/M1FRy27yeAv22U2xkCGWnJ1BZUbawALQAGECHg5rWzdBQz1zTHZjG1fdN93Cy583369ficU39JuBMFtCDowJbTWWJYoDZDgCcEgOYlT/nW1U/l/7xvgfuzEhLOcEhkz09OcmelZY6BQD2//l5zAAFeVRczBGABQAtAJ0BgChAuYFOSwf0TksCmVGAjv912AcAwLdrv3/k0FE2+HEBAIx/4thxx1UDACyg3MBOAQAYAAAY7OvnaKCLZ3gHtdTWMwt4sCvYIiuIaawFkCpG9RJSxXADAIAuIdNiTM9yZ3o3xZ6ewabCd1b62rDmbNeA0gOPQ/yZKeppUYlEEu22+ppyKszL+tIAkNhf1fydO3PzRhcPLKKkJiTYMlJY+TMA8jj0AwAKBAAcARTkM/0XTANATVWNQwSaWcCTA+DkoaBmAK0BFAC071cAOH70hBjdHGCBQ6wHAIC9uxEWTtKEAYABBgBmfzd+F/6dkhPiaPPGNRTsv50SY5UWQESgVw0di0TG7NOG0bPTmbpNEWhGCqay1+83XQke0+JQP6a/S7sZ8zkjNLV1tNZTUX7W2JzZs08ZANMKP9j3Y+Hnsm9844YbYiPDB1LjYhkASQ4AmAxQwAxQhDIvuIAyAKDMYoApEajzANoNAACmGxjoGzgpAHQeQMf/cAGK/g+J+FPUf5zeZ6N/YA0A4BjcABiAQ8O9zAC72AXsFBfAQhAAgAtgBuhqbRdQVlaWcki4hXw8XSmKtQDqDcuLsyUv0NpQIcmhIcMNmDPV2YB6lpqzWLOGOXv15+j3OIeZAIsGjGYcU3RqQMn7FZBsA71tVFqUNzZnjgDglETgNPV/7rnnXnreuedevOCxx+dnpiR9nBQTY09NTCB2AewzU3iGpBsMMAWA8rISqihnAFRgDaBmGgBMHaCygV2WGOyRGal1gNYCKhm0w5EH0DoAYd6hAwcEBEcZACeY9j9ko394/IQMgOA4AMCh4UHkBywA7GIATAwzwAYGeUajdqBTXEAHM1NLcwOFBQfStq0bKTzET9wAik1RQKLrCbFIpN2ATg5po5gzHbPXmdL1a5xDRGcAOb/PObTU7KM1g36NlZOw7Rzrp5rKstMGgIP+zzvvvFmXXnbZTLetbt6pCTFMi3GfYjUtLelkAMh1AsB0EWgCALNNuwENAISDigUGp60Ejo+OyzCTQYjtAQD4dwBAGIDHBwwCzQDv820NgANIDHEUIAzAUcA4A2C4f0DyAN1ISrXx74IQlUdGSiptdVkn2UEUm6LQFDoAawQdUkvYInWDpjFNw5l0bBpaz2Jn4Tc9nOv+DAj0Z52MTfTnmm6En7Md3DOGgpBxKwr4wgBwqH9+gxR+YLPHrbd+f05IoF9JYlw0JcbF29IS4h0MoF1AgbgA1gCFKOdGFFAkDKAqfdkFVNdOWwyCDnBmgZ6uLkda2FwRnAoJdzrcgA4FD+7fL8kfiD2AAEZ/3wLBCYACoSCDBAwAAOyGCBzlzxtigFn+vwu/Q2urAKCjqY0Kc7Joy6a15OvlRnEMgFzWAYgGUGbe1VrLorFJtICzQcysnnMIaKp3PYN1WKjpW7/eTDDpDKGzW3AGnwk8DgXtEIrlxbk7LQ1w6gCA/8dGT9YAl/78pz//fmJM9Fh8TDgDIMaWEq8AAB1gMkAhA6C4QAEAIlDyAOUqD6BZQEcDOiGkFoXajWXhHocWUHpgSJI2ozxjAQIoeCj53ZOKBZD21dk/CL4TBghg/GMMjEMsAPezANQMAACMIgKwQkAAAPTf3oTy8yae7aUcCWxjLbCJosICZP9BcV6GRAJtjZWyx0DnBJzp22QDU7CdLFwz2cA0vP4M7Wacows963FfJ5v0fetz7fsmh6i6vHDXnDlzXjgdAIj/P/vss2YyA1z89BNP3ZsYG/PXuKhwSoqNsqewUk5NTBQAZKenOQBQhPIvDgNLihAGYiWwhBmgwooE1HKwXhEEC0yJQVUX0NWhANDb3S3JIcTog/0AwYAUd4yNjLAYHJNYHmoeYR2U/cF9FgvwOM4G1zPfBABcwD6EgfD/LAABAE3/HQhLwUgNLdTYUE+1/Lv6bPckty3rKSzIh/9W6IBUqShuZQDIvgJrmdj025qWMWN1Xt98Tt/XoaC5smiGhGYewDQ2bu8a75+WhtasYboEbHQBAKpK8xkAs08fAPymmZfOnHnJW2+88XxibPQn8dHMALExDAAOBS0h+FkAFBgAmFoL0AAw3YACQIsFgA6rJrDbYoFeBwggDIdYsAEACN+QyQMLaACABRxaAK7AGEf5MRMAYAAAAAJwGgDASDz7G+oYpMxW/r6+rAPWUnCAF//N4SIEBQANlZIa1htJzCyd84KPGf9rw5szVQs4M5XsFM45EkDODGImjfT7Dcaw7xrv+9IAQPx/2cUXX3TJxnXrVifERFJMRJgtPjqGkuLiHADQoSAAUJzPs7+QAVBcqEQgU6lOBZsuACygAaDdgCoJ73aEhWABFRr2CgtgIG4HAMZHp7OABsAhHtro+noyAGgBCPrvxHfj9+Dfp7mugYUTRyvVVRQSFEib1q8iP+9tUj+IfAAAoKqFGsQFmADQWT3TH+u0r6ZpM0vonMQxRaAZ8plGPxkgTDeko5Hhvnb7nh0D7MoKvpQLQPHHZZfyz4a1q73josIsAEQwALAnL94BAM0AAECpAKBIUsGVCAMrK6YBAMbXDKBA0GJEBB2yQAQQdHWo3IAGgXYH0AMAALSABgDSvEj0CAgsPaAXhDQAIAI1ACAAEf5h9rfy7EdhSAu7pSYAgI1fx4wVExFBG9auJD+vbXw7mAVvHFUaCaEBq1zMNILpEk6WDHJ2CXgNKN1U+lr06cecl5L1bQ02/Zkmq4wPddtRscSAPW0AnMtvQO3fZddf//UrPbdtS48OD+F/RKhNdABHA8nxigV0JIBqYACgDPQvG0BKqLKCAVCFcrCqaUH+nYMAACAASURBVAA4mQ7QIaGOChQIOo3wsFdcAVhAgWDcEoO7HCAAE0wDgqULTAAgChAAMKDwPfj+Fmv2N9Sw/2fA1vLvy+EuuWxYLQyA/QQ5mVORQI+1LqAjATML6ByymdGAs0twXvQxVxnNiEIb2pkx9KKSc25hfLhbGECJwNNzASYArtIAiA4PtSkdoAAAFtAA0AxQLgAo5hCw9DMAcI4EpljgsyAwR3dnpyUOe4QJtCswWUCDQA+JDhgIAIAOAzUDaAGIz262Zn8zgFldz/80/n1ZuMZFRdPGdaukWiiSIwHHwhAYoEmVjoMB9D/eOZY3xZkZtpm+2qRz/bj5Xm1gPdudwWDmA0ztABEIBlAu4NQBcLYJgOuuv/4q922u6dFhwRwSBQsDJMREMQvECgAQCZgAAAPISqADAEoEihCs/qwrABDMsFDnBwAGfW1v1bUDyiUABGABJQgnHHpAD80KSP8eRoQABsCSsBUFAAB9/DntLdhxzMbn36OxFptUa6gaK5jsuuKjo2j9mhXk7eEqAIALKMnPlF3O2PmMlLBeF3BeyjV9uLniZ/p00LwJENP3688w8whm4YhzGtnUFJYwtO/dyWFg2emFgU4A+DoDwC0zKjSIGSDExm6AIAg5GnDoAA2AkoJ8qrBmvxi+Cv6/UowPMaiHjgp0mbhZLGqyggJFq2MPQUdblwhF7CGYqh7SOYJRxxCNwKDYw0A4xCDQLAAAIAuoBSAAoHw//w5IV+N3LeXfsaSUYiIjmQFW0vZtmykyNEB2EoEBdK0gsoGyxZyH6dNNajfFnXMmz0wK4TloAVPcmbPczAo6f675vPEdEgVUlOTtmnu6AJhhbf+6ZObMWWtWrfSF4SOZAXCFEEyIUW4AKWGEgggBxf8XFkoUgHQwrnK7sMhRJ6hrBfVKoblcrMGg2WGKIZp5tDj2EardRABC37SQUYvFfksrTDAQQPm7mRWwELSXr2AAAAACEOJPz/6GmmqqYf9fXVIhIA7w86F1a5aTt+dWWRRKT47lCCeLRaIqEEEuYKhPlYmdTAuYfl3PUrPax1TvZqLHXBTS901XYaZ+nRedjJVJ0QC1lcWnzQC6+8flF15wwWVrlq9YF8saIGoaAGLEDWgGQEYQtyEMU5MTKDmJrylJlJ6eQumpaZSelkaZ6RmUlZHp2Degq4Z12VhNZbUjYpD7VWojKXYSYxs5egjoLWWOvgFWBKGHKRx1DkElkwbF8DJQA9DZJaFfA1iIRx0YqRKzv4x1TAn5+/jSmpVLyJejANQGIBsIF4A1gXbH7qGWaWv1pjo3DWsygk4UmbrBzOObwtBpVk/L+DkLTKPbibgApIJrKotOCQCfKQIFAC666KJZSxYvXhoVHmKPDA2yR4cHs0CKEB8JAEAExkSEU4CPN/l4epDvdk/y9fEib6/t5OG+jVy3bqEtLpvJdctW8nT3IB8vb/L386OwkFCKjY6h5EQOJTMyKD83n7WD2kQCQFSWa5dR7RjoHlLGBsrLyaOcrBzKSMugxIQEimUwhoeGUVBAIHlv9yKPbe7yXf6+fhQazMCNiKRoFnUQdqn8fSXMQpL5YwZA1q8efQoAOgFAOZUXFvP73WjtqqUcBbhTBLsAVAtjCxmaViEZpAGA2T82OLWkq42i43+zksf0286aQL/fTBQ5uwMzBDRLyvSKpMkAeL6uquS0AGD2/7niggsuuGLB4wsWRISH/j0qTHSAHTkBsEBqYhwF+vrQpnVrWSy5i1vIzcqQwlBsDslkA8XFxJKvtw+tX7uOli1ZSu+9s1jG8qXLaM2qNbRp4ybauHEj+bGxCouKqIhHWTGAUMmjSoCA22ghU1lexdQcQJs2bCR3Nzfaunkrrd+wgVatWkVLli6hpfyZmze5UEhQsDANAARRqesN4Gbi4+Jpu+d2Cg8Lt1imWgzfUFUjS9dV/F1l+fkM2nXCACgUhQZIYwbAphEsC2NNQBaFOpsEBHp52KwY1rNW074ZFZj+2xSCJgOYt3UZmgkIc1lYLxY52IAZAJqiqrxwkgHw/IwvWBAyrQxshur/cyUD4MoFCxY8FREW+nFkaKAAIJbdAHbSBPBM37h2rbAB8gBYDMIVu4NA96nJKRTP8TRmO2bmFpcttGHdelq9agWtWrmcVq5YSsuWLaGVK1dSVFQUZWdny+wuLUIxSYUFgCoBQGlxGeuHEkpJSqaN6zcKoDbxdR1fcXsrMwyAFsmzPTEhkbBFDXoDIICOgGvQ2USITIAEDAF3A/qvZwDUsguq5u8tKyhgcG1kgC5T+wVC/IQB8rJTHI0lOq1VwaFeXRvQPo3OTaFnKn+Tus143ywJN3073gNjnqyc/PMWl9DjCFFAJYvAL8oAzvSPLCB6/12DPnS//OUv/sAMcCwiBAAItSfEYIu1L21Ys5KjgVgRgYgIIAqT2S1EhUdSoH+g0DCMtXrlajb2Slq5bAWtXM5jxTI23Gqe/evJzXUr+bFLiIhgXQHDZWVRERsAbWRMABQXllJ2Zg6lpaQyq8RQcGCQgMptqxtt3ugiMx/MAIABGHADMHJSfIIAEmXqWmvovAPcQ4CfP4d/rDsqayQDWMkuqJAjGgjA1SsUAwT5e1FKfBSzW7KjSBShoGwgFRCojKDOC2hDmMkfM4Y3xaBzVGAuKpmzXX+Wpn7nDaumxkD7O2iAytJTB4Du/4cycOwfR4+5a2+99dafhYWGTEayC4hhAMRFRlBokB9Sw2L0uKhIiuXHwoKDyN+bZ/oWF3rrzTfo8UcfpXv+cDf9+q676D9+81v64x//SM8++wy9/dbr7A7epVXLl/DsXUsubDwPBksY03JKcjLrgTxH1zD4ftwuyCtk46dRZHgE+bFAc3fbRi5s8LWrVtPixYvp2aeepnv/cA/97te/od/+9rf0B/7e+Y88zN/1FmsSH9YJsdi5LJ8NZtBRSCozShXfrqsCE1RJEgjuax2De8Wyd6QwxN/HXVUJpyUKALCNHG3vsCwsbsDKBwwZXcdMQehM2yZ9a7o3l30xzC1ozkAycwTm45phVCLoi0cBJ2v/dsn5558/844f/eim22677Ud3/urO+WEhYYejwtGBK5wBgGwghGAkRwahFM6GD2DDb9u6lQ27mB5+8I90392/p+cfW0BL3nmLlrIR3lj4Cs1/6BG681e/ovvuvZdeX/QKM8J7tHb1CtYAzAQsFv39fdhHx1I+uwHM+pqqOqqrqRcWQNSQyLMZM3+7hydt2byZNq5eS2++9jr9jr/r97/+Lb228FVat2wlubpsIpd1LrRuyXJ6+okn6eEHHhTmCfQPoBgWgukMBBgZYrAWFUs8kAeo51CwnkGXm51PK1hTwAV4ebjR9m1bGPA+DJZoys9KkQ0jEIMqIVTPTKBAMDrYYQFhynjm0q+eqTr/b5aYmxRu7ikw3YbzaqBZT6CvFrjsu/k7aqtODQAy+1EEiiTQk08+/YuS4oKWqPDwyQ3rN+7H6hhCwNhIFoBR4QAC3AGFBgaI+t+6aQMb4xW67/e/p6fZ8O++/Aq99NwTtODR+2jB/Pvonvvvoqefmk8v8kx9+P4H6Oknn6J33n6LXcFKfu8mcmcABPh6s2aIpgIWYUgSoYEUwj2EfiUcmiUlJAitg/pdt7rSksVL6IknFtCTT8ynt195hZ5+egHd/8Dv6MlH7+HH7qdVS98jTxcXWsYAfPj+++j11xaRFwQgRwzQJ9jHWAqdwK4BUQByAdADRQV57EK2s88v5DCyl5knkVnAw7FjSLOAaoJZ7dhGPpWanVLtzqt8ZubPmb5NhtBuxbmkzASDuZ3MKUkk9QA1FV9sLWCa+kfT5wsvvPCiX9/127DI0GD2h/nkw2IvNNifYizjJ8ZEWrOffai3N7lu3kTvsTHn80x7+tHH6JnHHqKVb71Kv3nwZ/SjX9xEV195Ef3gpzfQ/fP/nQK8NtPrr7zAs/VlWspRwaYNa8jDdTNHEW4U5LOdBVwMVVaUSpUQKnYnrA2doGv4f4R08Nse7AIg/t577x3asp5FZLAn3T3/3/j7biamMrrlp9fS7+f/jNxcVtArzz1Oi15aSE8seJzefXexaBMwQVYm6w3WBrJ3Ecmn2lo2bD2VlxRRckIyjQ3voJa6RnrpT8/RdndXiQZSEqKk5RxYQPoIcDgIVzDcq/L7ZsGoNqLp0838AG7r4hGzDMx5gci5LlADwMw3OLkS1gDYHfzF8gAOAPCLRP3Pu/bauT++4yeNWzdttOXnZn0SFRliDw3yJ6wDJMZG8T8nRgZSwkG+vuTCFP7O64voqUceosfuu5dK81PoxOERWuq6kJ59936add659Nv7fkxPvnAP1ZZzhJAZwREBQsAN7M+9KZzFJQRmTHiI7NStqa6UCmGkdGW3z+Fj1NGKzY6llJGaRglxcZTA7iAmOpZDtaVCv3/5aC+9u/E5evbNB2je1ZfRPU//jN7e8hwR2TgUrGVWuJ8WvvAiC9JVzDguzGBsyOwc8f8NHB42WwtC9dX1zArF/F3F1N3TIfmGBx54gPXKMkdvIb1XQJWKq7TwQJdeHVRNqs2mEnoAEOY+QOctYc67icyIwIz5P08DGMkl+14sBn3B5WDHCqC1B+CC795yy/cfeeThXWicwCGfHcu/4cEBpGsB0pOxCogUcKokguL5eZSJeW7eQItfXUg7+prok78eJVefd+j3L/0bPfH2b+k/nrqDfAPX0bF9o1RankXBwd7syzETY2RjaWlhvvTiQx4Bi0g93d2yyPP+8RNS6z82OMz/wD4evbKTp6qihtLSMvm7I2l8pJ3stuPkH7qOFrz9a3rNbQH98fWfU3JOINk+/ZRBdIjCA7ZLlg+sAp8PYyMZhHpAVRPYKhVBYIGykhIRoIX5hVLUsmjRayxqX6dAP09ZGsZegbKiHNEBYAHoAHQWG7FmurlzyFT5ZhyvX3eyDaTOSSP9Gv24DgudowbtYlRFUP8XrghyCEAO+QQAt/3L7Xc8/8KfDkaHhzHdR9mj2NdHhaH9aoQYGsZH+herfxXSAaxEZgy/lrbxrH7nzZcpMdiXSrKS6LWlz9Oz7z1CG1yWUUVBFsfTERTN+gH5gYRY7DHMkMWjhtoa/rwc2WNYIQBgVTuxU7Z4odgTizhYy//g2DGp+ceCUEtLm/QaBGsUc4zeVldGnl4b6Y21z5NPsAvtHu5jP59GsSHBlBGfSKP9Q/SXDz+k//zwz1I3iEJRlIcN9PQyCDqkKBTrAhIKcijaUI9dTE20+N23BACIBqLCAiUnIO1nywtVWritVsJBCQkdxu+QDOFnFnSMhSMzrNOvMzOHMOLJ0szm+oBZQKpZgK/CAIgCZn9BBjBXAC++/vqvf/3FF//UjPAuJMDftmHNahF/oPzURBX3F+TkSP1fRXEpz5hiKkU1MAOiOC+XYsLCyJeVeqiPP8WHcYgYGk2RwaHky+ItOCCIjZ9IaakZlJ3FSrxIlY1VFBdL/F2Qy7RcVU797AJQ8KF3+2I3z+TYuJR2nTh6lI6ya5jcuUu6jBUXlVN8ZCJ/B4u7uEQqz2Jg5hVTUUaOVCg1cJw/MYIumnulUPQja9MIqoVQKTw6NCzLw6gNBANgbcDH24fiYmMYaD20YvkqiW6wMBQW5CsLQ0V56B+gAICkUL+1cRQRAJpJjPTrmT29qsdM5pj0f7JFHj2jdabPFHpmbYGZVbQ+Q6KAyrL8L+wCjH2AMy47a8ZZF99334MbggO86dEHHrXf/8d7KSFa1QGkJyeyD0xT6/+FyN+X8BdhQaeUKvg2snglbEQwRUwkz3aO26MiIigkJICSkxKpMA/lYirFKzl/vJcpF2Aq4NmPbCIWgdC8AQCQbV9HTzjKuffwYwf3HWDjHaVjhxgIhw7T7l17BAhoSBkXHU2pKemUwwo/JxPLt9VS/4/iELDHB9bOIQ0AsAA+FyyA+kC1NFxHzzzzDN17732UGJdAmzZtpFUrlrIQ3CIAgBBE/2N0P5f+AQCA1VcQxscQFrCYYEgKPXSFTzcqdqbtDdCVvtoVOGf8zAUf53UEEzC6TFyvBqIgZO6cuacUBUAEXopDn+748Y/uCgn0O/7Yw4/Sww/db4+NDJVKIL38WygAUDuAKitV5U9tdRXVIKOGzFoVG5j9J4pEkXiBwWut7WFY1dMrfmgajSqiovxcBlWWnAuAzaTYG6AY4Khs+sRM3Tk6Jm5g/+69dGTfITrGIJDNofyaY0ePy3bxibGd0ggKG0vGR9Bqfa+1UURtF/voxPv05/c/EACgTgA1AhoAUh/Q2MT+vYQeZOH3wIMPUGhIKLls2igLQ6gOigpXLkDvGu5oqZUOo7I8zLNfN51WO4e6jfBw+iZQ7dN1FZBeRzALSkyVby4YaeBog58kRSyZwOqygslTDgNnWJ1Arrvu63PDQ8KLly9bTM8+/eSnqAj6DACsLWBS+MHKva62mhpR3FHfKG1XpBG0o9Kn2VH9g1axWOZF+IWMXBmDBNSfn50tB0WgnSwWb3bt3Gnt+z+u9vazCwAT7JtE5yyUfaumEIcPHJYeAXqH8PvH2cAnPqT3T3wgBtd7BbXxcQUoUCQCYGkdIBVC/PuXFBTSE088Sa++spCyOVLYtH49bVi7QpaGYyKDKSc9SRhADqRwtJRrkiH7BayZr6IBVS+gqHoq/pd29JbRNEicowDnnUbm7HdeejZ1BhJBu9htVAkATi0TKM0gzj333CuvvPLqy923eXr7+nrTa6+++mkERwFwAWmJibL2X6ABUM6KuZJnf02V1NSLkVHV06SreqYqfJwBgO6h2EEMPw1NkZ+tGACPCwAmJyUEPMID1T2YqSjo2M+Uj9l/nAEA9yAgOHjEMczt4pjpMDrGXz74UAbAoLeM7dk5KWXifRx1tDFQkRBCUejSJctp8xZX/hsLac2q5bJlPMDXkyOhMGk/X1GSJ00lO9BtHO3kOBTUjSVxNhLcgK4W0g2mhnpaBQR65pu1gOZs1rkB59nvXAvonDMw0s72fTuRCCo6ZQDoZlCz+JHLFsyf/1BaUvzf33gNIZC35Pyx6CMikI2FErDKEiRSLADU17LxmQEaG6kFO21bWgQIJgAamR0aauvFBVRXVyg3wZ8DQOVlq/LyStYSKATdzbP+8MHDsg180trQATG3l8XfcTbyB8fepxPH3xdDY0wHwTG1W/i48vl65uM2Zj/8PwQlGAWbRHo6OqmtvomVc5WEgcuWrpCWd0kJsbR8ybscsm7lUNiPkmIjOAJKFvrHSShwAY6uon2q07gkg2Dk/naHJlDCUC/gdDjqCU1jOm/9MjN+ZqrYWRA6l53pnUGVpfmnBQDZEXT22Wddef11192QHBfXsWn9OruryyabLgLBXgD4a6kCLi5yFH/W19UwCOrY4FMVv2Z9nwJAg5R81dYwAGoqZO8AogdVVZQm1zJmFuQBdvGsxw7gPbv38SzFbp4BGhkcFKMdZlC8f9Sieqb8EwwGzHrNBuI6WBucOHLEsVdQD71dTNM/RCKaQzSy+AMDoLDEzdVVWMjNbTOtW73MqgxCXUAss1SG9A6CAJTTzlrrxfdjoOU8rjDysLFApGL+doe/V2CYiuF1CGhm+swOJM5ZQLOuwLlTCTaHoiq45hT2BjoLwYtYB+CAxFlr16zzSk9NQL7fhoUfXQUEunYAABtALA3Q0FA3rebfvGoAoDADTSOqWShWWQCAWwGwcC1lAGBn0CRrADR+3Dmxy7GZE8aC0Q7uPUAnDh8Xwx+3jK9BoOkfDSPMzaJ6zyDEH9S/3iPQ36W6hqIquKKklGd9omwYQR3jalb/ri7rhf6xVTyT6b+0MFtayqI8HNvEuqxVwX6rwTR0gGYC3UxCDqqydMCIUdWrjajrCk+m8E2j6/vOewdMVmCAKQBgLWD2FysLP7kbmDFj1vxHHr2H3cBHIf7+FBrob0fVj64DRPEH/HdFmdIBNXADDbXTAOBsfOgEoX8YnyMHbCCFoITx1Y7jFAknUc83uWMH7WWa3jE+yf/UfskN9DMwhvpQJDHJs/iQRfmHHbNeDw0AZ+PD74P6YXwUjaI+EAWiOIwK+Yg8pv3q8gphg0A/Xw7/3pOiEIR/SXGRcgZRpZxKViydxTtbVATQBwZwnD/UIUygqoYNl2DN/ClQtDqYwdwfqAGhwaA1gtYBZi2Bs/EdiaCdgygJ+8IVQSYA9L5A9JG9at7cudcG+/ulIC3MOsCGekAkg9BRS1ggT7EAtlTXwg1wKNhYX0ONYAJEA/WNjgpfPfMl8VPK6p8FIE7+yuVZn5aUqIpMU5I5oqiVDt8QgQf3c6i25wCr9D6m2w5Vzcv6AplALBKhX4DuGGI2jjqEqODwUccOYfh87A3YwzMfKWaUj6NgFJVCCP2QL0BWMyszhUrzCig/K5vWr13JEcBqpf4jgiX8AwBwEJZaCayRLqIAgJw40tVoHTbRKgYftPICmu61GBwWyu40NEE7DqiaKuo0ijzNRR/naiBtcHPRSUBkLQdbUcAXAsDJwsGL1DGkZ13x0osvPZ4UH/U3b89tFBUWZk+IjXbsDM63xKADBNhahXX1OnYHlr+H4bG8i7APyR90EC3kUAsiKy05mWd9EiWzuExkdsnJyhABOTo0JhoAMxvUDhcAP42MHUJKFIc2N7dRLwMDLeFVFzHVREpax6KH4H5sDTsw1SDCahMH4w/290utIBgKfr+itFTAnMEhHlLCEaGhtJJDYHdXF2kblxAbLuJP9gZUlcjJpkgAdVlHzWBBCm4Axu232GCwp80yepuckjpkZQpV+ViX5RKsw6nkqJoWh9Gd/b8p+EwAOJeY6TAQeqK64tRrAh0LQzNUUSiOFbny5z/75Q+SkhImfD1c7WGBgTa0V9cl4Tok1JtCqsuVIERUoA2PhA+MjxJwlGahuAM1g9GRURxXRwn9J8XHyWcWFeZyPN4imz6wFIwZDaGHvn7YxYuFIPjtnOw8Kexo5JASjSWwUUQzgnQQ2b2X9jErIBEEf49wD+lkbCJBbSCMj/wEfr8qyUUUcXyfISXrWJfY6rKJGWAFeXu6UniIv2T/CnLT5FBKHGnb2lTFbNQgSSB96phOBmkWcAzJDbRb6l/dH3QkiDotUagLRDslUzi1ADRVdm5mAs1kkBlF6NXAPSoR9OUaRMywkkJXXHHl1RvWb/IO9fOhAB9PW2QYSsOjpu0NFD0AEBQXq+ZQ0ASV1Y5dQdr4+TB+RhYlxMVTUGAQpSQmUhZ/BrRFdHg4ZaWnSmYRiSQUg6CT58jQiHTuQLkWxBq6e+GouciIKBZqRXL+EHYNobUMegpJZ1HdWJp1hKSRx8Yl5w/ah7pva26VZeBK/ky4oXw2fAb/HpkMKjDcujUryHXzegpCu7i4CGa7JBF/dboQhMUfaB8GhfElESQLQkoHaEYwDS4JoV7FApj9YAt9dqGe9eIyBvSef8UM5iqizhWY28bMkjPLLUg9gBSFfkEReDItoEvDwQLXzJkz9+blS5YkBvps/zQ0MMCOlUIYTe8QxhZxaRDBohC7g7HCByBIpo8pX46AZeNjfT01NZ2iomMoNjqWshk8KVJbECXlZcFBgRSOjaiREWrfQEICuwi1qQTxeWNtIwuvVjn9Iye7kLLZjdSwYIM7wFmCut/w2PC41VxqjG+PyMYQCMtua0sYXBOAiUqj/NxsyuAQNJ0FqJe7G61avpQ2rFtFvtu3UViwLyXHowgkhcqKc6QiGOEfagJhYIf/lyhAMYHqKqoSQ916qRhrAmCHvilmGLAiA71gBECM9LVbGsEqIhmY3oDCXFo21xP0nkELFJIHKC/OOW0GmFYfyCyAU6Zm/+D7P/g33+2e+wN9vVEHaMeGEOwRBAh0nwAwATqFybawoqKp839x9i/PssyMTEphACQlJStXwGIy0NeLlr77Dj3y0IO0diXPvC0utGH9ep6Fa2njho0UFBREW1230jNPP82PbxJD9eCcoe5+BhnCz3rZLdTZMdVwUhpMSaexQRroV7NebwfXxsfOJIR6AGFGRgqFBPrT22++JvsB3LZsFN8fExki+wJLCrLgU8X3Y/ZLAoiNDhGohz4NXWsAGHigZyoslGxg35QuGOnXi0WtQv0D1nvULO901BiYew7NMjHn3IBeR0AYuHenLgk7NQCcVAzy3cv5A+bOvuqamzev21iH2j2ODGyRoSFSDQwQQMULCPifiX6BhWgZW4DO4cr4ebI6l8UUn8EgwLkC7C7YLeRkZJD71k30zBML6HvfuZle+dOLtHHtanrt1Vfo5ZdfoUWvLSKXTZtowWML6MZv3Ujz+eqz3Yv/yT0s9A5LEyn0F8J+wamTx9T5Q+oomh6Z9dgKro1fLdm+UouRsllLpMjY7unGAFgkjSFUIaivVQKWIqlfrP7hSFyEfx0tdZIEAu2LCJQZ3yIgcGwY6WoWY+M1aheRAoIOF4eM5WPtCmB4XUmk1gjMrWPTjW3WBujbAAe7GtkcKv0BTtEFmCAw9wjghbNnzZo1b9nixQFB3t7k7+NlQ0EoQIAUsYjCJNUxRM4OQOfwfNU6Ftu+AAAwgNoXWESlTL0oyIR4zEpLFkGJEvPIkGDy99pOLy98iR599FF6c9EiyQ0gLh/s7ZGt4li2PYIuoQeO0kEO+dA7EDMeM1+fPIZj4nrkzEC1fxC5CG18zPwinvk5HMFgexkOlkzh79+6ZTMtfe9t2rxxLfl6u1NkWKDk/bH2X6VPFWtUncM17fdJKVirlQVsUo/JolCb0gSWsXWiSGa/VQk0aIm/oZ5WhwvQJ5sjFBwdnAKDMvjUxlLnGkHnPMAuFQaeFgOYAHCsEJ5zzjlX4aDoBY8+8nqIv68dXbSCfH2kKhi+GyBIjo+VeoFM9qc4MRTnBQMEmGnYLoarOkrGcgv5BXK8axGDBSFlEjNJrOwxiGSB6E8BAT5SV9DbAWGEM/IGaN/kbtUDSBaDjtOJo2othpzvYwAAIABJREFUAOniEY4CsAysD41Emxln40sIyt8r7oi/MzU5jQEQR/FxUbR29Ur2/+9J6BcU4C3iLzczRXYF11QUycqfpn+0iYHxkQXEYpA2PIzc39XCAGlwAAAGH7Bcg7gFWTSaAohyD1bewEoQaUCYADCjAbOK2GwkoTeGIBNYIRtDTp8BpmUGWQdczg9ceffv774nwMfnBDaB+nt72YP8fCksCDuGwmSLGCKDNKhp5PVzsqR7qDa8PkUERSSlxUXW1vECKmSXAf2QyeyRkZosx8q3tzSxAVuZchtlqRZhHAZCOgDgg8PoBvoBfXD8A/rwxEeyMLR31x45EwgCEbSPk8m08RGKIhIpkvxDjojKNDZ+cmIKJSfHUwwDb/XK5bIjyGf7Nin9gvgrkHX/Ain/wkldyPvLARJW2IcBV9BtrQjicdzvtSKAqUhAgaDPAYIWRf+97dbGkg6HXlC7jZQOgEDUyR7ntQBz34HJBhoAVo+g52ecZrdwMycgbgBi8Js3fPNmd1fXFj+maV8vTxt2BbMeoAimbhGFMdjxm0DpHM6pc4NzHaKwXCIDNdBMGp1EEDHgObgKnDWAhhJDQ4M0MTrKM6Cf/ymgtGE6ajV5wDiOBZ4jJ+iDo2z84x/SB0feZ0C8LwtEO8bHHRk+bP9CBhLGRzQC1sHOIGwcTWPxmcJshSqltNQkaQu3Yum75LJhjbSMj40KnRJ/bHzZFdxYLeofsX+PlQPAtaej0ZrdrTKrpT6gS0UF+uQxNcvbHCuGGhgD3a1TTNDbaoWEODJOMcKQlUnUBaRDElK2TIsA9Aqh0UtY8gDWvoDTAoAzC5xvuYGrzzvvvKvfXPSaZ4iPH/l6eNhwygZKw01XkMh6IC2F9UBmmhwiUVSYJ8aW4lGe/dJFBFdr6IZSWEzqZJ+9c3wX7UVb+Ik9tJtjeWT0PjqBmf4BvX/0OFM/0rtoBHlUdQM/wHpg3wE6sHuvVBFBGOpED5JR2vgO0ZeaJptMk3jmpzEI0pLREGq9yvy5uVCgtIpXmT/E/qB/CD8YH1eEdt2W4WG8PokGGh2+XkJC5Aa6VJQwaO0gdmgBK2+gVxAHxG00ORJFw1bqGPfxvBJ9U/WF2gWY28w0E6jFoDbJA0hR6Gm0iz8ZACQncO455+C84CvvvPPfHw73C/irn5c7iyUve6CPD4UE+MkWMXEFVpIIylqzgO4WgiaS6CRSzrcrsJJYphhBMwEWlVqboJgH+I/bQbt27JY0rz7pC9m8IwcPCgscsvr+7JKFnVFpJDliJXukARTTvxZ9OgyV2Z+SagEgibI5JI2JDJWtam+98Rqt4hBws8s66QsQHupP8bFhlJIYLecF53I0oEdedjqHvBmSHcQRslMjjR/LkIHbxcwgcCN52aijTOffI0MGtpoX5av3o7qoME+9tqK0QE4O7Wpv4r91yNGQUnIIljiE8fXpJWaCyEgJ23GtUImgrwQA+uAIJIVmX3nlVTe6bt5QE+jrzv8oL3EDQX5+pKMCnR9ITk6gjHQVFUAP4ArhZfYUyuPHExNZ/UeGUWREGMXFxop/RvhYXVlL9XWNskG0uKCYw8hc2c2DrVwwMrqEIa3bJf6+1Wgq1SaZRKR5Mfvh90H92ZlZskEUAEjlyAIbUTPT0mSz6Yrly8htq4tsT4uOCJU1gdLifKqtLqem+hoGZR11d7Uys7Ty97UyU/Es7umgXh4DfV18befIg2dsL8fzfZ38XLs8Lvd7u+S1OBF0kG8P9nOo1t8lzw8P9sjrRwZxuji7PJwyOtQnh0NOTgxbhm9zCMOp08uU8Qdk/aBjWiaQmUaKQgGAL8MAJgjMcwNnAwTPP/v0OhzF7uvtaUefAIhBaAGwQFRoqAjCxIRYR6sY6ILYmCiKiY6QLeRpfB9sgZ1B3t7oJuLGYZgLublu4XjcQ7aMBwWHyH7/0LAwjggCyBffERhIYaFhsrULUURjQ4PMct1/CAbX6w+OhSdL9WP2S7saHgKCNOwyiqG1q1bKHkVsBMUR86lJsTLDq5n6cRYwDmTE4c69EuqpA6FxVCsOdcbAOb59EHX9HLaxYfHYCHL81nGu+gRxOU0cj/V1qFPArePiR1ErONInt3FSOB6fwKHQvUY+ALrAEpK62ESvHaiEkkodWzWG9smxXp0H+EoA4Dg3WK0Qzph3yy3f/YXPdo9JP5/taA9j0wBARBDJWgAsEAcQ8IyOj0MLl1CeYVvZ124g921utGHtelr8zrv0xuuv08KXXqQFj82nBx96kJ5+6in60wsv0nPPPkvPPPUEPf3MM/Tcc8/RE08+Qffddx89/sQT9PLLL9Nbb79NS5cupW1ubgIIL28fBk0AGzedZ26pqjVk6tfCD7MfAAADaACkc9QRHOBLS959S3oCysJPsB9rmHCheYR/aA+L8E/Sv001Dh2A8E8vBmG0W9oAewX1CqEZJYhY5DFNAyBVjNPIuputY+m0Vmh2rCFMdR9pk6wgGlLomgJzM6oGgRUW2nczA7B++dIA0CCY1jmMo4Frzz333K8vfPE5jxB/L/L38rahVQwAADeAiACzW0AQGUFRUeEsrPxo+ZJl9PJLbLw33qRFr71Gb77xBi1bsoS2uGykQH5feHgEhQSHSh8ht62utM11KwUzo2RmZrKILKOqKuXPoyKjaOP69bL3f9Grr9E7DKRXX3udli9fRbHR8ZJ0KipQ5xfqLKQGAACiAJBCSQlx/DlrRPxt27qJAvw8CeXvGaz+0Ry6oiSfGqpLOQIolz2AMGw7x/+6T2BPuwr/VAKoWUI83FdVws0SBWDruEQDKB0TY7dYKeRGlTq2hKDKErZNW0GUx62FJFk36FULSHoLusx+y//jPY4w0GoRU6E6hHwlANBuQIeDcAPfuOnGb/7Gfevm8QA2WKCvt+QEQgL8lRsID3WAICoynMLDQmRvf2J8vBR/ov4P/h+CEN252ls5HLIaQMK3o7jjkFXcgQ2if/7gL2T72E72v39CHx1/XwTgzrExOfsHXUF7unspIwM+PlPazKjkU77MftA/AABtAQbA1nCIQH92Pyj41KlfLPwkxkbya5Ml/EPlD0q/AYCW+kqZ/RgdzXXMAjWOPQEwNvID2rACgtY6Rz4AzADDY7Z3tdZZUUODw/g6dSxMYIFB0seyLtBu+fsuR+iIx3SUoLOJZnEJWsRgcUh2Bn1FDGCGg5fgzQyCb+DD5j/y0KbgAKZfr+22QAMAEIMIC6MtAMTFYcdOKqvePNkHIAIQi0c5OVISVpSXJz4bSRskcJDJ6+nqlzMEcFufIoKyMN1BvL+nV+oD92GP3+gOWSLGVjNs6tTGx0Doh05kOOU0TULAFNEQq1cuk9nPglZSv9FybGw0q/dUKmGFXonj4pj+YfxGtIVpVYbHTMZaAGZ9R4tVFNLR5GADPdvxGK5TSSL1Gr1oBAPLfb1OYG0s0bNdACAG7XAwgpr9ygWonEKLQweMWhEBf5YwQKXaHPqlAaBB4Ng3wAOLQ1/j8Z3Z11xz54Z1a1sCWAv4+XjZgv1VTiAiOFhAABaIjYrgmR8nPjfHWjHMZxZAm9mUxHjKzEgRNsizmkQhAigrQcVwjXQHwUCLuKbGZukoDrWvD6NGvI8jYFFFjLAPO5C039frD9kZavaD9pH5S+QQFWJzyWLl+9EHCEUfSXERlJWWKLl/bP+uqSyippoyyQCiNRw0AJJBndbM77T8fbdjNFi6oF5qBfVysc4A9lt5AJ1FFBawFpD0YpJ2BxoUurZAaYF2R98BvaZgbkcbsp4HAMAAtapP4FcKAK0DEA7OYRa4ma+333H7j17x9vQ84e+NJg++dlVAGuDIC8RFRkrFTypSxJnqiBnk/nECKaqLAgKg7v3ZbUTwzIyluJh4jhbi+Hac3E5JSpUVxKz0bDEiKBwzHCAAGPRqHwpPwSI67sfMz87MtEK/NOkwAr/v4+VB773zpuT9XbdskIpftL+B+kfsXlqU7Vj8qZPdP5XSHhY6oJPFX3tzrcMdwNBSHNqmwKBnPJhAg6PXcgWSMbQ0AICg3USf5QZ0uhgG77Wyi7Ln0MoCarE3aDGDXjsYlrWGZodG0FXB1ubQrwQAM2YYBaPWG9FA6psMAv7Qs+686847t3u5b/2733YPUokhf4kIIkKDKS4CDBDLAEiWvACOmkc+AKnYaI7//Tj23uLiQqtWrKL3Fi9hhf8WvcUCDyLvbb79Div+JSwW165ZS16entJ7EDMcoZ4+cEKnfQEAqTzKzXWIPgAGpd6Y+QH8e733zlu07L235UAIKH80vEqICZeS70LH7C+W9C+oHxEAXAFmf3OdahIJF4CZLsKwuda6r0Z321SmENduKwLosW7j+R4DFL0WU/QbmUJHxGAZVi8mab8/aBWCDlrLybrSWBWetNr3SkFI7j8EAFoHoEjk6/zB3+frXRdccMF81y2bx/183cnH052jAl/JDYAFYsJZA6DFfJJaI8Bx81gsQg5et3zzkj6CW2kNG3klx+Vo/oixevVqua5n1e/h6aH6+7APh8JHvK9bvklxZ22dLPioIo8sy98nUwILT4AmODCYlr73Lr339htS8uXh6kLYAY28f3pynKX8cyX0g/Gx9IuZr7eAw9AoBxMjw5CtUzNeG15Cvo4mx6w2m0maBh7oaXM8BuoetApHHWXkqBHg21MupMk6razV0gYdjjZ1WE9wihCEAWorir50Isj8mVYryAP5gOv4g2/h6y8uuuiiR7w8PQYRV3u4brb5Mc1CF4QEBFqJIXYDibGUlsZuID1TGjlClGF2xsXEiWHRWxDNHlHw4e3lJXv0fbx9pW9vED8H4ZaWkiF1gOgQAtFnAgCMAPoHO4D2kxMTpfYwJiaK/BmMi157lZ5/9ilJ+S5fupi2bFynjowP8pXwLxkp37R4/t0SJXWLxpA6ZQtmQF4AawOIEEqLcnigBC5THisrxnlJ2TLQPaS8OI+K87PElaCYhGejVVRSJNeK0ly0cJHb2GZWWaqujdVlSmB2tUoiSUcHQ0Y6WEcCo0YI2G+1qLEOsxINYJ0a9g8BgAhBfBB/MD7wpxddeOH9fj7eAxGhQeSyYa3NfasLM8E28mcDhrEeiEENYVwMRwKJAgD4ZwwdoukULQZuQ7TBf2czjeN5vBYCEQ0k0TpON41G+Ag30Ght7EC5Oag/OUGxS5T0FfSibW6uUmTy+qJXacWy96Svkdd2dwoNCeDfK1IaXGdnJDty+sWFufxdeZKbLyspYGNj13Ip+1Uch4e6xwL+PnQ9L6LqCqxnFLNBi+WxGut1uI33VOE9ZehGxvet56sqkOouYtCWSMYR17qacqqtrWQwM5t0tnCIO2AsGOkwsWmqwqh3KlzUW9OtHIKUhas2cV8tA+hQEADAzqF5/ME38vUnF1988T1Bgf79cdFh5Om21bZx7Rraumk9eXt4SCcx6AGsuSfKIlG6o2M4FL/uGo6ULsJAGFQfG4MyLwyUfKku4W3SDEIdMNXtKPWCO8Dn4HNB+7HR0SpD6OEuNB8dFUNvv/kGrVm1gra5bmZG8aH42CgGSwprBhaUVUj51lJbM0I8juOR6+/icLQToqxT5fAlt8+zsreT+vg6NNDNj3XSMPL3g9bgx4b6eSDVO9xHozwm2JCjQ31iUNyeGB2gsRFsceunHWND8jiuGBNjg3wdlNdJWtlRcTwVHUztO5jahCJLzdbWdKwFqDDwq0kEOQNAh4IAwFz+4G/x9UcMgLtDQ4L6MJv8vbbbvN23SYJlC4PAh28H+PpQRFiIaAEYKCcrS3oBoEM41DwUPIyO+H50WB0Nt3Ni6sRwDNT84/DI4cFROWUc5wXgPXgvZj8ABQZBNXFIUBC5b/OgIBZ9+VmpUoG86NWFUvKFNX/v7WqzJw7DxLo/VuRQ9VvJlA2ari4rlO1ftRXFsg9QZwQREmKgOVSTJIgqrDrBGpUcsvYLomKoo1VVD+kaAl1IqqOFXkskdlrRgE4NI8Oocgh1KjdgRQaKDVoc1UQ6SYSrzh/ALfBtq03cl18L+DwAOEJB/uBv4oMvvviS/4gIDelLSYyResEgpl0v/idv2rCaNrOA83J3l1QxwsLkuDiJAlArgLMF62rqHF29scqnDoWaEIMDAPqYWAzU+uM5rPn3yC6hFmEOiEK4Dhz2FOwfQO5bkdcPkXrD/IwMKfh8nQGwfMk77PvXynavqPBgqfrJyUiWVvAS/pUqAGD7V31VqcPw9XItU53BGiqlNwASRMrw1ZIebpPQsFYEIwQkfLnc54HIob25TmJ/5At6rHLyLh0lWNFAX6dKFvXzzDbDRpVWttLH3VNuQXYjW2ygtqF14DPsO2UxqOArF4GfB4DbL7nkkt9Fhof1oX+gv892WzA2kfiykGMKdlm/Vip9vZgJggP8KDYiXCWAOBxEJRBCN5wwDipHokedIj4w7fRw2exhMQAKQFH+jfAPyr+YjQ/NEM9KP9DXj7ZtccUWNlb2KDFLosLsLHJ32yIMgMwfmj34e3tIHUAax/4AQHEe0tK5DjFWZ8167ANowODbyAfUy2PlEh6qsFAliQCCpnqdMKoWACBH0GHNfp097GpTQ+cHumTGqxARr9VlZZJL0KGiZBKnikt1VZHOHJoMYIlE++RonwoD/wcB8NuoyPBebPLw9/a0oUAEvjeA1bwvi0HMOnQX3+7OqjsgQNYIEhJiJRIAdWsNADZQp4u3i6/Xpd5IBWPgNnYB4bxBuA5k/WB8hHmIHjxctzC1h8peBbSzycpMla4jHtuYAV5bKP2JcTB0gI+HbPhENVBBTqq4AKR+Uf6F3T9gAWQCwQRC/QBBjTJ+c51yBc1sbL1OgPCwuUExQqskjabYQdYPBAzKHfS0NwkAOptrHankTqvRRK+RGJJcgCSC2h2lZ3APuoRMh5W6GmnAOsOo39IAVWot4IV/NABu0ACIjozoAwB8vTxsIYF+sqU62M9PauwQEbht3kjrGQTuW7dKBVEESshiWBMkJsmGEYRvRYWFsoYv5wlV1YriR0sZhHw4O6ihrkEKRbA5FK/Hyl5MVBR5eniykbdJtIESdRxxjyLTXOljUMDPuTIDvESrViyhrS7rpedfTESINH3MMxZ/qqEB2OgAQg2HaXWsA5ARhPHV7WK+XSaPNdaqNLG4Bn4ehod7wIChcV9lC9klNFWJLgAoOsEGkjdgo4LyRQvUOxJHfZby73YYvcFKDjU6Usc6a9hr7EvQuQDsCxgf7DKLQlEVfOc/GgC/iYqMYAaI5bBruw2tZSODpaeA7PxBXsCH/fC2LZsIEcKWjRuktTx244Ry6IhWchBq6AiO3AAihaz0TNlBnJ9bKLF/UUGJUdeXKu1ikUTa5upG3l7e0koehSgoT1d7FtHKJp9KWWy6u20VACgGUCVfsQyApPhIyklPpqLcDInVZe8/NAAYgAc6gcDYOCgCorCmokBEIQzeIJqgXNyACEJoAx6t9RoIVYoB4A4sEYhVQ4BB1gss8YeEkgCgvVHcQ6+VJtaZQrV03OJYQ5BCUmQPrRBQPdbs2I/I7DDFAHPmPDfjNMrC/zsAODaLaADMtFwAjpFh328LCw6gKOkBHMAgQFaQXcF2d2ECDhMFBBvWrJJG054e28jLEwDxkloA9PdHQ2hsHg0JCWXDRkoYh57/GGgYjdbv7hzbb9nsQn6sNyLCQyXMxOYSvXW9APWIueo0Myz9QgMgAQQG8PF0lbOAcBBEdnqiZAFLC3OovESBQNiAWQDGxszXrgFMUI9h3cYACMRN1Cu3AP+P6KDFYATtEvS+gi5rwWhqTaFWikKg/nuslcUeq7bArD7utjqS6fBwqK/dsVikw0QWmnaUhlVOAeA+iwF++FUCAA0kruYP/gZffzBz5sy7wADJzADBAT62sBBW/KgM4tkdEQIm8GMQeAsT4DDG7UzJCBFByctxbMyKFRyjr5bUL9LBa9dhrJMU8MZNG2nz5s08XKQQZM2qVfJaHEYV4O8rxo+OipBEExaY0MNYNquyiyhg5igvKZAdyDioYunit4QBvJmNImQFMFJEIBgA2b1yFoJ6H4DoAL7KwhCLP7ABxKEjPOQoQURhXbkFgjLHuoGIQ579AAFYAGwgNQVNSg8obcBuQNLKiAbUaiL0QU/H1EISgKFdQZexG0ltQVMrijoTqIUiA8KGRFBFce7k3Dlznj0JAK77MgBwHCmDD+EPxod979KZM3/FGqAnPSkBxrZhY0UsVgLDg6WtPLqBTweBG0cFruThhnOE1nB49h69+foiennhQnrxxRfo+Reepxeee4Fe4Ovzzz/Pj70opWBvv/kWrV29Rg6NQDMn5T7CJL+QxH4/KxWnmWfxjM6lUuxCKiqVswwrior5u7bSu28tkq1fPgKAAOl/nJkST/nZqAHIkqPhKiUULBQ3gCwd2KCmvEjYAFcAASAAM4iLsIpGGi2hqPIFlmuQKKFqOgs069CxVtrMdVp6ACGhFoXiCrqapoShsRPZUU0kSaGpUNAoNLFhoQht4ubOnfMM2+ePbKdf8fVfeNzE49oZKpU/83QAoI+V0XUB8/h686WXzvxFbExkTw7TaWiAny0mLJji0V84OlL6DKMVPDqOTwMBA8Br21Z2CVvIfQvP8PXrmBGW03uL36a33ljElL2IXl+0iN626v82SD3hNqnihfFxeESkYXwUn+ZATEofY5Sel1AlC0o0fqoqq5Dk05ZNG1TbF2z9Rt+f2Ai1CpijyryhA6osMVhluQLMdgAC4tA0vjCBxQoAgSNkFNegBCIYoMkRKaiNpXK1NpmoCKFGwCA5gTZF+yo/oGa42mswtftI70HUeQNxAVbZGNiAX2tDcQiHrpPz5s19mu1zL9vplxYAbvyqACBC0KoS/tbls2bdkRgX2408QFRooC2GaVkOl4iNlCbTuB1tgGBKGG6TcqxtDACcHLKRaX/16hW0YvlSWrZkmRz1ghmPg6FwTpA36wSc9hUSGMxRRDjFRCO9HCfGz5JuJbmi+itK2PioI8RZwDwAghYcG8ev37h+lTBAuOUCMhgAsgewQC32yGIODxgfOQGAAWxQZV1FD1Qqw9dVTmkBrREw+6fyBQwENn4LG1yYoL7KETYKCJqUJhA90GiFi3K/1soUatdglZe11TtWF/WS8YCRLIIm4Mdsu8b6wQA7582b9yTb5w9sp5/z9QewFY95FgAuOV0A6LqAmfzBWBb+xpVXXvGDlKSEzqT4GAr297bFWbMfp4vgvIH4GMUEqLnX7kCDwNsDwtBVzvpBW9Y1q1eyJlhOK5YuZ0ZYISeD4OBJ0D5mP5R/eAh/Fos+VBynsN/PSE+R3b5FHCWU4YQw5BVwSlhFpdzGKaF5DBAcCL3FBZlAd3EBOPsoMzVBNm8U56mVvXJZvcuTZWEYWwtCXOtl8UYJwmopGlFhoVC/AwQwerncBwjACkgiiRtoVAmjJkkkVSkgWNvNUXCKLKJOJXdp1wA90GpVGnc2OSIF3NeuQe9OtmoJbCgOZf2y49p58x5j+/yO7fRTvmLpHnmbuTPUYt6XAoA+WxC7ha674oorvpeYENuamoQowNMW5O8tsz6ZjZ9kDTABTh3B2QNhQf7TQODFIHDfsoVn+gY5Um7VSnXEHE74UAdFbpPzfqD+cQ4h+gvhzAFQP0rNsuX00Vxl/LIyMTwGQID2Mug+9t67bzKbLJe2b2j+gMMfwADYAo4oAKVgZYgEinPUMm1pgQwcD1MB18BsAFeA+3UWEwg7VCodAOPXlltrBzpCYDA0W7kCSR4hiVRf7qg1bBeXoPQBGKLdaj0HP+9oRIHIgBlANaXm23AHHQ2Ojai63MzYhiYagF3X6LXXXvsQ2+fXbKef8BVL99/gMccCwMVfBgC6k5gsCs2aNetbURHhhekpCXYO+2yBHPYh3Sot5VISHSAAAHD4lAkC1A14e7qTpytHBswCGzasZRZYJcZHlxCcCYhzADH7xe9zvI/MH6p8UGWEDh9SCl5YKD4fhkfLV3T/am1o5PAwgt5h8bd6+Xv8WUoAwv+jEASZQISB2AeIbGApuwFEAmAAx1o9X3VoKIIQICgtsHRAkTCF5Axk/UAZX+mEIhUhCENYEUJDxVShaW2pVWmkgTC1+VT3IES42NGsw0ejDtFcP+hqtkaTZgIwgL2sKLdr9uzZf2D7/JLtdDtfUcIH0Y5qrllfBgCfiQbOO++8eSuWL9+Qm5XO/1w/GwYDwO7HI4NBkZ6cgKNn7DhzKM7SA5Gs4LUo9PdmELi70zbXLdKefT2HgdIiZv0GoX/kB4T6rV1BMH5KsqoxxLYzVAGVWcbnYW+qq7fXVVXbfb087W+89rJ95bLFdpf1q+0ebpvt/j4edvb/9vjoMP694uw5GUn2otx0e3F+Bo9MG4eDNtYANgaAraI4z8ZG59v5cp9nvNxno/MolPtsdFtVaR6PfFtNZbGN/b8MBoWNXYCtsa7cVsf3mQVsDA4bA4Ifr7AxIGwcFdjYNdg4ZLSxO5ArG1tu48pAsDEobGx4vl9nY+PLFX4et0H33dZglyHXNn4vegRFhgXGXHDBBRB//8oAuHWGon9TAF50qgAwh1kjKE0lb//hD/81NCSoIZFDKyy1hgb7Ss0dQj6kiBkEEIX8jw+3xzlEoQ4PpbSctru7kavrZqkR3MIzfyu7BU39IvrY+MgWYkkZaWBsPi3Mz5NagMqycnstGx/+vrayklw2ruPQ8mXJNWAJGNSP498Q/8dFhUrjRxwAheaPhblpPPuzpSQMdF8ps79AZjceU/Rv5QWkU2iRhITIEIIJsFjUUFNipYVVatghBGumZwxbreQQdEEnQkKUmell42YzUVTrWBCSzKCVHFKp36nt6LoXkS4dQxaQtUPvT3/6b49Yxof6R/z/dR4Q7dr/X3CqAHAGgpkavvSiiy666u677/6N93aP7Kjw4AOhQX5HAv28j3t5ur2rCrCTAAAF6klEQVTvttXl/eAA34/yszNkoSYmIsIWExFux96BiJAgqSJGDaEPM4EnRwZYvMHxbjA+soI45hV+HyVeMD6WflEphLP/sCDEALBjcQhFJFkZGX/jMPKjhS+98OHid978YPnSxe+vX7fquOuWTce8PNwOB/n7HIwIDdwfGxW2LyE2ag+Dc1dacvxkRmrCDoys9GQeSROZaUkT2ZkpE9kZyY6Rw/dzMlImcjNTZeRnp/+/7q72p6krjB+6FoXNQTSu4iDSe0toi3OhxbkqW5pNS8uLZIZEzRIjW5ZtJFCz6DbiXJZ9WWWJL7wIYywKTpYI8tIWxBZl29cly6JftE32dfsH/LDoJXt+9z6HXkhJ5suH4U1+ObeX9p6H83veznPvuVc/Fp8aJ4xlYhNXMzOxa5nY5NXMbGKS9ieWjs3GJ/T2enwyk5gep8/Yn6DvTWVuzE5n5maonZmm/VgmScAxCkWEeDo1F0/PzyX0NnUjniYvlF6Yv56+mUzcu5WauffrQvLurdTsHZJl4dyZrm6v19tEnOxk1+8ioGKL7B8FIJTx4f7zH0UBcnkCcyjACYugBG632xkOh+rC4fDhYDD4QSAQaPf7/Z96vdWnmhoaLvT39vyJB0ziAVOkABqu3uHuYdw1hCVk5ykxPH/urB7zYfnyFfCSfNz0gdu+EPcTsbg2R9bP9wXcbz3a+nNZWdkwJT+DDoejV1GUMxUVFdHKysqvXG735x6P5xjhY7fb8z7JecTlch2mv7eoqvqOoqjN1O5XVWeT6nQ2OZ1GmxOqugwKoJj2Vx5T5Gel0YDKUP4THAzF1OpQ1XrVQMjhUPaWlGytzcuzoOJXTeTvEEbcB/lw/ZtN1r+ejfeJFWDpdfN84mKLxaK/dJoEKee1A3BBuwl7CfV2u/3IZyeOT439NHofzxHAApIfBgceDg0MLOINpX0ICX09esyX5OvPDLwyCvIXr42NL5L1a1AAXiDysCva9XtVVVUPnb+TcIIQIXxIOEo4REA23EioI7xFQGUM8XEPy+Y34fX/Gfw5gOO7GMjwydqFDxZPY/4qARk/ij7bxHLyZeyH9VsfiXnTlksJ5L2CUAJkmIg1uOgA7YMLQhFi13MWS4DafVarNbRnt/+Tb6Pf/EJK8A8u4iAc4AXU/f292nf9FzSa7mlD3w9pRL5GUz6NFECTL4DGMvCbqfkHly5evF0XDA7QP3yczttBitdGg/Ae7b9LaCHAFYJ0XA2r5YGrIVSzTLASzI+3m1C1hgCi3TzGMDaUepHslQsj48ecH7UakL9BZMm3MW+PvZmVwFwbkJ5Af86wMOacpSwQEpFXiCAfV6beIMLervH5Iu1tbdODfX1//zhyaRHrCC8PD+svlcRcH5aPZwyyy39weWTkr0hHR7LGV3M6z2KBlbfS+QBUvQ4QGgj7hGHlIByXQXfwgGGQYBmoiDlYLoltaxRI7soYMDrEehggiEedBgYpLR/hWpIv87rH2labFcirhYXcKTrfxAJtZYFBgIesFnFKd2PU1qqK0tLcvP/LY5H20ZOdnZTMnP2jt7v7zulo9LdTJ79IRto7rlA+8XVpaelHwnDrqHIdpPNI0hFi3hSGiwTpsGw391fOA/Uyy4FBgnXYGS+tUWw2AYTD6EA6LP5F5gBcwDCl27cyX0+kAEKsrgTyMbPotEBkFWEjC4qBX/IKROB28gRIXHYSXqN9vy3fFtiypaSRkrnmouJiuPEQKUmIWhQ26uk7DfS7oFju2uHW4cJh5bBwEA6y7dzvJtPgFLNMRTxQzwI2MJ5nFDAH60SWfFnHeSoKIERuJZCzAxt3vI6FKWQBMfhSGWCJUAa44wooA89bYcGI1fAQfngIXNGivyN0gGwoC5RGunaEF8Q+M+lmF4h+X+CBKTS1hSbZ1ioKRJZsiXyRjfVmq5fESzyVbTUlkN7AJrKhQYYHmSdAGWSIgDIgjiFMqFh1hCXoBLhxmewAMtmBlZfzb1aSLt2fJHq9qX+J/GcIthWQpMv8LBf5ef8Cg+GoEwAPJ/0AAAAASUVORK5CYII=" parent="1" vertex="1">
                    <mxGeometry x="28" y="270" width="54" height="54" as="geometry"/>
                </mxCell>
                <mxCell id="49" value="" style="group" parent="1" vertex="1" connectable="0">
                    <mxGeometry x="22" y="446.5" width="60" height="72" as="geometry"/>
                </mxCell>
                <mxCell id="47" value="" style="shape=image;verticalLabelPosition=bottom;verticalAlign=top;imageAspect=0;aspect=fixed;image=data:image/png,iVBORw0KGgoAAAANSUhEUgAAAIAAAACACAYAAADDPmHLAAAACXBIWXMAAAsTAAALEwEAmpwYAAAgAElEQVR4nO29d3xU17k17Lz33ve733e/ix2XOE4cp9hxSOy42xhXjG2w6VWARBdNCCGKKAJE7wjRewcBogoJgXrvvfdRl0a9CwQYM+969tn7aM/RjCTHdpzkvn88v5k5bc7Za+31lL3POY99MXLaY/9KVtt+72dHL19+1m7NmqEzli7dYL1kySmY93QHh/SZy5blzXZ0rLJ1cqq3X7euxWHT5vZFGzbenb9mbaPtKqeqWcuXF2O7HOwXvPXIUdvFGzc6LFi/fs7y7dv73ggK/q+f+tp+DPvJT+D72ABLy//4auLEgRY2NnsA3O15q1dnLN2ypdZh8+b7AM+weNMm1QC2akvINnc27Pvgip/f/qCExI2XfHyPO27f0bxix466bUeOxrqcPBXlfPy4z9o9ew/OWLbs4Ng5cybh/3vD/v2nbof/UQRAg/+3pZ3d4qmLFgfPWbGyaOH6Dc0LN2wwoCcbFpNJwBPYy7ZuvbPt8OGYfedcPQ9duHjtsJvbFZeTJ8PP3PA4ecnH54BnSOj2wISENXE5uUuCk5LWnvO86aqrrpkLJZlW2dpmDSLsX7tnT56DRCb6D/y+D3Uog6pkTJxvfwUktMC5/dtP3T7/kgSYs3Llf8xZsWLdPKfVWQvXr78DM8igL9+2rUEAvmTzlgerd+0uRW+N2HPmbJh7UPBe76jorflV1TYAdSoZALZxDwraJ36TeYSE7PaLid0sfudU6G3DUlKdbkdEbrsVHuF8+sYN100HD6YvxfEVJekgAz+Pb3BeRXarV9+EC/nqp26zfwkCQGp/hR52GY1bhsZ9aAQ87+kOoqdv29Z61sPjeFhyygqAH7rzxInwtKJie4A5pbC2bjaB6xkausszNMyFjAhw5NJlb+zjduD8hdDrgUH7vQC0sODEpLVpxcX2IMuciuYWazoOma6qevaxK1cugHRt5DZUMmzcqJIBqvQQ5102wtr6+ufjxv3up27HfzoCQE6HI3ALQyDXvmAdQDcJ/GbD8q3bmrnvhm0lJbi3+eDB1H3nzt0GCRKPXrp83T0waO+tiMjtZz08Lx44fz7slLv7Vbfb3if3njkTf/DChWDn4yfyrvoHHLzq53/42OUrXq5eXmf9Y+M2gjCbfKNjNgfExW9IzM9fBBJMBwEmC4tMz3DcdOBAxhL8N4shtKqwceO3cD+NNitW3hkze3bqF+PHv/NTt+s/PAFmL19uMdtxRcL8NWse2q9dZ1iwbh0DfxGBLwHvuGNHgxHwW7d9Cz9d4ebtc3S/q6vP+n37SrYfPZYIv+9/LSDwAAA+FJ6atrL6zt3JkPTtIMX+gpramdcCALy//+EbwcF704tL7ADspGRdwYJbERHbiQRZZeW2ZY1N0xEfOBAZvMLDnW+Ghe+Ekrh4hITuJgVZvWtXFZ3DUk4E2T2w816/ga7hEQhSBVd2c5zN3Ld/6nb+hyPA4o2bPkVvz7dfuxbAr2XAL6Bev34Da0Ql6ELDooGXb9t+BwDn7zxxMhw92HPXyVNB6OkXAd7E0+7up3efPhMKib6FtG13WEqKIy0nox57Bb08o6R0Hv2+Hhi4H716akhi0mq4CjsCPDA+fr3Yniy1sGh+bHb2EvrUt7ROEcuxve2Jq1dd8yurZiPlvA7loWDTYJIIzC2w63i449ixuMMX3W45uexym7tq1R9/6nb/yQkw0NLyt9MXLw60W73mIXq9wVSvd1CDu44ev2zrtkfU6I7bthsct283IFUzrHZxaV3p7Pxw16nTIXvOnAlFT99YVFc/HcHcHFIAkGElwLMiC4xPWBufk7uYvkMVJnqFhTvTdwBtBzXYU9rQOE1sKwxqYBOfm7coWaezp3027t9fuP3YsViQsZzOgc7FHBGYGnAirNu9JzsoPsGJYhSblSvPW9nZPf8/jgCW8+b9bPh060Pw8+0A3zAfvZ7Ah0y2rNm9JxMN1y73empMNOzDrYcPx8GPX0c6d2X3qdNB6E030ePDALxhFWzDvv3lWw4dynXa6QJC7PoWProcef0hAKYCmV1eMed2ZOQ2GVxBALKqtjsTbyJIjM3KdtCSgKywptYaquF0MyxsB1zBVmy7PSlfN/96QOD2Vc4722QiLAMRKEZw2CyrwUYiRivc1Y6ghITVOE8ftMP4/zEEGDVj5mCLOTb5kEDDfA4+gK93OXEyEoHYkfCU1BV5+kprgBdPPWgZ6/FbDfDxxev27i0SPR6gPwIIGyGrCU4uLo9gBkirAT7ZsIZs925mUIMIAGcpDNH+Afk3GYBYg+jeWl4Wnprq6K0QxdKcBSUkrkH6uAdgnnbz9t5LsQedW2dF0KgBZQpQA6SVoXAncw5euHgN8c9JpJC//JcmwPDp049NWbiofd7q1Sr4a3fvybp42/tEcELiajTqBDKoQA4ar3XL4cMxkHTvTfsPZK/aubOVA08gt6L3bRLbw5eTjG9ETHAL26eCPHXr9uwxkO0+fTpGbEc5fX5VlbX4LfYtrqufSuugFBPkdSDFdMQS++BGZsrLtXbJ2+fUlkOH83GOOL+d7BxXaEigqgGPDYRLwO/Wi7dv7wCB80fPmtXaf8yYk28NGPB3Kyj9Xf6k/9ixfx41Y0bOnBUrDBL4j3afOuWBBhzviYiaPksaGiehNy4BIXZml5dbx+fm2m8+eCjbcTuAZ+DvNGw7ejQJkToVdcYLO3ThghcU4tFaAn3vXsP6vfseojcaNu4/cAeNe4oi/yu+fscv+/ie8omK3oKevZWW3Q6P2O4TGbUVyzaf9/K6RL9vhUfsEEa/ydC7zyJ1PEfb0f60DxHmgtetU2c9PM5euHXrDAWgq5kKucAdKSRYydRAUYTlnAQdatBBAgp44bZ0cBEt0x0cDF9ZWiYgPvrzvwQBAP6ckTNm3LVd5WSY5+RkIJ+PSP/RmRs3dgG8cZBAm+iMTIfM0jJrROjWkP+pkO5SAFm67fCRZLXXu+y6g8j7XEJunr0vgGAAIV1Dw19et4dAhwH09fv2UywA8BWDGnwLN5AMgM/T/5kzOqa5dVCGcWdueLgdu3z51r6zZ6O2HTlSQuSi/6T/JuKt3b37Ebme1eSGiAhQg1WqGnASMDXYZkSCxRIJ7BEAUzCM4NCAdmsaPHnyjH9qAnwycuTpEdbWj2zh721V8Nc9PO3OwLcob2qecOLqtbPOJ07cRkPp47Jz5gPEQuZDea+HrD5yOXky7rp/wAECPDojw6GsqcmqsrVt/DkPzxMAuX0DgN/AAD9g2ER24AD5V2ZQEGYHz58nV2BhzpLzdfPisrMXmluPzGHF0UuXfE5dv341paBgDq7hPP0n/bcgwjqFCIhBdrNYhKkBI4KzYQVXgx6TYMVKQ78xY+5DCVz+6QgwY8mS//x01KjgMbNmVUO2Uxj4uChcdJV7YNDahLy8WcevXD2AxqhTRuK2GA64uvoggs/jQd63aLhv0ID34YM3AICxsvlGx6zcdvhwmRHwAH0zAxx26JABPpkZMgdmINpN7XE6H5epQJfbpBeXzE7My5932cdnP/7zEf13BxH2MRdERGBB6C5FDVbtVIiwcgcnghEJthiTYJ0gwVpGgs/GjDF8Nnr07bcHDvxRRh1/8ANaOzj8F5ibMMp6xgM0RCLA/wbR7SP07FA0TuryrdtKERTVLN64ScntN295hJw4ce+ZM34EPuQ73/n4iVA0aJlnaNhaNPoYMsjw2JCk5EUHXM/7Y5tHTOKppx8wBn0rBx0yrdjRo4adx483wo8fF8cyZ1Tto0+4GdtDFy9GRWVkLDC1XUFN7SS4q5nOx47p6b/pHOhcNnIiCBIgwGVEYGqgJQGLC0AEcyRAgMxIAHfw2dixho9Hjsx4f8iQ/+8fmgCzly37b/T8+DGzZjfNXbnqkfD7uJj7C9ete0AXplT2lEGc5du2373q77/VOzJqMwIp57M3PPYDaGrk0bIhCp8M/3tZCeyMgd9CwLNeDrAPd4C+/egxA1xHLaT6FiL9cdpjmjL/mNiNocnJSxEvuCLYW1fVdqfTuQiLy8mxPXDONY79/6FDBpUI+5UYZD13DWslNXDiscFK4RJ4lqBVAiqEUVtRlmTH3MEKcgeGT0eOLBw+bdrP/yEJMGXhwl4fjRgRD5/PpGsu8/ur2QXM5+VdKu3ysXS66Efo9Zfh92fCt+8oqqun3HqUbP6xcUsAqo5H9Pd5UMd8uhHwAH07GYDfcewY7Lhh16lTdYj6TyTrdDba45IheLyNXp4BYsWAIOTnR6UWFs6OzcpeYGr7kKSkpSDnaHkZjn+QSEeKw84H58ViD1UN9hvkQFEhwS5Ogp0aEmxVYoKNggQbWJuRCkBBDXMcHZk76DdqlH7cnDnP/UMRYMLcuY9/MGxY4tCpUymQ0QkCzAMBRIlXlHcJfBo5I9YDwPCS+oax6GmjboaG7kU+Tj11BILDMUfcLl1av2fvQ/KrJKvaXk9Sv42knvV2AH/0GAPf+TgDvzG5oGCGd0QEVfhGmDJkBu17Tp+5d9XP/5C83C86ZqN2W/j82TjmnZjMLFt5OUh0Ff/9iKnOYcX9bO6kBjw24AGiHBySErA0USoYsWKRTACuAtSWs0GCT0aNMvQbPbre0tb2D/8QBEDO+sSHw4ZlI+I3zFq+nMkV5J+nfKsNYnBnoTSoQxe6+9Spa+hR1JDDyeg78uvtoUnJDujVeet4WrdxnyL5mw90yL2QetHjndHjCXgcswGgeBfU1IzPKi2bimOtEMfXGvJ3r6CExOX+sbFO8nJyA9ptz3h43AABDEn5uhliGbKKDJcTJ+/Sf9M50LnQOZEi0TlukWMD7hLUuEANDpWYwHHHDrVgJGcGCzcoJKA2pPoJBdOT7BcYEAsQCRoHjh//5E9KgEl2dv/PxyNG6N756ivDjKVLS0mmKGihtI8VfIx6vyL9SyD9Ry5dOoxGHKa1zNIyK/SgMpHTd0T3iuQrwd3RDuAB+s7jJwwIIg37XV11EalpCxPz8kjyh/lGRW0z9R/CQLjhppYHxMat165DfHIRimHIKa+wEsuOX7kSihiD/TedA53LdiMiHJZiA8UlKCSQ3QGPCXYolcMOEijxgDK5ZD1rQ2pLalNSVlJaIsHnFhYl7wwc+B8/GQEGT5oUSeDTCUGm6o16P4FPPZ8Hfg4b2SAIyfMVNOBQU4aGyyLwN8jgc7nfKno8l3pqePRAKvU2HQMYBdU1FpFp6YvzK6ss4VJG+CsRvcn/6crSi4unxWZmzZeXeYaE7Nx39pwhtbBoqliGjGQx/puuh4JNdi5EAhaD4BzJNSkkOGxEgg1GJNitVg5XMHewnWY2qTUCbVZAdRRq29mOKwyfjh7NSDBg/PiIn4QA421sXMC+R+STZi5bxk5qLu/9kK46pGunEA88ElE/XRDy4ZLShsaRaMAhWkO+v0oFH40FsGsRjR9GT157IzDo4FU/vxOeIaFbb0VErPYIDtl0PTBoR0Ra2jz01qHiGCEJiU70OzQpaSUIMc7U//TEAuPiNsi/43NyZx9wdTUgS/FL1hVMF8vPeXi67wEJ4HoMu04qRCBiCiLIaqCNC8jFrTWqFezkpWOlbMxIIGUFokBEbpXaeNKCBQbEXYb3Bw+mDuj8dyXAjMUOg98bNOj+e19/bZg4354FJ6z3r1J6PwKXb9AgnpCxNtXvb916/2ZYOFXaBpsyROSX0EtaDl+86H4jKGhnEgIv7TbUMwNj4zYFxcevB9hr0gqLpsvrQ5QBpcEByuROk//TEwuKi9+gXUaTRhE3BCJryD/i5lYBK0EcULPv7FkDshlSIhBBUQThFjpIwNWAZwnGJNij1gnUsjG5Aho3EPGAqBKqAaGT4gqmTTN8MHSooc/gwQ/Gzp498u9CgLkrVjyNAKTtXYA/dMpUwyz0fkhTpdL7nainl1/29tkREBc3C8FQNC7gEfX+o5cu70VDDjJn6M0zC2trRxKokalpS7vaNiAufglkfmhCTu5cgL6WyEDmGRzsGhyfsI4ALKqtG93VMYRBMQbjvxcm6XTWYhmOsRbHHyJ+I1MZlZyvmxmekrIcirTj1LXr6QCfqpeG/efIzhn2gggUJ+yR3IKqBuQSpLhAIcGBjpiAsgMXJSZgmQEPCpdSPMCzgkWatHAu2no2gm5KDfuCBMAkcfqiRd95AOlv8fuZ78LvfzF+/M1LPj7zIVWRufrKkWDzDaQqj26GhFL1bhBSuaGHLly8DIYnuQcGOfQEDKSBowDexq628YmKWrH3zFnDmRs3vG+GhW3GPiMk4NZDIbYk5ubNiUpLcwhNTHIybYlO1wMC3c7fvJl88tq11hNXrxrIznl45N0OD9/vGxm1xzs84pBCrIS1ESmpy674+V2iEcBjl6/UHb7oZoBSGQ5duGBQiHCeglCDogYKEYRbkF2CmiVQcGjCHShK0DGcLOIBRQWMA0KqsVCnmwQF/nD48JYxM2fuWrx+vdPqHTv+949GAPj9k/A5+gGWliS978C+JguMT5gGFbiPE9UHJyZOO+fp6YRotnrFDuequOwcK7FdV4ae+DXA29bddsevXo2kHke9jxqfZuSIdQB2LWxdV/vnVVaNRWyRdur6dYMZe3jJ2zvgVlj4Edo+NivbBtKfCUtB5G+ACyA1g10ywA0wIhy8cNEgFGEfzm3fWUECEy5BuINDHe5ApIisbMzjAVEuVlNDKS2k2gDVBSgWoJrLQEtLGj3cN3Xhwi3OR45Y/SgE2Lh3b5/Zy5Z5hiWnPImGeRo2EPYVWXhyyko02iaXk6cO+0bHzISsBVHgt+vkSQ+xTXcG4NYjQBzW3Xa+UdErAVIELMbttrebvqV1sFjnExF5LEVXMMPcvojiJ6PXF55xdycFMW20DnYadsHrVhKudwkInQelMJzkSqEQQSGDQgJBhAtMDQ5wNdhDaiBcgsgSjipxgUoCkSLysrEoFIl4QC0VawJCygioLkAqYGVnZ0A6TkFhrcXs2aFHL1z43Q9KgINnz/7boXPnbkEKf4mG7AV7lRNgYHhyMgVj08RvMshZBCLZpsS8/PHycnMWk5G5KLOkdGJPtu3KAmJi9ne5Pi5uI2T+G5gBoJo2Wgc7S8YIcYM+7xIhTpNCEBFgzG1IinAEimDsFogEPDbgmQLFBc5cCYyzgwPqsLIYPFKLRFwFREC4SKiAVBegAPzzceMMHw0fTkFh+6Z9+w7+oAQ4fvHi9HPXr4/k4D8B6w8bkJCdY5tRVEw3SgyQDcy+cdHL66h2uSlLLSicnohgrifbdme+ERGu5taFJicvd73pdR8KYIALMG+0/ubNRx5BwZ7hKalLFFJ4MkIIhVCIcF0lQodrUNzCoYsdLoEFiCw4PGOkBCJFFMWijhqB4grU+sAOSQU2b+5QAZ4RUOBNxTeLOXMMVI1FPGDoO2TIg1HW1vt/EAKcuXr1v0+4uYVx8Ml+B/syt7xiXCx6Ln3XGvz5gMjU1FWm1smGXH1UdFr68u62687KmpoG5esrx/pFRZ01td4/NnY75Pybi7duGVS7fdtwydunBkHlIfqumrrN7fsXGCEUcwUxhEIIZSBVoLjh5NVrhuOcCEaxwXm4BBBBzRLIHZwUStARGFKxSHYF6/YYp4YdscAW41hASglnLl3KikPcFRg+GDKkHYHhb743Ac5eu2YHEhyVCPAmUqQBEckpdBPFF+YMBFjT1XoyuI+N3W3TE0srLp4Qk56xTPufmaVl4xHtR7gBWDcGuLdiPj7MPIKDwxDd68VvZmIbmBsjhGIXQAqhEK5CFVRFcDecBBGM1IDHBodYXNCRKu7mSiCyA6EEm3k8YOQKkBqK2URixFDMJVwoBookN/D1xIlssIhcAaWGY2bMiPleBHB1d3/B9fp1t8u3bo3m4D8O6xeZkrq2ormFAqvPzRm2WdfV+tjMTIeC6uqRXW3zXQwEcIxOS1slfkelZ9gD0Cb0csNlMoB7xdeX2VVf34eIB/YCfEMn49uQXWaEUMwNhBAKQcogKwK5Bq0aKAEi1IDHBaoSnDnLikYuPEUUxSIRDwhXIErF6qihNFik1AWMg0HKBsbZ2FA9QHEFUAGQ4Fu7Vas++5sJcOzChZWXbnotueHn9yUnwG/gr+dnl5bR2H3/rgxgrDG3rqyx6evY9IwV3R2jpwaX8wVcyQrk+FvFsuuBgUmXGZB+ABwGcK/5+zPzjYpyzausHHU9IMAg7Jowf/9HbDs/ZR/al5EBJhTCTaMIaozASOCuxAY8UzjKgsMOJdjHYwJKEbVBoZwViNqAGDoWg0WiLtARDK5V3MDKVQaaUYx00PApqQC5AqjA6BkzCv4mAly5deuvl728LoTEx7943ceHAr1eKfn5/RH40YSJz7oz9MjVXa0DaJ/35DjmLL24xMIjOMQVMu4GAGMRT4yAqtC9gJ9V4dgA795VDvh1/wCDewC3wECDd2TkbQSFW28EBRlkc4fdDAnNuRkamu4uyOHPSMHIwJTBp0MRyEUgtmBEcJXV4LoSIMpKoMYEaoqoFIt2SkGhogIKCcQcgjWiOCQyAj5xhApDrDy8hg8Vww3QtPsBEyaw6qAICN8fMuTRgjVrpn9nArj7+Ey97u1NNfVeHv7+Vuj1T4clJlID9+uJIUBcZWp5TlnZhFRdwcyeHsecARQ/kmKS5dth4e60LD4za7lYf93f/+F1DviNwCCDB8AFWVTzCg2rwH7ZALvFMyTEgM9mfH6jbhOk7EP70jEUMpAy+DNXQYpwmZHAu8MteN40nPVUYoPTRkrAYwJeMKLy8b6zHTUC4QqMAsJ9HSqwmmcEYh6hmDkkKoN2fK4AxQHDp01XVEAEhFCBr6yscr8TAZD29UWvt7oVHExl1l63goLG3AwImKFvaf0Ev7s1BImfxWcxMDqti1OI0aPjmDOox6fojYkXeWDnFRbmS8sTsrKXiG18o6Iv3QoPjwpJTHTxDA55eJNAVoB+FBAbey2zuGRSeHKKC/a9BzMIw3rF+PbY9xGIUcMUghPhGlRBKMJlER/IsQFzBzd4TECB4VW1aKR1BbuEKzh2vFMssF4qEYtgUMwcEkPFHengKjUdpJqARgUME2xsBveYAAB8FGx+ZUsrBX29vENCLfzCw2mC5Mc9sdKGxgHJeXnztctT83U2BVXVw3t6HK0hsLNG43sB+HrywwQ+9cTQhIRzidk5SyOTk0+ABCtgjiCgI4B2946ISAOw394CuGR+0dHxcVnZS3PKyy2QAhYFxMSG3Y6IMAgDaRTj20MpGCFIJUgZjIngz2IMFh8wEtyW3IEncwdEghPkDliKyEkAVyDGDlhWQANHIhY43BELdASDu9ThYtNxAA8EQQAanf1y/HhTKuDZIwKExMT+v/7h4cN8Q0NpdKxXSV39z33DwiYERkaR7/+oJ1ZYXTMkXVcwS14G9fgsKSd3SU/2Rw//JL9CPzolL98uCcCSJQBQ+NsWIfto9AY0/jfUE2Mzs6iQ9BGO7yCOkazTTaMefTs8/B6AzvaOiDT4wGIyMtfk6StHFtfVf4Xl3/pGR9fh06BaZCQz2p5MkIIphJYIAYEKCUgNeIB4kcUFnZWAUsRjRAKpULRfDQh5bcBERrCOp4RqTWAbrwls2szTwfXq2ACVha0dlrA44HMLiw4VoLrAsGHts5Yu7TSjuBMB/MLCBoUnJLwdEhtLDdkrIDLSIqu45NlUne4d9GB6isaH3Vm+Xj8K+0yWlyXn5i6pam371NT2UIVhAHtRSm7eYmG0f3lj0+diGwRoFynyJp+Lho9AJL8fPrmVeqJfTMwx2gb7OYjtEeTtQ++ngI8BC6Dvx2RmUvBJavJhbHb2Kv+YGEMni46BSpBFU7bA9vVmhOggAlMERoJgRQ1YkOjfoQSCBBQT8Ozg5LXrSjxwSeMKWCxgWgXUlNCUG9i8Ra0KyvUAmpxDg0OqCvCMgOoCI62tV3RLgKDo6DGwyXkVFc+k6Qp+FRwTQ1OmKQX8LRrYsbK1jXzsB11Zbln5hLwK/VjxmwDOLC6eLn7r0AMB+BLYUvrMKi6eBmA+6uqYaGw3j5CQSwB7K0DZR2kagU9BGnp5HG1DxyqsrR2YlJ8/E0CmEoB+UdEGuAJ9fE7O8tSCwllR6ekH8X1VcEJCYVBcvEG2QGZxhgCy2FhGCCICHcOXE4EpAncNqhrgHJhL4HHBJR4TCHdw9oaH4RSRQKoWUmp4UKoSyirAppMxN3BQnUJm5Ab4XUVi4qi9RACanPO1lZWqAlQX+BgqQNXBz0aPTu+SAIddXV+JSkrqGxIdTXLfKzQmxrqiqfkJToDfE/hp+fkOAIt6WV9zll1SMpncgPidlJW9IzUvf3lqXp4jfWL9lO6O0ZVBfjNZSscje4BRT8vDkpIuAqSHvkqPZwASkIGxcQTst0Hx8QYAzwzBoUmjdUFk8QoZaF86BojHjukbyYkg1CAklJ2DogQ8OOTugNUKeMHo7A3JFcgBIUggqwCrC5gIBsUk0pX8XgKjOEBkAquUTGDwpElMBb4QwaCoDiIYXLphw1CzBHDcsoWmSPcKi4tbmZSd/cfIxMQhtR0l4JeokWvutvfNKy+f0BVA6NEzoQJWaTrdsqSsrKOZhUVzAfgHfyvgwjJKSoehscPR2x6RD0aEzuQYvjofwJ0CMI+MgAeAAnQCNzQxyRCapFhYcrJJE+tpW5UQOAZThRhOBKEG4RGcBIoSECGv85oBqyLevq2SgFwBqxbygPCYkQq4qrGAcUp4iM2PXC+mjrl0jA2IG0lEICimihEBaJIugj6TweB4GxsfkwQIj4v72baDBx0Kq6ufjkxIcIpOTraQwCd7Efa+MPTwofrmlk/lZUj/PswqKrJLyck5hF5Ouf776TrdKnmb72v4j74I4gaGJiWvjUxJOQyJ9idZJl9NvpvA7wQ8Bzw8JcUQkZKqWKoZ4+tpW0EIRoR4TgTJNfioLiGcEVFRgiClcMRLySIeUFWAuwKqEgoV6G8wqjkAACAASURBVMgIpJRQqgmIUcLVUlVQLQtTQUiqCFJJeNi0aWxcQHUDUjD48fDhzYR1JwJEJyV9mKEr+H1yVvYbsSkpE+NSU0dpCECjgH1kyy0rm1pQWTWyuKZ2UGZBoWNmYeFSBG6f5ZeXWxXBBRRWVY/ILS2brt3v+xjkPgo9L5ik93ZY+AMKzkiWCRCl18czoATwyPUV4AFuZFqaATGAIZosI8Ok0Xoy2pb2kYkQLLkGf/yXLyNBFCOBkTtQU0QpHuAlYxEQdsQCSkZAdQExWrhTrgweUO4+FiOECgGUdFCMC6g3j/AJIqQAg2Q3ABWQ3cAaZ+chnQgQn5o6Ekx8LjEjY0h8Wpp9QWXlsxoCPA97T7aSurqv0vPzD6Xl5Z2ubGn9SCwH+MN0er1lVmGRo3af72sIwOJJcikQI/CpF3aAH8dAYj0+KVkFXgFdARiZANJGWFaWIU5jtIzWxRAZaHsig0wEHFO4hUAeKMpKINwBuScKCllmABVw465ADQh5gUjEAlQi3q8WhiQ3wEvDLB3cI9JB43qAnAlQKkguYBgIMHjy5E5uQIwPTJg7d0snAiRlZrIRv6TMLCt8n6QBn+xXsHfJqtra+uYUlyyBAtiov0tL7dHb5yJGeA8q0C+npHRxbmmprdjnh7LEvPwJPL83Bl/0+kRF7hnwaUpvJkAJ2LjsbEM8sxwDMgFDgsZoGVuHbeI4GYQqCEVgapCY1EGCGIUEamDIXcENyRXQIJKiAl5SWohYgJWIL6kpYads4MhRNR1cLw0OKQTYzgmglITFPQN0d9ZwuIAhIICRG+jIBh4iMPQ1IkCBXv+/0nJzmeSnZGc7ZhUUvmaCAKQI7+gq9NYAdgl6PEXx78iGmODjvNIyB115xazMgoKbNXfuvhuZlj5Iu933sYrmlvfR0A8Z+FFKwMfAT+CSj54amZrGem60AD5LAZ5ATszNNSTl5RmQKhqSNcaWw2gbRghGhGyVCKpbSDZWAn8WGCokuMXrBMIV0ICUogLealrIKoRsnOCq6gbUbOAMzwZ4aVitCsqB4A5leFhkAuoMIRBg5rLlhhHTpxuGTpliGAQCGGUDSmn4Eb7HTHdw+HeVAOm5ua/kFhe/QkBn5ObONAF+r5zi4tfzy8qWldbV0+zat7uysvqGAdmFRdcKKirmIGjr0932pqy0obEv/Pli+PDZ+pbW9+R1PhGR9RSJi4BPyL4s+TFc5hnwHHQFaJ0hRQcrKDCkaoyW0TrahrZNxD5EBFKO2MwspiR0bJkEIiag7AApYy6IkEwKRRnKDZ4VUKVQxAJUITzL5w+wlPDSZcNhNzejyiDFAWKEkG40VQNBdWBIS4ANPAZYbZjm4GCgW/SH8TjgK21RCHHAwAkTdsHN/1ElQGZ+vpru4ftmLfhZBQUjcoqKKOL/K+yt7qyoqnoiVGApFOEjqIsd8v+V+JwL1figJ/uTwaduuuzjy3oQGrLKPyb2QGph0TC6/496Gm9wBoAI9lTwMzKZhLMez3p1PgOWQE4rLDSkFxUZMoqLOxuW0zraBqYDEe7SvqQI+O4GF5FAxzZFAnJDYUlJIXCBb0ORjkAFvqXRxOuBgWpaSBmBqAucZtnANeOaAJ8wwuIAKRAUBSFxF9EqMU2MCLBxU8egEBRgsr29YeSMGSwTMBcH4PfyLJ3uI5UAuUVFjAAF5eWv5CKSl8HHuomFev0f+e8/wd7szoqrqmyKKqvs5GVVrW3vY/nsIn3lAlqnb2r+tKtjIKf2oChaqfYFsqqbCPxEri/8PhpeAj9DBR+9/k6KriC6A3gF6MySEkMWWWmpIZsbfadlmYo1QIG+zK2oWADiPOLuoQbHvEuqwuICuANSHJYd4Bx4BbGpsrWNXNWbiFUskLHk0LlTLEBlYnIDFyQ3oMQBV5QZxZo4gAWCjABHWEFIDAzJQ8NsbgAVg9TZQasNlvPmGUaBAGbjAGXOYP3RCxesVQLoSkqHMQKUlfXTlZTQHbC9qlpaf47vs0prap6XCPFb2BtdGfz+2yXV1bMB9ryutimtrpmGbexh8yvQ2PL6zNKyfugxrVd5uZdV+5BiUS1eyfejWWGGpB9BWT6AaCFAINOpKXn5twFUi9Jr878prKkdgl5dQcATwNllZYac8nJuFYZcbjnMsAzr8/WVa8S5YPnSPL1+RklVtS3ij74g0nrEBVXRPDAkEoh4gAej/gXVNTTe8AZcj0UnN+DV4QYoG5DTQTY2IKaMyZkAKYCcCkoTRZkL2NDhAixsbAyjZs40DJfiACKAURyglIUrGAEKSkufKdLrSZp7FVVU9C8sL58EQJ4tLCuzrWhs/IXGHdDv17uystraqSBPXxDHFnL4Rnfbs33q6sfT9sIQ5Pkx+UejUYnVk5V7Q5W0j/t+Jv2JSW0lDQ190evezq+sorn/r0OtVgD4AOq1qQWF1LNPA5DJ6OUPCWACG4ACZL1BV1mpWj4ZluVV6GuqQVDtOdJ5ie+ISd5NzM07AtI9EpmBcUAYVQmloHslXr8VFh6opITcDUiVQVYapkAQbsAoEFTnCCgDQ6wkzG8hY2MCqgJ0lIOJAJQC0nyA0SAACwS19QDNHAHX69f/9FhqdvbXFfX1v0avfLyksrJ/cUWFHcy2urXt59pYgNtfeCxg0spra0n6/1pR3zBa39g0oKttTVll253X3by966ixaPaNu0b+edr3CI3ulVVaNli7f1pBQbiuqnooZL+S/Dnk/F5Rba0FbAqAzyGwC6qqDAXV1YbC6hojU5ZVH9ces6S+4Quomr3RdTY3vwt3UxfJCSBiAX9RKo6IuFNUWbkoITt7r1wTkAlwmo8NMAW40EEAmi/YlQugLGA5J4CcBlovXswUYPSsWTTypwaC8uggFYT4vQOGPcePT3psy759JHe9Kmpq3tfX1/++vLJytxng5Yrgq6as+s6dN/V19Tbse9udt3C8mea2NWfRGZlDqXByBQpwTQkADaLwQ6mff3RMOzISd31d3XyYHcwWNhf/NaO4unpKSn5+Kcj7LgAflFlcXA2SkLQ/BLjONXfvvl5YUxNeVFNjKK6tNZTU1RkZLcN+seWNTUNKGxpGg0j7csvLdRQfwIU8BKGKoSpRUJdMZBffiICQxQK8NsCKQ0gJEaQGK21y96+4hgIlHfRlRaHzfK7AaakgxCqCfKZQly7AZZc6S5hlAVIhaBICQJoZPEYiQKdAUJo2vmzTpiWPzVm2jG6C7KWvrRuor62dBpvSDQGoHvCKKatsaJwB4N/r+N1ga25bc4ZeNAk9pUgEgB6cAKLwE5aS4ozj2ufq9f0yiktGQf5Jll+Bgr0BgA7ARxfiPKzpv8tq6xwh+TqSfB16fUlNze2yurpDpfX1hrKGBkNZY6OxYRmI0A4SMDWgffIqKljcQMEhKQplE5QZUJBJ9QFWJNK4AT8lSPUT14Rly675d1QFqR6gKIBIBZWBIVUBTksKcOQIu4nUWAGMK4E0OZTKwBQAMgLMnt1tJkAEsHZw2EF3/NIjW3pV19WtrW5oeKe6vt6qGwKIbOAvWqtubJxv/LtpnqntujP0mleuBwQm0fAqUwD4fyKAf2xsSGlj45s4rp2p/dA7dyKIuyovq4JLAZBJkPjK4ro6f31z81CA3VbR1GTAd0Nlc3N+ZUuLM743o+czIhBBSA0KqqpZfAAVMHAVYNkEqxEgyKT6ACsQpaZ1uIE4xQ340MhkVFQw7DTOP5qu5YqvogAXbnopCiClgooCnFcni9ItZEYKoNYBJAUQk0KQAdCdQXST6Pi5cw1jQYBRnACICZYMmTQpdAARAJmAXBK2mD377GPDpkzxRa94tq6xkZ7e0QufPSEAlYX/3MmaW2YZ/26ep92mvKn51ayy8rdN7i/ZNT+/cs/gkKCw5JQZUIU1CKrGd3Vc6Rxs5d9EAMj+XvTqUrEMYHtVtbQYqtvaDDVtbbsRrL4Gt7EFRDAQMYgEJSABuQpdZRULGik7gEtRVYAIQEUmKjjJ2YAIBClYpayFBoiIxGxwiFyAt1IRFARQi0FSEGikAFQHkBTASVYANhqoDAdPWbiwEwEQCJbDpT6J9n4CSnCKTxPTi6FhEMP3sYETJkSWVVXNaWhtpfy1V0NLy9C6tju/6oYANEmkt2zYp39dW9tgeVl9a6utdrvuLL245H1I/w3qLe4BgbW3IyIuhiYlzwtPTbWDxB4KSkgIQ95fhAYPhfx6ghjnkG4dTCko2I48fwWyELrdrHduhX418vhWpHTfIrCrLG9qGif+o6q1dXLNnTuG2rt3DXXt7Yba9vZgfB8BMnzDSEAqAHdQzF1Bnp6rAHcDVFegymJ8tlImlmsCciB4mxEghLkxcmdsdJDXAs5xF0C1AFYM4gSQ6wByIWg9nxpGcwPZrWJ8OJjmBdII4OQFCzoRYNzcuWsFZiDPS8gEHiI2WEAEQBqox++kx/qNHp1aotfvr79zl43+NbW1vQV7rwcq8LwMXGPbnRm1d9uNwGxouzO2XpmD1y3wkP3eyPdXIUpuoHyZ8maSTWo8kQJSo1KQJUq/EWh0ysepTEs+WaR+SOmoltEbvXcTJLy9DEGd/F8IBnF97Un19+4ZGu7dC4aV17Xf2wUSxFa3tjLXUNbQyAJDkIeliCATcwMmCcADQTkT8OGDQ+S+lFqACRdgKggUA0JGlUBlLECMBor5AA58Qoj1kiWmCPCt8/Hjv5cx27J/v2tqTk4/EOD+uDlzDu0/fXrbY19YWFSl5+XNFhs1trc/29rePrIb8IUKUIWQ4oE/NbW3zxTfhaF3vYnlU7TLTZnbbe9j1CjUO4gAdEuWWgTiMYAggCj/Ug6uECBTIkAB9d6+4riQ8/5m/rMPgI9tuH9/UOODB5PxfQtIMQAqUAkVOFre2OgH4kyE6ziPtPF2cU2tFVQgU3EBnAD4zxgtAeJME0DMDzDKAtzlIFApBLGZQSclBTgk7hTqmBcoF4HorqBpSP+0BBg9c2aWFjPgagEbik4fBjvb1t5+lJ7p3+YbGjpA3vDu/fs9iQNERvAyWeu9e7PEd9mw3FZ8hz/+k6ltIPFfojEenBUEgEyqWQAIILIAUwSgIV8tAeCzZ5r6H1MGAnzZeP8BDX8jv2//EOrwpryesgwEkZdAhJHFNTWuHZmARIC09M4xAI0MchcgCKBmASbrABdUAigzhKXRQBoO3rO3owrIHyBFvX8Ggj9TBEDwd1GLF3AdCxsJt78GKhDSfv+++2PvfPXV/bPXrvWTN7z/8GFPCUD2QuO9+2+0PXgwgSuCkd158I2t+J5RUvpaZFp634jUtA+K6+opIPsjfP4baIh4qopRo9CYOZ/3zxrNIzDIiABqFZC7AKUEnMlr//mUst1sunf/A1PnYsZerW+/N7xOuam00/qq1ra/VjS3ECn+SEpgRAAKAvkwsUwAMUmEahdUxBJzA4wKQeqQsFIKZlPDaDBITA7tNCGkY06gCABpFrA5AljNs3OScWq4d//Jew8fDge2YyfZ239ETxIpq6y88NjbAwZ8u2bnzrHyxt98++13IcATd7/5xgoSSoWcl7TW/g0jgNGysqbmlwHyXFx4CKyd6uGMADc8WJ2cGqlTJVBMAOFDwGwQCKkXNT71wng+1k+DN4jYvZBtvGHqfL6P5VVUxMtpoEoAqgPw2UIqASI4AcQUMVyLmBjiyucHygEgEUBbBFKnhGkzgK3bWOpHj4kzRwAsN5rSB+DfdXV3HwRsxxfV1j3+4bBh+gVOTmmP9Rk06L6lre1+zcbjECCZKwV3MoBMz/d50ZS13H/Qv/X+g0HiN9K69xHsBO0/e46NgdNQKCMAGoNGyKhxGAG8fTrGAjSlYEaABE4AND6BIMb9CRwCKbOkpDWnvNyrpL6hn/acIOsfVba0rkHvtkEK+LK5c9fs0xtp4J00uBj6DzZPgEYG+dCwmDNILoplAHyKGLkwuLJWMT+QpoZph4ONAkDjFPARCNDIZgPxJ4ZQBkAFIIr8GQEQAJoiAPbprcGUdXKoABv4Qzq465MRI9of6z9mTNuA8ePj5Y3v3H/Qu/3BAyO30JXde/CADkpZwR9M2Z3796k8/If8quo/gd2VFOVSukNpD1085cHkC6lRqHHolmtWDpbjAAoEpUxAdgMiE4hXhoBZHCBG/0CC6tL6+s/FudBATllDw10EeQZeDKqE7UfgNwxkeFE+79KGxv6FNbUTCqtrRuA4zt1mAHHKvAAfKQWE+SFV/QxkznUTM4Ql/6/WANQAkD1g8ht8dw2Mi++bVVb252NubiEIAL9ldwZB/mngx4gAixaxeQASAWpMYGQhYdXLfs3aL5AA1D02fOrUqj6DB9+Ff35C3uE7BIK0Ld3wSfvTOMHvtYZAcA4a86U9p09fouCGfBxdLF00BT/kAxkB0CjnbngwHykTgMbUbwo3IM0EokYP53EAVeSoMsfdAFMBIgGN9SN6b0cg51pSXz8EsYdTca1S+1dLwjD6jmWtsKSimpoo+PtSGh1Uq4BFHVVAUhql9yv+X5SBxZRx1f8r9xBmF1TX/Bnt+zrcWrQ8MZQedXfUze3eIWU20LfoFCUHzp27fiM4eKC2/aAUlnAFOsr9xfx/ejw/pYBTQQAaBxCl4Alz5542gdE4pXPf/6L53v1f4feQoVOmhD42cvr0mLcHDiSf8bq8Q9s99nbMHhEA2w7n35/hJDCylvZ7VgDen3wa+TYa6qQ7YSjo6dIN+PgYDwmTG0DjyvUAdQKolA4KFUgrLGLVO6rlUx5PgALYR5Tbo2cbimBU7GGDQPheWFPD8n4aAzACn5WANcEfLwBFyAUgLv/kqsTkUD4UXBSemkpB5u9SCgtfvx0RORokGYw4wPXirduL/ePiPskqK+9tqu3ImtvvjW5sv/cu2nH8mRsef1i5w3kUSHCVHtNr7eBgmLpwoREBQI5BMj7N9+79ARiRCvYCmfq03Lv3F11p6awFa9asf2yCjY0HEWDw5Mmj5Z2QL45HWvR4d+A3trc/h22/kJYRCX4r2+nr7jMol2UEgG9zUV7uwHzeAU6AY0IFVDfgxe6sMRoU4vUANirIswGmAskpLBaI5rOB+GQQlq+nUzzQoQRscIcKOwSyGBZmhu86dU6AMjlErv+z3J/7/ljJ94tpYSL4Y7ODwzqnf4hpUhEEXkorKqJg+bcg8whc8yMEgCWXvH0m43o+1LabsPr29j83t7dbtSCHF+2MNvrNzGXL7tJjYagMPHH+fMMEW1s2HIws4U0NliMb2tvp4Z69cIw/ZxcULOk7dGgrFMD7sXkrV54jAlgvXrxD3qnp7t2/Nt+927c7AtA2dS0tf0rIy39SQ4IXhCGNiaVUht6iQbc8Octu4Jwri4DJDajZAKWDkgpQIyoqEKJWBcV0cFYVTExSXQHLCLgrUEjQ4Q7kGUGkCAQ01fnzOOi5HHgx+pfB5wcqE0WZ9D8ggqmpH58iLuYEquVffvewO58PKII/UjaQYgZ+O4HsZcqzApTJoDQAtOfMmWi53SR7Hu1sA/tMbnv09NPTEQAaEWDOHCjCIqOJvS1376p3eTXevfvrvOLijSBA5Shr64uPbdiz5xARAIGEtxbcpjt3xnVHAGwzovZu++MIUD7VrCPG/SYgNu51qmFTLVtVAXIDJ+AGuAqobgARMUXGTAWkqiBTATEyKKWE2lnBrC7AXYEgAUm2mBAqJoNmyvMBATYzPi+QAU+DPgA+lUf8bHYwjoX9nfD7nLb2L/d+kfuL28bl6h8fAm6Xy79q8KfU/9upzTT2a9gTaOdddXfbn5LbGCrwPDKACqMMAATA52FzOOL7fNiA/mPHbp9ib7/tseNublvprR8fDRsW2tDaOlHeEb/Hd0cAbKPmmwDuBc36pwBgXyphUiGDVGCzVgV4LEAqoMYCrCZwAypwk/UcVhr2My4Ne4dHGJEgRBMP0GQNNi2c1weEGhjNDJZnB0szglP59HBxj4CI+NH79bXNzTtj0tOzRdonF35E7zca/PE2NRFU3BGE3s/vDFbeOnIigwMu7LlaJbimdl5oqv3t164bp8kAqAycLeHzaX1bW2/+3QrWH/ZRfwuLA3MdHTc8djMgwKrPoEEGkKC2vrW1T31LixpA4Hfv+pZWbc82MmzPxg22Hj7yqqn1kLb+NIBBKrBBVgF6oSPyXTUWoIyAUkKmAkpGoFQGlYxAuIIbkisQaSGLB6TikLgPUIwTxGluClHJwAnBTKdTpV6+OUS9Q4hN/EgzpOTlnQVR3gX4NXLZ15T0i8qfei+AXPqVer8o/YIQ9FylX3Gj5zIrMdidu0+jnQ+ZwwBZgLs6GYTPBlqze3dvjs9E/jmE4dva+irsnYOu59/btHevw2O1TU1PQA5aSQVwgI/B8H6wD9Q/aGrqOh1sah7S1fqlmzd7Ue1aUYG9bHKjqgJwBXTxdDeMUAF6hAojAWUEcAWuIiBUXYG/Ok3cS0wTl0rEYpp4OC8Sdbo1jN8GRgAzI7A54MZ3BEm3hsm3hSUl3ckpr/gz9vkQ/1miFn1CO54TwJ4kJkb+vOTJH1fVyt9Byffzyt+dmKysP/Je/6wKvtLGw4HDRHNt7HLy1Evw/41sQigIQDeGjJk9ewfHbwrw/BT2Mfvd3Ny3tqXlVXwOxron2bRwS1vb9PegAp+MHCl26gdTIs7GJovatjtPmSdA01Bz6wLj43+xeOPGeqpb0xAmkYCqWqZUQNQFREB4QnYFVB72umVMAno+gHyvgFQfkIkQkZKiEkG9OVS+KZTA5oDHyTeHcuAj+Y2h4jZxfuxN1EOT83Vv4L+/8RI5P78HQIDPpoBLt4IdF88IunDB6C6gncq7Do/zXv+MEfgMg0YrtPNwKIHZ6iwygunk//mU8HuI8NvdfX0tsK899v1UwusLEOBl4DpGvS/AzsnpdJ/Bgw0gQY7YsLq5+eXqhoZp+PxDdWPjcHN/jHXDzK1b6ew8kW5aoJsXaPhSkIBlBAcOssEOJSA8wXqCGhBqXQHVBvgYgRwPyBNGBQk63SnM3UI4JwK7RZy7B6PbxPlvBrrRHcFJne4DxH88xG8a/XwW/xXpGSLdBiaVfAX4p69d7zTsu0+a+AGryC0ptaluaJxI7VnT2qbemV3d0vJrWgb7BFi82JXawg0cHDVjRtMke/updFPIOXf369VNzb01eI2quXP3l/j8SiXA/tNn5tM0YXoPEHbuIzauuXPn55X19ZMq6+pWmftTrDdLjsUbNhykQQuat0b1a3IFVM6keICR4NAh9iAEOS1kruD8BWMS8KzgvDRQpAaFnARizoAoFDE14CVj0w+K4MYeCqF8p+Xh0pNCjJ4Qwqt8otCD/6KA7dmsoqKFAL+ZFXw0zwOQ/T6B30n6lVG/NpDkE9Hrq5tbnkObjoRZwSxgk6vb2p6qamykSbZ9uiIAmZOLy19Kqqs/njR/fkpFbe0YE3hRh30Wnx+rBMhBUPPR8OHtpAIfDht2RbuTvq5uqr62dmFVc4v2mQG0boR2WQ3SQiwfudrFJYHq1jRuTSVMmsZEgxkiKNy0b79RcciIBCIrkOKBc5qgkCaNiBqBGC/QPjfA3ONilFvJE6VHwmieE8TTOxV4KdK/xZ8DEJWaOlbf0PAlSDEK4LcaPwxC4/elG0CVB0GwqD/z6OXLn5tV15bWZ9DuW9CWlpX1DW/jc1BX4GP7X4Akr0M1nsW2FtVtd57sjFf9V1j+G6x/RSVAZWPTvyNy1NFUYajAI0s7uw+0O5bX1EyBWcImVLe2PSktH2G8Xe1gLJtc2dj4m/lr1tykGxZo3rqDRgVobJulhggKzWYFcoFIkEAaMhYxASMBdwmeXA2oViCIQOBpySCMgFYfCMVNfgyML392oLf6dDDxiDh6RlFwTml9PaW+z+D/hiPge8AeEnnD+BkA8mPhxEMgAH52cGLic10BWlFX9y7sDfa9tvbz8urqnfr6hpc79erGpl/r6+t7o4P+QnRAwsrEMR+vqKv/HKT9gDA3ekDEgjVrQulRYqQC+PTV7lxWXTNC39T0y8rm5mdLq6ut8HtYzd27j5cpj3zvVVZTMwDLp1TUN/xB7IOe7yDeH8xUQIoFSAXUoHC/ogTO6jgBjwdczzMSdBSJjGMCirBVNVAfGxeoziISRLgtnhfI3YMfJ4QghfzbVwO66PHqQyLFk0L5w6BAPkrPqOj1NMi40Ej2xTuFzne8R4hP9ijH+ZtMm2WjdjbGoHoc2rk/fVY2NT9b0dDwO/z+qryu7i9G29XUDMY6bU2G7KkKSH9ZTe3XnZ4QctHTcy/dMkQkoIxg1IyZRnID2fh5SVWVWhjCHzyP35bFlZW78DmtrK7uT9o/TC8u+TkCzBimAiIWgCsgFaCJDaQCpuoDLholEOlhJxLwFFGQQKiBTAT+IGjl0a9EBq4MqhHQHGxv8chYCXSR2ysPjg4UgztGz/+BGlCp9amYjMzfo+dHaR8F1xHxs6HepJ6AX17f8AJ8uVGGhXZmY/qlNTV90e7OxVVVy03ti+1Mpu6VLa2/r2hofAv7WXUiQJG+8uNBkyZV0G1DXAXStUPE+FOLypYWNSUs1ldaFun1S7B8LK0rq619SfunB89f+CNUoI6pALkCSQXIFahVQlEfkNyBUAJBApNKABKcl1wCUwN+Y6kgA3tiOH+moKcghRnzZA+I5oBrngt8lT0u3led2yf8Pc7hFqL+tWWNTU9DPV4B+I9k8LnPf4DPnYl5+U/L7XPE7dLbpsAq1usnodOp7V9eX/+booqKLWhzKxDjTQ70h/g9QQN+X7FeY0+WoueX19X3LarQd1YAsvW7dofTXSMfchIMtLS0M/JJjU2/KNTrR1c2tzxVWFExu7S29kX6LdYXVVZ+hN8jyfD9syp+gymygRXz4QroBobFJgJC4QrkASORHqo1Aho04hNIRFxAPlYQQQSIQhEEGdgbQmQyqI+Q5ybeF4Dv7sLESySkrrEMQgAAGttJREFU9wRcFs8C5k8FP68+C9hdfegT4pRT+pbWJ3F+kZpnAUeecb/Rk6n2Qm2fQPtOLa2t+y3acjy+T8HnKFgnv15SU/MnrLdB72ZxWWGF3lzB6Jfo+ZbAxaagvPzfTBIgLDFxw8cjRjyghwnRS4mRGtbsPn3m1/KBdBUVE3Xl5bP0Tc1P899jTf1hSW3dCwUVFcOxfvSBc+d2sncKmwgIV0pZgYgHKD00RQIxf4CRgFcMTygNz4CQFYE9VPrWrc5k4IRgpJDeIqK+IUR6bYwAXfR2GXjxmJdT0jsBqNcfueh2E9/t+S1eTVCvReVNzSzFi83KfgYp7xK4uwz3wKBOPrqiqemZAr3+y/zy8nXUxvg+UADL21r77EZFHRobn8X2doWVle9inwEmtqFjPF+oB/h6/VizTwrFQf44eubMWCLAJ1ACUoHPxo7dpQYX9Q3P5peWzskvK1NlB99NnpRs4SmpT8MF5KgBoXAFRAK4gpU8K2DxAK8UyiQgd7CLk0DrEo4JNSAioCcKIhBIrsor4IzIIL886rLG5JdFaUEXbwSRgZef/au+G0h5QVQE1n0dmpTM3rOYWVr6JEhsB3UrF0/82nn8+Kji6uoXdWVlo9GGVtwsiiqreuPT5GQcbNspr5ctr6TkXFl9/S9NrPsV1PgPBRX6BcC4d5cPi9557NhxeogA3UZMASFUoN3JZReL7HNLS2dVQZ7yysoGFVZWscfG5JWWdjtiSLbvnOvL81Y5FQtXoM0KVskk4EGhSgKKCXidQI4LOqmBIMI1ZUj5DCcCIwNXBkEIYeI1cfIysZ0Mesf7AjuAPyZeEcdfFrlfvDYW54jva7HvW/i+GHFN0Rbpub+Iee6m5ORMyi8r749ebxQTUNsWVVf/Ttt+UIKfY90wc+0LdXgXx+sHjKw16+j4LxRWVQ0AZl92+7TwtLy82Z+NGVNLBKBnypAKfD5u3Hoc+HNIkzptLKe4mN1GnlNSMqqsofGZnpAAYL4BV1BNrmABzwooHjBJAuEO5MCQk0B2CUINZCIQOMI1kCqc5q+DJSDPSqQwZ2I7FfTrmpdESu8GPCSleOqz/6VXwpl6AwgIcNmk779z93G0q0kfrqvQ9wYB3jfXttnFxdacCH/JLSkRGRy5HppT8NuCysrB2P/TbgkAoH8+d+XKULqNmJ4xS0EhMoPo7KIio9QCZHgF4BPj+uaVlb/WEwKQoXd/ABI0iXhAkGC5CRKIwJAakBqSGtSZxwXkEoQasNhAIoJwDTIZhDKopDBjp6TXw57kr4fVvhlUBr7jzaCnRZrHXxJ9hN3W1en1L7g2kGOgGRCHo6eayt+po31RWFX9GzP7jZD3w2/hKqhy+zsElS/mlpQ6AqfHuyUAmXd4+AH0/ntEAv5UiWqdvrKTLGUWFo3Pr6j4Y1ZRUZclSq2tdtn1BUhwh+IBQYKl3ZGA6gQal+DC1UAmgnANMhmOcjIwQghSmDFad5xvSyQyAl16L7AR8FKv3yG9ElZ9ESR/7Qt/2HOKqTaBj34is7DQ7MM5MouKTAbbhdXVv8Y6o3s5dXr9H4gwtXxSKbD7Kqu4eJYprE0SIF2n+2TaokU3yQXQg4VsHB39a7VDlO0UfTY9lV5QYJGuKzD1aNkuDY32FwA+E+AfRUCYg89vTbkDUSdQ4wKNGshugcAQgWInMkiEYKQwYWIdBXS0Le2jBV1IvQz8Tv4a2O3yC6HldwGrr37bQbd6mQzkMgoKxugqK032cDJqZ5PLdQUTyXVolj+eo7yMm00rhyIsTOfPBewRAciCYmJWofe3fDFuXGl0evqcWmWiQucTLyzsl5qfv+i7EkBr4UlJM9HjJyzftu0SMgNP9JRrq3e6XFu7a9c1NOI1NKYP4oJvhBqwAFFDBOEa6O4aU2RghOCkYMTQmFh+kG9L+2lBJ6LxgRwj4LeZeh08FEwGHxZi6tqRMv8iTaczO+FDAVrXaX4mev57WUXF75jY/rkcJZP4Azrpq2n5ukPmcDZLgFSd7s05jo7nP7ewaMB3GvumseinTZ1ccm7u2vKmpk4jT9/FsopLXgHLP+lqG0jzIVUNeGwgE4HAcBZEAEhaZRCE6M7Etns4kVTQ+dQtIfUy8Js58HKvF4915W/9fID9PjR1XSn5+VMQSJufdANDJzPKtuDXH8eyCSa2JYxezC4tnYSM7eWMoqIV2K7PdyYAWURy8jIoQD0ufi0nAEnKE9o/BQGsknJy7L+vCuA4XfYCrB+3bveeEBEbaIlA8itiBEEGoQwunBCCFF2Z2M5F6umkMuI9v9u41GuBJ18vAj3R65WXPW59hOXa9IwraNFfQYAvetA2RmAn5+WNKqiq0ub8T3CMXswtKx9cVFPzXkpe3sGuMO6SAJCl3ovWrz89a9lyejOnuEuWblYw8jnouW8k5eaOTsrJNRmo9NTSCwtfxQl/Zm49Hf9GUNBvAMpX2w4fmYpGPymIQCCIGEEmw3aZEBIpzJkzB5sBTvuJni6DTj7eBPBC7qVez4pdcGdLzV1TYk6OSWLIhp78ONpXDfSgyO+baKfHOTYMJwR9lmhPe8LwbyYAWUxGhp3V/PmJtcb3zXcKVnAho2FDkvPyu72ZpCtLyM62Kqyp0T6hVCFAbu7AnPJy9dG1AGwQgFjJc2tWO5DJoCqDIAQnhSCGKRPraVsBOJGqE+hKQacT8MpLnbbxV7ttJgXYbhb83NxBkOhOo6hag0K8DzDpeQq9ssvKXqA2MrHdb2SM0ouKZgKLed3h2y0B0OjPIRK+7RESSi9skJ+uYTRGEJ+VxaLUuMzMGVklJb/9WwlQ2tD4JI4x2TQB8vqk5Ov+Ki8DQFbU+CJjEGSQlUElBCcFI4YZY+ux3SZubH8cxxToQupV4BW5Z+McvMp5xNx1FlRX/yIuM6tH91+KtiUlQNvMMbHNrzXYvAxy7QJxnvreBCCLzcxcllpYaOpZO6oPwjajimrrnqaTRNZgX97U3OPnC3RSgZzc9xNycjopSWpB4cvx2TkfBycmqgrh5OKyn0YVaTxhFSeClgyCEIIUPTGxvdjfHOgk9dTjVeD5e3zQ+8+WNjaZvbcSyjqdyN6T9kDbjuf7TMqtqNBmY7/U4oLePyU2M2thT7DtEQEQDP4nmHcekWdvEyRg8wQziotfiM3IYAUhyPRz0WlpJl880VOLTkufXNrQYNRABdU1z+A/1EkSbt7eL6DRq0huyd8SGDzdYgA5aQghSNGdiW0F4J1AF71dknrq8eKFzg4bN17Jr6rqFCyrgKKdIM9/7mlbxKSnW6L9v0zMydWO8z+rxUNXVf0BtnUFZv/2gxGADL36w/jsbOda0495Y0oQlZamFoTQi1/DPmbvGejO8iurfoHjdfJ1WKYGmq43vX6LRi+nkUUCgQIuQQYCSEuIVVwlnLqxVQJsCXD8jjt66dI6HLd9mdTbHQTw69ezWU/4vJmk05nt2ZDmv6InmywFm9se12yJttRWW3+pxQHq+2fCiLDqKa49JgBZZFra9rTCovFmSPBcRGqqUSkzKj39y9isrHf/ZhXIyOgXl539hrwsMjXNqJIGuf5y4fr139BEEwKCACFgCCCVEIIUEjG6Mkch61za6RjnPDwWOzk77zECHf9JpWzx2jZ8hkekppmslZChdz6DNpr6XdogIiV1WnhKynTN8udMYZCs01mjze2+C6bfiQDB8fH/EZGS4l1cV0+gdnpMK8jxLvyV0RSn8ORky+T8/C5vaOjKsP80iis6GiSlUykVoKzmADBAFgkyCEIIUsjEMGNLhZGsc2nngH9rCnTxtq55Tk7fIGswVZWTr8W6pL6+xwUzuu7QxESaaibHUyYf04uYaVlUWvoOwuhHIwBZeHLK76EEJ+iBzqZOBD2e3IBR8BOSmGiD5d1OhDRlGcUlvwqT3mKK76O12yCYehxgBBMQBIhKBkEIQQpODGEOGpPX0ba0D5N2DvgCHFcDusF21Sr2vB589+wS/JSUIQhge3+Xa0e7zcf1ihtvRJ5v1N6VbW2vxmVlr0D7rghNSnrlu+L5nQnAgsLU1A/CU1O9c8orKDMwemJ3eknJ0IySEipSGGUBiNynRKan93henGxohK9is7NZ44UkJSnvN8zX/S40KXk4jmtFdsXPb9681aubCRAChpFBIoQwBmQPzF4CWwCuBZ2e00Pv6aM3dsNVeOPcxqQVFf1ae/7RGZmvhyWn9NjvK+AnWQYnJM6ubG17nLflH7VtDWV4My47ZzG1Of57+t+C5d9EALKYjMzBYLVnYm4eRftGz/yPz8kRD4k2migSnJAwFmD2+OljsgXGxdlif4uA2Ngd+LQC279OLy42Sokg2ZYECAFDAJERWIIUghg9MbG92F8cTwadHtI0c9ky9qw+fAbk6SufQa8dSucHm4D45eWciopfBMXHfye/j+0no0f/ia6Xt2FvbRtnlZYNRKBtg9T7fbTFxr8Vx7+ZAGRgtgUCtdVgoV1eZRXdgcre+oFgxDJXr/+Mn6z80ikiwWD02B7NH0Da91RQQsKogLg466D4hNEgweTA+Pguy80AJY8enkSPUCOQCKw5AM2GmwCyK7Pp2L4K+z9igON4BDgdm57NT6DTE7roGT30nD781yb5PMqbmp9AL/7CNzr6KF0D78ldXm9RXd2TuNZZKQWFv8Y+Q3Ir9H/mbai+UQVxwWuxWdkLE3JzZ+E/3gL4m32ior6T3//BCIAT+hmizkkggE18Tu70qIwMR+S/dB/6qzFZWQukE6fqlDraBRJ8hgvVvpxaNez7kn9s7GTYBEi9SqDQ5OT3cLHOXTWmzcqVa+nJWQQO65lK72TAMSNidGGzJKAZ2AJwHI+OScem5/IQ6PR4Nno+Dz2iBd+vas/FPyZmamZp2bOphUXP0fWc9fD4Cscz+TwF2sYvJmYOOhJlEU9FpqXb12pep5NeXDIYyrukqK6+DxEB4K/HPv/1fTD8XgQgK6ip+XeowFSANh+B4Wsgw+zozEwHqMMSXXUNvVBavGjpVVkN0Dvex8kb5fmFtXVP0jI0ltk7jtGjZuHCzaaWa3fveYsem0bgEEgEFvVSMkEMRg4zZi0DzcGWAadjC9Dp0Wz0cCZ6PAs9oQMxg+rn/aJjpqYUFKjvXdhy6PBLo2fOLJgwb15OXmWlUaoYk5n5Eq5rBif289hvVGpB4SjRdpD5vuj18+RlYSkpq6CI3ZZ6f3QCkEVlZP4Xev/sKACPk3uNLC4ndwZ67JHUouLhYhk3qlixBsBF/NU7KopVDCF5fX2io6fBr3e6A1m2XH3l07fCw08gKOw0RU3YZHv7VAKHQCKbwkETxBA2TWPyOgG0AJuew0PHnDR/fpMMOj2Zi57NQ49ngathN8riOqbE5+aqc/RW7tjxyvBp0/KGTJlCL3T0xjWr9Xy00evY3oq3CbXNawiWV9BnPtwqtWkMwAc53hRtGJGWtggd5fkfArsfhABkQYmJvwxOTNoemZ6xtKK5hfLh19OKiofhYpZj2TKogn1xfQPNahXv4qPawJNY/5JXWNgm35iYHkfJaEALuIJRKYWFnebAr9q5801LW9tGAodAIiPAyCaRCSC7M77PRH4MATisSAadHstCT+agFzXNcnQcdjsychI6A6t7HHA9/5sxs2btAvB3B0+aRG/xfOi00+VPUMvfYbuJ/nFxH/nFxI7mbcHaBS6gHzKsDTjGYqjpDKiq+u7FyrY7b6HTOPrFxr74Q+H2gxGADCA+i3SEwJ4Hf0W+7g18t0Nw80FJQ+P79B1kWAJWL8ivqqag8fWcCv1f0RjW6NWzERy+3hMCYHtWF8D/9UfMocYWkMknAUoaPSyRwCGQyAgwYRzEbk3eRxxHAM5AB+D0QCZ6Jg89lmXkjBmPnI8fXxmWksrS1ckLF44bMnlywyAFePbmLvT+DeJcQfql6DS2WWXl5M7e0Le0vgNVozY4npCbR6OhRm9bhRr0C4iLPwxX8csfErMflABkkKf/BEunJObnj4N0zUSw8lZ4Suoq+WJwsW/jYq3R+xcGxMefx7bk217wiYoe4hUe3u2dRiDLWD0PBJEVvIF8mA28wIePobdmEigEDoHEX57QYZwcXZmFDLQAWwM4vZOHnsZFD2QaPn1689ItW46g54p3LPcaPHlyKQPe0pK9uhWWGZSQ+BSu9bcg7oqMktIv6PrRyyejUyxAj58HtzEpMV9noQUfhJgIxbuM/TpN6/6HIwAZTvpn0VlZX6CX90N8MI/IgIulqLbTS6JpfSpzFRn22MYO2cGyGyEhe/DbrI+HdL7pFxunlpzRMH0QbT8DubahV6YSKAQOvTuPgCLARgvj5OjKaBuxvQq2MeDs5czDpk59BGJcO37tmgP9v3yOAy0tvyXg6X19n48b92juylVfo3OMQQ/fSddM1xuYkHAIkk/p8pukAGGpqY7a9glJTt5wKzLy6u3IqP/9Y2D1oxBAGIB/Lbu84suEvHzLwITEfSlKFGv0mnhqDO0yxA7D0TiOHqGhhz1CQqbjcxL8/kdyI3uGhhnVA7zCI7467ObWe+iUKZX0zlx6aya9N4+AIsBGCOMgjjRjYj1tO1wYga0Azt7HS8Ecvkeu2b17PM6t0zxGxAtD6V299Jo2UoH5a9bEAHgXSP7uuJycaRUtLVQRfSsyI8NOXDOBX9rQ+IH4DVXrC8k/ietyvuLv/7MfC6MflQBkiHIp6JkEpveH3B/OLCv7Ghf4tjD0hHnyb9kQN3yARppDPQfy+uGN4GBL9+DgyWRX/QOcoRRj0UCfwuWwexdvBIeMQ+5vQ36Xgi56ayY9LYsAI6O3aQ/lIKokkUxeN5TvwwzHoGPRccmgDCvxX4M9Q0NZQQtk7Q0iDMP5TcC5TYSCFI20nsHiBrilMt/oGHtE8e9qr4+iefok2QcxyO+/jaDvHcRINlC1c3CHg39sfH50ApD5xsY+CfAXFdbUfuIbE3smOClpXXpJKb1j8O3wtHR79Ig+5khAlldV9VlEevq8+Lw88o9UVPqVe0jIVMjm4zjWS55hYZ9dDw4eS4be4oQemEovTKbA62sy9EIyepW6ALFb4/uIAI6Mjknm6uW17kpAwDKAPRI22js6+mOkpxTJv+wfF98fub5hPIJHm5UrU+C/+5u6JnJ7UMZxGaVlX4PkNowQuEa4tpO3o6IOeYSG/fbvgc3fhQBkF7y9/9etiIgFuOjxiJSXMktNdUjSFYwJSUpejQZ4pzuDCxiEXmOfXFA4Oq24eBiCzPGcEDQhUnUPRy5fHgAFKCP/S8aDMGYCxO5M3kcch2Qd61rg1p7n/0n//bp8joh9Jh6/cnU34pkhXV0LXT9ipM9CU1KWIiCeGhCf4ELmFRHhQG3198Ll70YAYfDlr4HpVpB+m9jsnClECKjCESgB+cN3e2LI/0eCPIugKts166h3UbGkN1KysZDxb7+2mshAFD6ZPrs1ThpSAXIHFBtQcIiU8M6iDRuOmDonEHksArblaUrhq8vzh0ucTtv7REefC05OXoHo3yowMdH+Rmhov783Hn93ApChEX4WkJD4aWhK6vzwtDQqIfcJS01b4B0TcxIN4kjEwDbvdWf+8fHbgpOSV1DDZ5WXf61dv2Dd+rOsiCOKOlTBI5tnZ5Tf03daphSLqLxrb7w9jrF069bg1MKiT+TjQ74HE3Fh81IKi0b15JzLm1s+9IqMvIFz30FKBiLb3oyImOgVEfnvPwUWPwkBhKEB/iskOWUkpG8j5PCLWARCUAdbyPtwEGEZ1i3hZOhjyhBYfhkBJalqu/M+fQYmJq2i/Wg5radIetay5cETjIo8dsyszJilarwgBJu1bFlocHIKBWx9ssrKB4Wmpi4EcAsQk1iaOzdhdG4xuAY6L8QrjujlMXRddL6e4eEbEci+8FNi8JMSQBhSwedvRUWthgLsR0A0E421BFEzTQvvg6xhMHr50qCkpOX4XAbVWJhWXDJMNDAtlxu8vKn5I2yzgLYNS0ubh2PZznVyuqUWeqii1xNjL1+yvbN448YjAHsiArMTAG5xTHa2WUIKg1ubEJKSsgjK5ED7pBeX0OTYPuj1G/zi4jcDeJergYE/eoT/T0MAYTfCwt6+Ehh4+2Z4xBWfmNid8bmsh70vGwD+GEoxiTVwSspCbOfin5Cwjr5HZmbOTNTpLBCRD0DPIwK9X1Rf3w+qYrPS2TnAYvacR0ZVQTMGBWh32LQp7ZKf3yG4qtX+8QnrM8vKB2eVVwyicwrH8YJTUhZDFRyIrJygy+iTyJdaXDxCPueIjIzZ10NCYj3CwzcB+P4/dTv/wxJA2CV//w+vBgUdvxYcHHMzIvJUSUMjzSLqa84QQK0A4B8U1dX1h/sYEZuTOwl+2QbgOAQlQjnwCdmeP2/1mhAru/nVk+ztGyctWNA0eeHCtukOS5pmO64os1uzJt1+7Tr3bUePOsI1DaUgLRrROWIUW/jnk4hR5sEdTYb6DC9WXkZp9nyExeXmWd0IDfPE9dxE2mj2Dt3/SwAzllxY+P/fDA+3gGTu8QyPOA+gV0ZnZk2Hb/9Ubuiiuvr+BLIWgMLauv5QhHFB6JnY15F6KYhhC3AtfGJjt9MbRJMKAHRW9jQ6JtbNxXEW07EAHlX4+tI21Kt7AjhZfF6+pW9s7JYrAYHBbr5+Lpf8/P/0U7fjPy0BZAMIz8EPT0DjrvKJidkCaXYMSEhwBLCQ3+TF3tHRO25HRzujxy8RRhE2pZn6ltaPBUCRGZnWt6Oid8mgYVuHgpraz+VlIN9oOjYU6Ah9ghyzozKzppELoHVxSuq21C8ubi3UwZb+yz04xM0NbuOcl9f4w1eu/CRR/b8sAYRRCok06hWPsLAJCBptQ1JSbXP0lZQCfpCInp2Qr6Pi0AemjADzjo7Zql2ONPRD39i4ddrlupqaLxFb2Js6FjKNgSDhUvfQ0M0XfH03n/L0XHH46tXf/dTt8y9PAK3Bv/43ZHYAgJgJBbBD717vHhLiEQqfjQxiGHrsRPh/O2QEtujl9BTND00ZbQtyOMOdkBJ8CNX4FG5iC+KPz0Gs8TiGvV98wqKbkZFLrgYFLzx3+7bVCQ+PH2RWzv8lwA9sCB57nffx+RwgLUXv3IUAbPfVwKD9iMBPILg8D7sOu43tAmE+IIwbFOUgIvVjF/38vLFu36WAgP34vuGCj8/sCz6+n1z09f3e8+/+Ee3/AG+oKB3e+XoaAAAAAElFTkSuQmCC" parent="49" vertex="1">
                    <mxGeometry x="30" width="30" height="30" as="geometry"/>
                </mxCell>
                <mxCell id="46" value="" style="shape=image;verticalLabelPosition=bottom;verticalAlign=top;imageAspect=0;aspect=fixed;image=data:image/png,iVBORw0KGgoAAAANSUhEUgAAAQAAAAEACAYAAABccqhmAAAACXBIWXMAAAsTAAALEwEAmpwYAAAgAElEQVR4nO19B3Rcx3V27Di24zi2Ux2n2Cl24sRO8qcn7k2WbEm2ZatYxSqWLatQnSqmJJNUoShZskSJErkLsIGiSAFbUHYXAFEW2AJ2sBPsHSRFEux95+38cx/wlm9n37w3r+0sgPnOuUdHJLjYfTv3mzt37nfvb/2WhISEhISEhISEhISEhISEhISEhISEeCxfjn8n0YMeaM6i9c0ZpT2RyX1X9HuSkJAoAxLZ3DcTGbS2OavgIiNE0JrFnxf9/iQkJHzA1Fr84aqIMn9OE1oT7VC6mjPoDE0ChBguJDLKq7E0/gPR71dCQsJDBMNoXDCsYM1m1Ct7GruUbuL0eQMiGCDHg/uTSfw+0e9bQkLCAxCnn6cnAM1qmpRe4vBrSo4Eg0TQ19KTu0z0e5eQkHCJYEipNSIA1SJImd+iZOIZdNCYCJQmciz4W9GfQUJCwiECIaWOSQBDVhVGp0LtqIuE/+dKk4ToPCGCKYnF+COiP4uEhIRNEAcPWRGAZrMblR1N3UqPYTSQRfuI3TEe4/eK/kwSEhKcsEMAms2Nod54Gm1hEMHyeA/+oujPJSEhwQFyBAjbJQD1WBBCuQWtKDV4M1CSJMw3Z5TaWBZ/SvTnk5CQMAEhgIgTAtCsOoqORDtRN9n5cwb5gdPkvxOSSfxB0Z9TQkLCAG4JQLNZDcrWppSyzOhYQIhgT7wH3Ywxfo/ozyshIaEDcd6oFwSg2VsxtJQcAXYziKCrJY3/VfRnlpCQGAKJAOq9JACwQASdr1tIjgVpdMKABJRERqlpX4Q/LvqzS0iMevhBAJrNiCoHGpIoBU5fGhGgo4kseiyRwB8Q/QwkJEYtgiGlwS8C0GxOo7I+ljIuKyZEsKklm7tC9HOQkBiVCISVRr8JQD0WhFB+fovSQ44FexllxW3Nafw50c9DQmJUoVwEoFlVGJ2GsmIS/p9lyI6nRJP4Y6Kfi4TEqEAgpDTRTtrbl8dzY/4SwYwo6m/sUjJmsuPaWvzbop+PhMSIRjCkxGjnPH0W41wO4xUb8pDI85UIauJoZSyDNjHyAysTPfirop+RhMSIBYsANBw/iXH74ry/RwMO2XFrN/4b0c9KQmLEIRBW4mYEoKH/YB6H2nzOD0TQsWiHuey4PoN/X/Qzk5AYMSARQIKHAABKHuO+7Xlc43d+oB7taOpGSxlqw34pO5aQ8AhGBHDmnDEBaDh3HuOe1XlcHfGXCN6KoxXkWGAoOyYRwdKWLP6C6OcnITGsQQig2S4BaDh6AhNH9Dc/QI4FF6CsmBwLjrFkx21p/EnRz1FCYlgiEFZanBKAhl3783hBi8/HgigaANkxIQJkQASnpOxYQsIBjAjgrE0CACgKxmu35vHsBn+JYGY96oullSWM/MBukB2LfqYSEsMGxKlaSwjgvH0C0AAJxFRvnoTuPucHQHacNZYdJ7JKZ2IR/hfRz1ZCouIRCCkLvSQADYeOYtzY5S8JBCPoTG0baidHgJMs2XFrFv+p6GcsIVGx8IsANGzbm8dvN/ucH4ggM9nxEZAd167D7xf9rCUkKg7EgdpohzrnIQEAcmiwrHhmvb9EMLsRrY+lGdOMsmijnHYsIUGhHASg4dQZjJPL/L02LMiOM2zZcSKF/0n0c5eQqAgQp2kvIYAL/hCAhncHMK5P+hsNVEWUU1ay47bl+KOin7+EhFAEQkoH7TznfSYAQD6P8eZd/suOZ0YVVXZsHA2gw1J2LDGq4ZYAWokjdS/POyaCC2WSHc9tQisTLNlxBvU2Z/CXRX8XEhJlB3GOTjcEUNOk4G/dkcNjnkeqUMgpjpVRdkyI4BBLdty8CP+16O9EQqJsCIRR0g0BzGkcJACwS36Rw5NnInzkuGMewHvfzeM6v2XHYXRUlR1n0HmDaOBMc0aZnEziD4v+biQkfIcRAUBY7oQANLvy3pz653ZeRw8oK1Zlx00+5wfq0famlLHsmBDBXjnNSGLEIxhCXW4IYLYBAWh2y5PIVX5Akx37XlYMsuMs2spIFC5pzuD/E/09SUj4gmAYdbsigAY2AWj26CsI7+h3TgQgO06US3acQceNZMdQVhxbgv9M9PclIeEpjAggZ4MAZtVbEwDYpXfm8CtzFTXZ5xQgO57vu+xYsZQdy2lGEiMGgTBKlRAA8p4ANLvqwRyOtCvqOd8JyiU7nt2A+uIptIpxLNjS3IOuEf3dSUi4RjCE0m4IYKZNAtDsp+MRXrbO+bGgnLLjOEN23JxROuI9+J9Ff4cSEo7hlgCggMcJAWj25FSE9x1yTgQHj2Dc4LPsuCqCztS1oS4j2XEii3KECAKJFP4T0d+lhIRtkCNAhl7wqIwEAHbZ3Tn8xgJ2N2IeeCE7fnWegse+jPCkamT499X1aD9rmhHIjqGsOJnE7xP9nUpIcCMYRlnRBKDZdY/mcCylqDoBJ9BkxzMcyo6vfQQV3ssvnkY4EDL+uTlNyrp4Gq1l5Af64uncd0R/rxISXDAkABsJOmgN7hUBaHb3cwiv2+r8WOBEdgzOTr+P+14wjgQGf16VHUM08C6rrDiRwX8n+vuVkDBFMIR66MVtJ0NfFfaeAMCgrPjpAFKlw06x72Aeh9v5SeCKMaXv4dW32CQwmB+wlh0nFuOPiP6eJSQMQXayRZVIAJpdPmawrNipRNmO7PiOiajk95tFAXqb2YB2NnUrPYxuRPtgmpGUHUtUHCqdADS7/rEcXrjI+bEACGTJ2jyuNpEdv1yD1IIl/e+9+cmcraNETQz1smTH5M9XJNL4S6K/cwmJAoJhtLiEAGz4WdDg7OynPfwSwtv2uJMdt2TZ+YHHX0Vq6K/9vp+Ot0cAg4Zyb7ei5GDDEeP8QCyLPyX6u5eQgAhgCb2A7WThjZJnfpsmOwaNgFOYyY7HT1Pwjx5G+Hv35/DzM/mOAIb5gTA6GulA7QzZ8WkpO5YQjuFIAJr94IGcOpLMjnZBj0JZcaMzB+e1WQ1oWyytsGTHe6TsWEIYgiG01A0BTK8TRwCa3foUwotWOz8WnC2b7FhZFE8by46bs2hxLIX/R/R6kBhlIOfVZfRCtYOGpFJ0ZhZpUFa854BzIjh8FOOmbn9JQJMdxw1kx9o0o/ZF+OOi14XEKIFbAgBs2pnH979QeoUmwi67a7CsGIqBnKIssuMIOlCfVDoMZcdZVXMgZccS/iMQQsvdEgAAjg3Q/eeGx8WTANgPXcqOoax41aY8Ob/7SwRzmlAfiQZYsuPNUnYs4SuCIbTCCwLQAG28oHDnu/eIJwGwO59BeM1md7Jjv6cZqfkBkB1n0B6G7Li9NYs/L3qtSIxAeE0AGkCmC1d1lZQf2O9Wduz3NKMwOg2y4/hg5yFD2XFjEv+x6DUjMYIQCKPe4iSVNwSgAcLoO56ujPzA5SQqgcpFN7JjKCt+K+4vEVTXo30s2TH5swE5zUjCM/hNAADID0AZ79UPiycBMJAdw/txLDvOuZMd28gPMGXHzRm0oTmbu1T0+pEY5giE0Eq/CUDDydOD2oHv3C2eBMDumYTw+m3llR3bt8I0I6bsOJbGfyt6HUkMUwRDaFVR+OkjAWiAu3o4k4smADCtrHjAxTSj/oN5HLIhO3aYH1BlxyT8P2cQDZyXsmMJRyghgKj/BKABwuifTagMIrjiXm9kxzV+TztuUHaYyI77QXY8HuP3il5XEsMEgTBa7YYA4NrPDeC+He7rv3+/eBIAcys7PschO/bC5oLsOI02M8qKl8V78BdFry2JYQASAaxxQwD1HXlc25LHJ0459hkVx8m/hwq+b98pngTAoDmoK9nxCUwc0edpRiGUW9CKUkayY/UGIaPUtqXxJ0WvMYkKBk0AM2wSQLQ9j3/5Sh6Pn5rH7WTndKrM07B1dx4/+OvKOBZo+YFjPsmOvbLqKDoC04zUWgEj2XFWmZBM4g+KXmsSFYhACK0tIoB6ZwSg2eTqPO7d4NxhNIC676ZxlUEEw0V2PLtB2daUQssY+YHdIDsWvd4kKgyBMFrnhgAibcUEoFlVKI/3H3LmMBrgPA2O9737xJMA2G1PIfV87xRlkx3H0FJyBNjFIIJkSxr/q+h1J1EhoAlgpkcEADbu1cH8gBtlHgBkujBYtFLKimHa8c59zongEPk8jT7LjoMRdB5kx4k0OsGSHbdm8Z+KXn8SghEMo/V+EYBmT7+Zx13LsK2BI0bYuGMEyo5dTjOyshlR5UBDEqWMZMfkz46SiOCx2nX4/aLXoYQgBEJogxsCCC+0JgDNXp6dxxu3O3cYgCY7hus60SQANmxkx43K+lgarWZcG25qyeauEL0WJQSghAAa/CMAzWaE864GfgDOnqss2fFdz7qTHZejrHhomlEPORbsZZQVtzWn8edEr0mJMoIcAfr0i2SWTQIIOSAAsCen5HFTMq86shtosmPRBKAZlDgfOOxOdlxfBtmxWlacQWdY04zaluOPil6bEmVAIIw2iiAAzZ6ZlsfZXmxrFoERVm6sPNnxGRfkVg7Z8Qxz2fFhKTseBXBLAHWt7ghAs9fn5fGOvc4dBlBpsuMfeyU79rmseHYTWkEcfg1Ddtwby+KviF6nEj6BnAs3FS0GQQSg2Zz6PD7iQpkH0GTHl1WI7HjMJIQ3uJAdHz+Jcftin2XHkUHZcTyDDrJkx63d+G9Er1cJjxEMo81FBNAolgDAfvV6Hrek846VeRp2H8jjca9VxrHAC9kxlBWHfC4rroqgY5FOBfQFF4zLitH1oteshIdwSwBQ6OM1AWj2fNVgWbHL9IAaRt8+vjKIQJMdX3BaVkweRt/2csiO0Y6mlFJSVgz5AllSPIJQyQSg2Rvz83j3PmcOo6HSZMc3P4nUeganODdUVlztc1nx/FYlTd8WEBI4JbsQjRAEwmiL/gufU4EEADbulZEpO37kNwhv3+ucCGBAanPG3/xATRNaSSsNExllqui1K+EBgiG0tYgAmuwRwDvN5SEAzQqyY5dlxXDNVimy40sJGYHWwY3sGMqKF/g4zSjSoSSpKOAYlgNNhz9IBLBtOBGAZi/NyuM1m507jAaQHd/4S/EkAHbVUFkxclhWXJAd+1BWXBVBJ0kUUCQsaunGfyV6/Uq4BE0ANcOEADSbGcm72jkBmuz4ynvFkwDYbb9yJzuGuQepXu9lxw3dSrqIAKSsePiDEMB2NwSwQDABgK3Z5NhXigAy3UqbZgQdh918nsYu7wgAphbpCSDeg/9Z9PqVcIlgCO1wRQCJCiAAD44CevTtyON7J1dGfkCTHbuZZrRtbx6/7YHseH4LKooA5LzCEQASAewsIoCYPQKYXwEEsNZjAgBoZcXXjhVPAmDXPpLDsZTivKwYDdZDzHQxzUgSwAgETQBzhyMBbGG/P7ciI012XCnTjO56DpHPK0Z2/E6rkioqDJLS4eGPYBjtckUA8comgGgfObuuV/BZl92K+9/N46cDlXEsgBwFvJcDh51/HujHYFd2LAlgBMItAbxdAQSwzoQAwPnviefwuPYczuxyHkJrWNmXxz+fWBlEcPmYwbLicy6nGc3lLCuGGQRFtQAp/E+i16+ESwRCaLf+SwYNuh0MFwLQ7IUMwluPuGMBuKeH8/iPKkR2rE0zckpuFzhlx++0FBNAbBH+R9HrV8IlCAHscUMAoOF/taZyCaCWIgCwMcSqexEecNmtGGTHkKG/tELKih96CamDVZzimIXsWBLACIRbAgDAzgOqvecCYghg/Vb2e2vcWEoAmj3YksMtWxR8weU81N37K0927KanAmuaEU0ALVn8WdHrV8IlgmG01y0BaIAWWKDjf/K1yiEA2A9795H31GFMAmBPkL9bvDfvWnYMZcU3P1EZRBAMuWM1EBmVEMBCpbu4PwD+B9HrV8IlSATQr/+S5yXcjwc/dATj2dHyEcCGbdbv6TzCOL5ZwQ80s4ng1UUI7znujgY02bHoaUbQEckNJAGMEvhBABq27ML4lTmVQQAajpzFeM4qxCSBMYmc+vcnXHYrHjg2OM1IlOzYLQHAEcKKAOIp/Pei16+ESwRDaJ9fBACAjDl0/Z34pn8E0GeDADRsOpzHk1JsIhi7MIcXblVwzuXj2Lwzjx94sfzHAmgU4gbGBICKCGDhIvwZ0etXwiWCYbTfTwLQALXsMAfgiVd9IACH04YgeQln/8fa2MeCCV0Ir33X3bFAm2ZUTtmxJAAJLtAEAKIRP9H/LsaB2vIRwDGOUP70BYzrNyr4PpP8wGtLEN530h0RQBuvcsmO4U7fDYwIoLalmABaevCnRa9fCZegewL6TQAaIGx/cYY3BGA2b3D+WoXbeQ+cyuM3l7KPBfclcvht8nonz7v77No0Iz9lx24JYMCIAKgcQCKD/070+pVwiUBYadR/yTAbcEe/2wsxPkAFGkwNhjZffhKA5rxQFXiGo2x246E8fqabTQSPLMzh5A7FtdAIuvuOed6f/IAfBPAOFQFIAhgBqKpDNxlVfcVSeTWTXQ7A4Ato+DnOIQFs2sF+7bfXKo6cF5G/h58b28o+FgBJbHDRsAOgyY6v8Vh2bHfKMw347ksigFalqCGI7Aw8AlBbi99PdwbWDFpKgXTUzYw7O9izH+M3F3hMAGuMKwGfTyO8ecDaeU+dH9QT3JtgE8G0ZQgfPu2OCM54LDue5ZIADhsRAJUElJOCRggCYfxfhATOs2rAYWHCDHulDOkBtXJvA8aTgt4QQGa3eXKPVxOw+1ge/2aRSX6gOeeJ7HivR7JjPwigrq04ApAEMAwxHuP3tqRzlySyyrRERonBTHhiM99pVSYEw+igqRpsoaLWvZcDMBYM2n8/xVFWvHmn+WsdJLszOLoXzruGOOivOtmEMq7DG9lxb18e/2yCcyKwO+ORhiEBUEeA5kX4r0WvZwkbaMnkvt6cQasNp8CqZzo0UNOIukk0gMyIIJ52P8CTeyEeJWF8zB0BaIDin+dMin94nfcCwmqR0EMtbCIA2fE2r2THDzkgAJsDXmjAc7eqA4hl8adEr2kJDiQW478ku3wNy/Fpi3aivuoIWm1GAtVRRR1N5XaAJy+27sZ4ylx3BACA5B84uVnxz4ucznt0qKx4DKuseOiIccSl7PiEg2lGbgngkAEB1LYWdwWWBFDhaFyOP0S+qAmJLDrL6/x6q12IltJqQdqgizAMo3Ab8vIAchBL1mD87PRiAgDNgV1A8Y9Zcs+O8+48mse/zrIjC5AdgxDJrex41748fnwK37HA7og3GoYEQLUFb0vjT4pe4xIMJNK5K0m4v9OJ41MjoE6/FUddgRA6ZUYEkQ4F7z/kboHzAjLmalnxFOcEoOHAyTx+w6T4h9d5gf+grPiX7ezI4skh2bFbgOz4J+PMicAPAqCTgHIyUAWiuQf/O9nxU24dn7amFNo3s1HJECLImxFBS08enzjteo1z4eAAxrOi5gTQdyjPndwbn2QTAa/zarLj+01uHqYsRnjvCZey45y57NjufAcaUK1YSgBIEkClom0J/iNyzp/SnEXIiYMHFuzAVXW7rfMDSbSuKoLWmpEAFKHAaKsLLq/EeGE2KHTuagU/2mav+Odhk+IfXue1unkoyI5dlhVDsg5kx3RZ8VwfCIA+AkBuSfS6H/VYvhz/DnH6+2Faq6Nzfssx/Itx9fj/vv+caj99NIwXJI6Y/7s0Ut5ZqGSsrg1BWQhdZ0WiZvVFJ4Tiny0cxT8gIIIKQmZ+wIbzWt08PDIkO3Y6ELTwe3bm8f0vIF8JgL4GbOrBfyF6/Y9qJLK5b5Jwf52jkL77PH7y5Sz+yo9+jf/3e88V2Zd/9CJ+7IVu9WfMXiOWRqfmxlBXMITOmRFBtFNR+9CLQI1B8w+1cu+MNRGoxT897p2X5+Zhooey4xsez9lu707DMAKgbgEkAQgCyDCbM0qt0/P8lJpN+LKfTC1xfNq+feNr+IXAakyOFqav19Ct7CBhf48ZCYBBWbGbGXdOYEQAYA+05FQJMG9+4CmT4p+nOZ3X6uYBDJSL+13KjiFJum2Pu9cAwqa/v1C7ktR/7wsz+M9F+8KoQmsr/j3y4CeQkP+cE8efU38AX3vPXEvHp+26MXPx7Og+y9cPt6PeIENXUMgPNChqD3q3IS8vwDGfMGkICsm95f3WDUHPcxT/8Dqv1c1DQblYphyKEQwJgMoBNHfjT4j2iVEB8n28J96Dbm7OoP1Od301gdd5Bj/0bBv+4lWTbZPAl374Ag7W7rL8HfEsyi1oQalACA2YEcGCVkWdWlsOFBqCmjgvFP9s96D4x47zWt088CYv/QBPBCAJoAyIZ/B/knN+jxOHj6dzeMJrS/D3f1aNX56xvvDnbzUdUpN9vM5/w33z8JyGAzZ/NzoCZcXBEMqZEYEqOy5TWTFP5R78/XEO9eMOi+IfL28eIHm5lSN56SUOGBAAfQ0YW4L/TLR/jFgAu5JzfoDs+ooT53/z7e34e7dXFTnyj34xC1eH9lz8mXnwM0Gm419+67Qi4tBsVnQ/vv3RCH597hbL99HQpWybGVWWmZYVRxSc6s2rk3jLASvn5S7+Geop+LhJ8Q+v82o3D2OsZMccyUsvAINHS5KAVAQgCcAHaNd6xPGPO3H8BS1H1Ws9llP/3/cnqX9ft/BEIUp49o0V+BvXvVL4ma8M3QLEUheKXjvScQrfP7FVfQ270QGUFdNzCGmD6jUoKy5HyMvjvBNIeA5DRaxwjqP4h9d5d1ncPGjJy3MmtQ9ewIgAQguLCaB9Ef64aH8ZUVDLd7NoqxPHb+w6pzotnNV5wnq4/tM7ebj9JB7zqwS+88kmXNd6ouQoQZOE3r74g+fxPb+Kq69h+j7T6PzbCfVYcMKMCGpBdnygPDsdj/NC8U8/T/HPKfPiH17n1aYZmd08eDXNiAVDAqCOAK1Z/KeifWZEACaskAcad+L4aihGHPT6+96yndhTw/xbpuEpNZvZR4n5O0qOEiz7+rW/weOnLAH9gMX7VQ7MakSpYBgpVmXFx0/5tMIpWDnvvTYagm60KP7hdV6u5GWWL3lpF/s5IgBJAC4RTeKPkXP+ZBLun3fi+DPD/aahvB0DAoFrQv3rP/D0QkevBUnH6YQ4rN5/fVLZUBVBa0zzA2WWHUNDUKvKPZ7kHq/s2IubBzvJS16AsKv0FgAVEUAihf9EtA8NS4zH+L1wrUd2ynedOH64/eJZnD6va+f0L5Cw3K7jfoEK5aEScNxLGcNqQTOD93XnE42WlYTqIsqgPAn5e6xkxzC0FLrolkN2jDicF4p/1nE0BOWRHfM6L/QwhKSi2+QlDwwJoKM4AmhM4j8W7UvDDoke/NVEFq1yGupDiP21a14qcbrv3vJmUcZ+dnQ/vn6M/aIfsO/c/AYOt108z9cuPK4Sgz75x7If3jHTsF4AIhQLIjgNZcWBMDprRgSq7Piw+wXOAy8r9+BnpnogO+aJLGCa0c5j7phyH0cEIAnABqBuGrrywI7nxPnfmLcNX3lbgDOU31/4d1D2Cw7Nt3M/N3hDQCUBNZsR3ouvuXuO4b+95Pop6hGEPv9rtxKX3GD897TZkR2fLJPs2Mp5teIfL2THXt08dGx3FwYYEsDCYgIABapov6p41Pbg3yU7/mPETjpxfCjaufmhBa5CeTgeQOTwVYPIobBz/2ImrqotlQNPJcRz91Mx/HZiYGinVtRI49KbXlf/HdwAwJGjvvNM0b9j3UqwIgTaIu1oVVUYbTItKy6z7NjKeR/jLf5R+GTHbm4eOn0ggDBVB9DSg/9QtH9VNOBaj+x4O5w4vp4A7FTt6U3Lymvht1Eoz9qZ6XoCKB/WO3pD11n81CuL8Nvxw1QoP0QQJmKjguy4+aj5569A2TGP807OlBb/TJ/bhc+cLb5COHbWvPjH1s0DlbyE9+gG+w7mDQigOAKQBMBALIP/X3OmuIMqr4EjTpq2Et82tg7XNL5bdAQwq9ozsytum45fn7u18FpQDQiioLGTOlVH5tm5rQgDDG4lrr27hvt98cqO42l0rKbJWnZcnyyf7NjKecH0xT/X3jkNX/WzqXjF2tIOplD887KF7Ji3rFjLD7glgH4DAqBzALE0/gPRvlZRAEZ005VnRmgvvvrO2aWh/FBCLubyqg+OEm/HBxjEUxzacyX73rkYyofaTqjXf07eF+QoIFdh9Xwau9GO6ig0KmWTQLmnGVk574NDxT8/HTu7EP1MfiNBooHie02t+OdJC9nxeo6bB4gY9hx3FxEZEUCYugWAa2zRPlcRSCbx+8gZ/w7i+IecOH5t6/FCVx4jB/natS8XhfJGJbm8Rofy2q7v5MZASxrC+9eiF+gf8M0fv+qAmA5zP69QB1oRjJjLjmeVUXbM47xX3De/6DP/+O4A3rB5X8lrFYp/LMqKD7kcRWYFQwKgIgBJAATxbO4bJNxf48TxteTcV67mu2cfDOUvCnDmkiPCjfe/7WjXpbP28xNH8E8fCTkilHEvpYs+V33nafzwpA5L2TFUIb5mICiC3gNQ62BxLLiglhWH0TEzInhHhOzYwHkvH1uqz/jiVc/jN+Z04gsGTQ2PDBX/eHHz4AQwoqw0AqBuAZbjj4r2P2GAjqh2hm3Q1pA8i3/wc2ch861j64pCeTtXfSWh/M9nFIXyUMHHG8ob7dz67kFvxQ7hmx8svcH46jUvq+3IaLGRvsCJ9TMGRHCk0qYZGTnv959oYT7HG+4N4k3bDhi+1ubDeTzJpPiH9+bBLowIgC4ESizGHxHth2WH22EbcJ2mhfJwTcdbYKM3yAE8P32Vq2iCDuX1zUC1UP5b1xuH8pffOt1QCqwlAX98z1xVMqz9uZrA/GmwoESEfEHRezcpcLLSKlwkVLStOoqWm5YVa7Jjl514eaF33h8+0236HXxpKBrIGZxZCspFk+If9ebBQ02AIQHQpcCjiQDIM3lPcw+6hjj+LieOH+04XSjRdRrK0/f7eufXdl7o8nvHL9n5BDO764nGouw+Hcrz7NwXSV9YzlUAACAASURBVKXY2eHfQERAPxeNHKzeG8iO9bciLBuaZmQuO24qv+z4Jy8v4foObh87C+/cY1zqeOYCVhOKZtOOveoZYHwEKI4A6jP490X7ZVnQmsb/Qc75GSeOr+2m3/hxaeaeDqHNQvnr7y2u8KP/DYTygXd2Fv5crdq7y7hqj7YrbgvgqW9tY36GuY0H1eu6EuIx2bmtwn0n9Q1a0VGUKjoqsSHZMTkWnDQjgnLKjmOd67g/51eufgHXhHoIQRm/t/0c04w2HHL3ufYcsCaAZBJ/WLRv+gqodXZzrTdtwXZynjaX0tKVdHTV3qU3vq4SCP3abzUdxDc9UJxZLg3lza/2WPJdyOpDpAE3A/pQ3snOXRTKz7kYys+K7HPUoBQMEpjzYta3Bk0pxC07PuGz7Hhx7zbbn/OhiQsMjwQaoPjn2W5jIkjtcnf9MaoJwG1XnneGhm3YXdT6rDyE8s+92Vuyc8JRwirDThfYNCSLi3vMjhJ0HoHuIAQGkQbs7E6cF5KCsPsXRTA/4U9g0m3NeCzaiTZUC5Ydw5Wfnef03fsW4MiKI9w9BcdSlYlpHwggQhEAdKkW7aueo7kn9y3i/OudOL7TRa03Vk2+kzt2uq8/3Bzc/8xCwxZeVjcJdCjvpBaBlQQsDCkxSWBewphRAHmFh59rtywr1smO+82IwC/Z8d79R7me0ZfJ93vrzF0Xi3+6+Yp/Tp0vVi66JYDdhhEApQZcjj8k2l89w8JF+DNkccXcOL7RbmomwDHdKR9aUDSiC67noAzXyWtBX384Mhi9T6OjhJnRoTxvApM1WwBuDgpRT2upVgGiFoh46JJlLarRIqHCzyXPmn4v8bRyild2fMBD2fHJU2f5njH57LfV7HNc/AMVgK8sQj4RANUPYCQQAJxjml0M27AyO1r6kt2AhPL6xW+375/2Gqx6e0hAfusGe1V7mv2EkIaeVFhRD3Pn1qkcoR4ChpNqfwdqQYiEjOYUwuuoV5SM9836faUErfSD7NiMBMDaF3sjO4aIAgp/eJ7tJXfONS7+aeYv/jnt8ijDQwCgdBXtv46Bh4ZtkN3ngB+OT9uMSD9TS29ldChv1fkXjKW4g90WhEGxoVoE3qo92iBBSN9K6HMIvDu33tRbkYSxVkF9huG9+Oq7ZnO9P9ZRirZQB1rJIztWy4pdduK97CZ+DccvguuZWf5x7TlV9ONnd6Td+61Lgcnm+UHRfuwIiSz+L7LjLyqH49O7l5VU1szoBBjcMvzA4JbhqjuKrwQ1g2OE9vN0z39W1R5trFsJ2Km1UB6SoKXEY75za2YUysPr3v1kzHZtA0RdUNvAanBSME12HEKHzIjArez42rumq+/rnifewstW78DfvuE3zPd+1c/fwIm+86ay4xfIc9nmQ0NQwC4DAqCTgMOOAGCYoZuuPF6Zk1Bev6j1WXl9cvAb1xlf672jGwFOv57a11/XDJR1vcc6SuhvJQbrCbaWfF5V5ci5c2tGy47huHLL2FpHxAmtzq06EYHFM4Oy40AYnTcjgqaUgg8fs+9UE19pwF2LNhb+vy62zPR9z67NcjUEhYYgA2c89H5sTADhTqoUOIE/INqnuVC7Dr9fvdbLohMiHZ82M8e0MrqvPziiUVce1ghwvZV0ENIV+JgdJVi3ErTseDL5ObjmdOK80OJMTzpvqloFvjblUHFpREiWBN2NdsyIKr7LjhUlj2+8l/1Zvn7tr/GhgZPqz0KPv5csZMdqT0GPBoYYEgB1CwB+Jdq3LTE0bGObaGc3M1Yoz2PQutvoNXlHgBcvuOIIAqIM2L3p19YfJVimyY61UJ6uReAxVk7ArLoSjJZPFxbsUEIWop7ZjAInvYHsuCqMtpoRwexGBa/a5Fx2DEcBs2cw8ZXGws9CsA9lxb80mWbk1cCQnfsMjgBUBFDRBNCSxZ8l4X6zaOfmNSsBDm1whtdfx5USwGb1ys4Jqdx4/zxDFZ6TiIUO5XkSmMyjRKRfdWx91KNPYNINVDTTIhr9lSzrZ2nTyY6PmxEByI5h13SCR5+rYz4LeNar1u8u+nm4BYj2mU8zWtrvjgKMCICOAKBgTrSflwDaFEH5biKLcqKd2olZZeVZc/tgIcOChkIfeA39wjer1S/atS1q7V+dtZG7YxBtoEvQVx4ahfKs0mRabEQnIqGwacz4RMlgk0EihAKnN5nvC6IFHtkxOfcP+CU73rPvCP7yj4y/769e/QJuWLjS8N8dPM2eZrRoj7s6AMMIgEoCVhQBjB8atkHC/YOindgLo7sBF1p2L7Se20c3AzVS69FmpLaDzP1LM9bhRyd3qSG86ggcVXu0sW4ltKgHogTD0mQLArteLS4yDuWhRuEndgqcbp1u2JyEtoZOpa86ilZ5XVY8dXZHyc4/7oUI7j9w1PLfbgLZMTXNyA8CiHYUzwaETlii/V5Fczr3teYMWi3aaf0wWJTQqQfCX/rvrMZ7081AjQQ4rKMEVO3pf5YO5Ws5jgOsWwlIKMJrabuuUYaeV2yk3YroQ3moTgQSdBKp3PpwLVd7MpAdV4XQHjMi0GTHPPf1p8+cx1fcMpgove3hmSVhvxXogSGL97g7Auzot44Aamvxbwt1/MRi/JduuvIMVwMlnB0pLZ2Vf2nGejX8hrbeMSpRZlXjT/f1N7riYx0lCtHD0K2EUU0BRAE89Qi0gcNPfH2prajHblRBWyKNzrwVV68NTWXH4XZF7bNvhY5sH25Lr3dV4HN6qGfAMpc5ACMCCFMRgDAC0LrykF3/jGhnLLdV1e12VD8A/+aR50vbgGtmZ7gofTWoL/JR6woYYiPWrQTtdPCzEJnY/YyQ2Hv69WVFvxe0BtdxtCpnFji1HLWeZtSN9vNOM/JbdqzB7S2AEQHQR4Dx5NhddudXr/UyaKdoRxRpEJ5f53Dun9EILwjn7Wj7NYOd/ImXM4V7eqNE2qBYaB4HqVAdhGwmMI1Kk3kIiFXgpE/GQg5jukEOg7ZoEq2viqC1PPmBck0zcgrDIwB1DUjwnvI5fhb/WyKLUqKdr5LMleyY6uuvCnDIn9l9Hbha+3X1upL3Bg7lRAQFWfkJr/EnMNkNUw6p5/mHnm0vFEjRRxBacQlmVeA0n/p52qDKFMqKCRG8a0YE5Zx27ATb91pHALgcBAADCN105Rnp5kkzUINQnuffmg0SBZtqs2uQ3h56tq3otSCBqQ/lWTu3kdiITkZCWA9HKfr9gs4C9BZm74tWaLKMV3Yc7fRWduwVjAiAzgH46vhaVx7ypR0T7WTDwYy09Lxm1UGoJHpgKO3efHuwolEfyhdyC4yqPdpokZLetGtJGFYKxxb676zIixXK89xo0MYrO27sQjtn1kMjEjYJgHklO/YKRgRAHwF8c/5ENvdNEu6vE+1Uw9EgK8/bDJQVTrNkx6y5gHBtRt9K0B2E9F2RjX43s8BpqHX6Q8+1MQuU7DRANQrlX6xaw12BSRtclVoNMQGLdKDeqjDabEYCMxu8kR17gW2GRwClEAHAUcdzx2/uxp8gL94o2omGu9md80ebUV//X/46ZXuQqLqjU3396Q5ErKOE0a2EUV3ByzM3OI56Hn+xW/0M8DpmfQrMIgqjAieWxbMoN79Z6QyG/ZUde0IAewwIIOkjAUBVkdtefNKKzYkA56JjGvfvc0ow9PUglBWDvNdIbARHie/dzhYb0R2EwAnBGe1+RiiwgihH/7t5aiyYBU7ktZ6bVtrIlbZYGg3MaVSSwRDKmRFBLJXHAw5kx/4RgC4HkEGKpwQQ6sKfEe0wI9V4BDgsM+rrD/JeVihvZrC7moXydt+nXi1oJ4FJV0hqBscUMxLiLXD67i1vMvMYemtIos3VUbTEjATKPe3YjADqdUcASMp7SgDBOvw5kF+KdpaRbHa09LTRzUDt1trrHYjuWwAG15BOC5wgyuEJ5a1kwkBq+uOIPoEJfQmY3ZQZV7HqvzGpTdAs1I6yJBowlR3PGZIdK2WYdgzYanEE8IUAyEM4R84/yXjG2dw9adbmdIS3ZnQoD/mBK28L8O3WBoNE9ePC7CbzNINSZFoJqA/ljfQCYEYyYTA6IamRi95gWpKbcW4lliFrP47aAyF0wowI3MiObRHAbvMjAKhtPSWA6jD+vPaLyEPoh2IK0c4yko1nwIjVTq6FwqbDPRmDRPVNUunGH7zNTFi3EnqHBYIy2oXhz6+wIC6jUB4iDJAeOxno+szU5ZZlxZAfqIRpx8YEUJQEvOApAQSi+J9LyiYjaGV9Em0S7Swj2ZyE8hcXdXEyTF+1x9LZsyr76GagZu3MWEcJ7VYCMvysIiUnn5cO5V+Z1ed4HDtUJvJ8L9FO1EfW/2qesmI/phltMY4Aun0jgKo6/C/GHxQpILSIpdAh0c4yko03lDcyOisPWgUng0S1XV1fi0AX6bCOEka3El+hCpyAqB54ml2LYBX1QPs1jexYxwc70QSP8ciOa2zIjr0iAHJkOV8mAigQwTGQXsLkV9HOUkkWSym4ro2cDReqIRr5Yly8lk0BDm2sHn5OyIWuNoQKPngd+rVB7XethdqPdj6705DAoDbCSCZsNfiFXeB0Ct87oRmPncRWaF4kOHRalR2H0CkzHwl38MmOPSGALDrnLQFE8D+aE0CBCLaG2tAS0Y4n2uLE0ee3kOcRKX4+sxoVXJ9099pOtfRgdCgPC18Ly+2+Fvz+B59pMyy3dfIe6RHrVu3CwLShLPTvB5Uj3Kpo/08PfinoLKg6A6PSaCOFppE1pWzIjl2WFW/ZVWYCgOYCxLmX8ZEAeeBRZVFDStks2hHLbpnBBhPk85s+n7mxwf71bn4XLcCxY1ahPI/zswqRwB5/MeUogQnh/30TWy5KmBmhPI9MuBD1DB1J1FqE4Bo1x2A0wdjqGvaHP59RpNBkGSH4dVayY5hmtGStc9nxZgsCSGTRWU8JADArij9GftEMq3nuhduCMDo/p0npiKWcjfEebgY7++wGPoIEgyISiBKsBCtW5qTFOCuUB8e4+k7zISHQ62CWQbgNJcWvzN5Y+H+Q/NrpjATG6v0HOQstojCTCRtpBszqG8DsFDgVIgcL2XFhmlEYHTRbA07Lio0IoCGp6HMAZzwnAA2BMP534twp3oVOHsIAtG4eqZJhOOfDF8n/PEqiJTVqcPMe6Go3e6F8cTjMqtrjGSSqhfL687hVb0Qwo4pGMGiyqlcIGt3X88iEWaE87PpOCpwgdzDupbThUFe9abJjqKExWwOq7HhgmBCAhumh3JXkg+3g3/FQX6RTWSXaYb0ycITahXAd6tz59QZDLOq73L0nJ9JZ/aI2kh3DlaHdQaJ0X39WSzPWUYJOeBrdLsBn/dljEduftSSBqYb+1bafF5COUatzI2voVnbwyI6hrPj0WWsC2LTTkgBO+04AgJdr8e+SHf6xoEXjRb1VR5WljSllt2gHdmOEyNRznBeOTxt0o4ml3b0/J/P+NKO7+NCluYUIgUOiS9cbaE1NgSDoYaqasToO06H8IAF1ORZTgVLx4mfiH/zCSgpaiYzAwu2ol/jKFrPvn0d2bEgAXYq+DuBUWQhAw7Ra/BfkTdRYZUB1x4IzMOgxnkYnRTuzHWvsGmwn7YfjF0dL5Gza6i4/AAt00rSVjrX0IAyiXxPKjJ20JgOH1l8TvkM1DAGjjxK8Dmh3IhLURbB6CEKUw4pqWLkEresTRCtGsyFoA9nxghaUIr4yYLYG4PsH3T8vAdR3XmzJV3YC0FAVwf9NPtgi/sWO9kOyRPREYCsjZzk8v9l/x6fNi/yAXdkxawKQuti10Jzs7HZJAH4/qPjo1wSHghZjdm8NjBKYZrkA1ueC3AeMN9dHBHQCEzQWc6nBLGBGYiNWPqN0TaEjUFbMJTs+bpMAsuikEAIAkPf3HuLYN4Nz8+94aH2kE60V7ei0JYiF2rw75zs1qCZrdJkfsNLSGwljtN0NqvhYoTyPs7KKkMAg5wDdi50mMCfqWo0bhfIXP9epkt9LT1G6Tm2Bvq/wM6CTmPrWtpL3DGKjmx4wFxtZzYcsEHSXsm1mVDG9Yof1l+rN47NDsuONO4xyAPqmvOiEMALQUFODfy8QViZYZUA1g+MDFFI0daN3RTs+GGRmZ9m41vPdIoO3DW7zA0Za+sEinOKE1mAhzhvUoi6+prNyBNYgUSOzqtorOQqY9P0DIRQUKcGdP+/OfZFUJjFDeavWaUbGmsVQ+vnRUuIDu83WAMiOoawYOhaXEIAuB1ARBKChqhZ/OhhSankXeiCM1KsTUbLjpu7BRJxwhzfZDeD2wU1ZMST2Jr62VD3PvzpnU9HfDZbimu9u9KxCumrP7BhhZXTVntFRwuhWAo4SY8mfv2RS088rEwaDiIQuE4bSYCcVmJpWwTJRmEbn1WnHFrLjmQYbU0NSuRgBZNBx0X5fgul1uW+SD7aGf8dDO8lC7ymX4yfSg4mXKsHhPq/BIoAoxavPb3d3o2XHWiiv/pmue4+j70ITEFEFTkZHCaO6BcgF0K3FJ7y62JHzlkY973KTSOE1bpnGNdxUMxLlHZjVCLU2fEV3KgF0K/ok4DHR/m6I8Un8vqoQuiNgUSGlN+KQvYTdfJUd85TvVqqpZcXdLsmP7NS326za0wzO23Db4GS3tzJIYD7yfFJ16Om62n7NzK476VDeTQITpifRDUuMjki0sRKCkEMxmn1AW31S2VAV4ds0KQIYEO3rpiDHgj8kx4IpVhnQgpGfA0aMpdBhrxdZqF28E7s2uDZsGbytcPMseAQ4tMHPO5HSujE7cxboUN5OApMlEy7IjhmDX1h5BC1JqYmNzJKjun+Th0iYRAN7eQmgOYsWifZxLgRC+LOECBLcCz2EjnotOybRxbAJ+61sRv3grYUXsmMrLT1LkAMORqvsvDS4rnNyY0C3QDdLYNJVkZppxyRo2abPcegJiVXgNG3BdkOxEVx/wmtqCk0mEaSV0zVxlGJNM2roUtLqz2XRvkQa/69o37aFobJi08aLegtE0Haycy/1alFVeuLPrs32QHbMysrTI8vo3Q2cg5Woc0fUZwu/x840I72BA9I7rj6UtyMTBqNvOWDMO30roRUqWb03Vgs12hq70X5C9Evp77wppSwjxD+5PoN/X7Q/O0IggH8nEEL3EyI4zrvQq6PKioYk2ubVIgOnqairP5fmhexY39SDJYmF8/kPDHY33hFdZqY1CKGbd9DSXzPTbiXosuaLG8B5/KtXFzmSCRdC+XgxsfAMZjEyKHCCLsxWzyXSnltVFUHLoFFpdb0yt6UHf1q0D3uCQBh/IhBWAvwZUHShpknJxDwqKy4U/wzTpCBtmuw47qqsWFGTVvTuxFuGa5SVtzJWY9SSDkIxdgkxLUrSTDvmQC0AixjszkHQQvmCVoFEP3Bt6FSrMPH1pRzPCSHy3UyPJvHHRPut56iK4v8g0UCad6FDbfX8ZmUxTEXxggjUrj7NZOFXgBN7YZAfcFtWrN/d7MqPeSYWD5INX2v0wWagxS3Q9SKi68fMNew4rMqTKbERPYwEPh9UBdp1XC3qmRxYw5zhaGWgmLRdQ5FBGxqX4w+J9lnPAWXFVXXoJqsMqN6qw2hDpENZ48VCVxdD92AprmgH9sogP9DgsqwYdn67zT40g+SiPhmnN9ZRgmV0+TLs7HDfD52B6dfmGSumD+XdznCEIit9KA9JQLPPZtW4xMoSmdx3RfurbxgqK34GVISc0UB+VgPKNqXQPq+IwE8JsAhTy4pd5gd4m3Fc3N3YFYJwpnfeAv0Vw96AYHYHi9KhvNOzvBb16BOmrOiGrqy0a9B1qyaBrxTtp75jWhT/tZ2yYnKEOF0TV5KJNDrjBQl43QREtBVkx66eibWWnjW3D5wLkm/6xc/qB2DpZAZtugYLnCKOSIXum6iF8k6ardBXppDfgBbo0CnJaA6iHWvoQhvJxrixKpL7oWj/LBsCEfxVssuvtEEE+7yUHYMgZ54AebBfBmXF0Lba3UI01tKzdjd9L0M6WRdjdBCijXcEuJn4xzKUp24+rEJ5M6ObrbgxTU58cUpR7irRfllWjB+P3wuyY0IEB/h3PLSuvlPxTHbc0D2o0BLtwF4ZNDtpdFlWrGnpWXJYkNtee49xgo2+rtOq9uhaBLOjBJO0GVV7TqIM+L3PvLHckqBKX2cSvvupmGXRj6njMxqKBEK5H4j2SSGYWos/bEd2rE0zakqjg14RAeyeM0ZIfgBuPSC6cVtWTDsny5mNbDArXyrAYR0l7JidMmKrUN5OLYKTq1DaIh2otyqMNht+d5Hc90X7olBMC+HP2JIdh4Zkx1l0zgsSGG5qQisDcZSb2gG9PT99lSMRzq1j64oKbKzabdkxp9OOwb5NFTiZ1SLQuQQnFksp/bBpmX5no50ANAQiue+QXb6Pe7GH0I66NpT2amFB5d1IKCsGInNbRagZnO2d7rpQhedWXswkbZdXfTCSTD8jQZ/A5K3xt9hUTpNNKs0T3UI5vWjfqxioZcVh9CDZ5Y/a2PGWNnQjz6YZDeeyYi9qBYzMjpaeNbfPD7PbN5E+1+tbm8P7fe7NXkuVnzkxoXxtK1rCm9+CJjrV9fjPRftdxWFGLf4TciyYbjXP/aKhC3OalPZ4xiPZMeeosEoxeJ9u1YQ8ZqalZ1UMaiKgG++bV9QM1EuD2QNw7HASDYD2Hz6X2/cAo8chWc37nZG1va0qhL8o2tcqGjDcNBBWWvidAR2B1kyQcfViYcFZWs0PVICTG5mqF/Ag8WfHjLLydKdfzWC8uX54B/eILg6DqASOJ/pQnkcApDfIb5iJjbieRxoNFF/rWVgInYbk96xZ+IOi/WvYAM5JwJj8joG2hdqVZV4t+sYKlB3XxNxf/bkxmPADV2MwuJNOlFlNOmL1JOAxOoNPN/Hg0SRo/4YWG9mxeBpd4OkDWNjxYfZGSKkN1OJPivanYYnaWvx+kB0HOB84GEwzaupCnk0zqoSOw1DWHPGwp6CXZnfWIZ2VNzMrx6bbeLFUiZAAnG0wJNWOhTrQiqowfx8MQhIrAhH8JdE+NCIASRM7smOYdgwhWiyFTnixyGGxipg5UO1B+a/fzu90rBnd1582O9oFupAJ+hKAVkEjGzefEWYFQtLZhuMfhk2LbF6/LdpvRhym1+H/JCSQ5XcidAAqsWAEtBcLvmxThzyaK1AOg7LiR563r6UHKe6LVWtLXs/N0FS6r3/M3Tmfa1qwbq1dgN6ZJNz/qGg/GdEA2XEggq4hD3yXDSLYEOlAnsmOoS0ZnMf9cH6/rvX8Nl4tPevOHaKJx1/sVnMFTiIKLeF4x7gGVwk+uNYDLUrQRjdsYm3TavE/ifaNUYVAI/4QZFZZjRdpU6cZ1Ss9jd2o36tFD+dyr8qKvZgtWAlmJsAxascF5kYApJnZIFFeiybR+qoIWmtjY9kcjOSuEO0Loxozo/ivyJdRw/2lhdBpT6cZDcmOHZcVD13ruSk/rTSjk3cwsON1g2Ebg8VG81w5vhOxEW1NKXQAynd5J2ZDMQ9sPlMS+AOi17/EEKrqcl8jzr3KBhH4Izu2QQReNAKtZIOs/Esz1pWE5HbERsyjhAdiI228F3Hok7xRJGw2VQ3446LXu4QBNNkxce53eZ2wOoJW1ieRZ9OM4Pw+x6ItGVwrVuq1np8W5+wdYGVqj0GOIZ5mxjPgk9owlgbDw6yH/2jFrCj+WCCkTIbrQM6znCo7jqXQIa8WO8iO6bZk2rDQSr3W89vgag+Gfjh1fN4x3mbGM+Kb2vX7YVOB5LPodS1hE8EI/vtgSInZSOocg2lGnsmOM4M7PTh9pGNknfOdWmHun8U0I715ITaKZ9BRqA3hHXGnbh4hZUp1/TAd3iFxEYFQ7lvkC+UWbaiy43bk2TQjaaUWbrfOA/C2Jze1NFIg10N28sP8u77SNCOE/1b0upXwEIVpRmSX584PRJUV9V3KFtHOMpKN1XaMbtXtxCIdaGVVGG3idvww2jg9nLtM9FqV8BGvR/AfqRVbNmTHQ2XFx0U7y0g2rRbgkuv55u6ZGbSYt+zKUxzxHYHNYXwSv0/0+pQoE6rr8L8R5+62kR8YgCsjGPEk2llGqkE1oJshpYQ01BoP3pkUQ9qSGuhFIXo9SgjCkOx4Oy8RVEVQX6RTWSXaWaQVG1zr2ZlKRb7z5LQw/lfR60+iAvByLf5dsngesys7bkwpnsmOpTmzhk6lrzqCVvMn+NAeea0nYQiQHUNIyFsSCqFmTRPqins07VgavzWlFPtdeULKZGhNL3qdSVQ4AmH8X2TB9NjYVQ54WVYsjW2FrjxhdJz/+1GaYFSd6HUlMYwAIaJaVhxG+23kB9ZHOpFn04ykFVu4HfUGI2iLjXN+b7AOf1n0WpIYxhiadmxbdgwDIkQ7zEixxi60E56pDccfkF15JDyFXdkxSEY9lR2PQounFXtdeUIoB63jAo34j0WvF4kRikAo93Xi3Hayzv2QHxDtTMPJtK485EjFreok1l4dxp8XvT4kRgEK045ttI0C2XFDUvFMdjxSLdqJNpBntcZGpLUFWsSJXhMSoxBvxvAfOJQdezPNaARZLK0cmNWIUjY6P5+SwzYkKgLVtfgfyGKMc4erIXQUZMfQkUa044k2p8M2ICcj+nuXkCgCyI7JDraeO3yNoO2hdmXUyo5h2EbQxvQn4vzLA3X4C6K/ZwkJJpzKjhu60FbRDlkua+xGO6rrbQ3b2FcVQndA7kX09yshwQUpOy41Eu4fg9JpGzkTddjGlLn4I6K/TwkJRwiE8b+TBZ/iv84agbLjoa48ZCc/xP8clDaYFC36+5OQ8AQgO4ZWY7wOoMqOO9Bq4c7r0qJJtI58Fu52bOT4tCkQzl0u+vuSkPAcmuw4yNmHfig/sJScmfeIdmS71tSN9tsathFCR+HZwERo0d+ThISvmFaL/yJoR3YcQqfh7AwDK0U7tpUl0ugMXHGSz3aK88ij8jDN6AAAAkpJREFUduWRwzYkRh3IGfe/iaMsspEf2F/JsuOhrjzcwzbIZ18SqMP/I/p7kJAQBoey43X1nUrFyI4bkmhbdRQtt0Fke2VXHgkJHTTZsY159GpZMTlrvyvK8eNpdMRWV54wOgOl03LYhoQEA1W1+NNQ6sodRmuyY4+mGXE5fhblFrSgFAnhB/jDfaUpWIv/RvTzlZAYFphel/smiQa4VXHBCNpZu1Dp8dv5Ix2otyqMNtsI9/uCodylop+nhMSwAwyqgBJYO7LjGVHUW59Em712fOhwJIdtSEgIADkW/CGUxPIOtoSfA2ltLI0G3Dq+NmyDtyWa1pVHDtuQkPAYgRD+LCGChI3w+wiUFcOZ3YHj5+FIQV6jn//3KZ1VdfhfRD8nCYkRjaGy4q28jlkVQdtC7coyXuePdqK+KjtdeUJw949uFv1cJCRGDQqy4xB/f3woK27qQsxpRo6GbciuPBIS4hAI408QZ5zN20oLJLYzo8riBa1KOtSBVoLg6J0WlJlZDwk+vqGaQyXM86CkWfTnl5CQIKiK4v8gO3LaxnndmYXQikAEf0n055WQkKAApbXQIZeE8Dt9cPzDctiGhMQwQKARf0gtK+YM6a2ODGpno1r8UdGfS0JCwgaCYfyXQVvTjkusLViHPyf6c0hISLgASG7JTr7Yxq6/WQ7bkJAYQShMMwqhA8zs/tCwjSkJ/AHR71dCQsIHgBQ3GEK3B0JKPcw4JLaOnPFjhBzuhZJj0e9PQkJCQkJCQkJCQkJCQkJCQkJCQmLU4v8Dyzezn/zqaEIAAAAASUVORK5CYII=;direction=east;" parent="49" vertex="1">
                    <mxGeometry y="12" width="60" height="60" as="geometry"/>
                </mxCell>
                <mxCell id="50" value="" style="group" parent="1" vertex="1" connectable="0">
                    <mxGeometry x="230" y="10" width="360" height="40" as="geometry"/>
                </mxCell>
                <mxCell id="2" value="" style="shape=note;whiteSpace=wrap;html=1;backgroundOutline=1;fontColor=#ffffff;darkOpacity=0.05;fillColor=#1E1E96;strokeColor=none;fillStyle=solid;direction=west;gradientDirection=north;shadow=1;size=20;pointerEvents=1;gradientColor=#007FFF;" parent="50" vertex="1">
                    <mxGeometry width="360" height="40" as="geometry"/>
                </mxCell>
                <mxCell id="3" value="&lt;font style=&quot;font-size: 15px;&quot; color=&quot;#000000&quot;&gt;&lt;b&gt;Project-101 Web Architecture&lt;/b&gt;&lt;/font&gt;" style="text;strokeColor=none;align=center;fillColor=none;html=1;verticalAlign=middle;whiteSpace=wrap;rounded=0;" parent="50" vertex="1">
                    <mxGeometry x="40" y="5" width="280" height="30" as="geometry"/>
                </mxCell>
                <mxCell id="55" style="edgeStyle=orthogonalEdgeStyle;html=1;" edge="1" parent="1" source="46" target="5">
                    <mxGeometry relative="1" as="geometry">
                        <mxPoint x="250" y="410" as="targetPoint"/>
                    </mxGeometry>
                </mxCell>
                <mxCell id="59" style="edgeStyle=orthogonalEdgeStyle;html=1;entryX=0;entryY=0.5;entryDx=0;entryDy=0;" edge="1" parent="1" source="12" target="39">
                    <mxGeometry relative="1" as="geometry"/>
                </mxCell>
                <mxCell id="63" style="edgeStyle=elbowEdgeStyle;elbow=vertical;html=1;exitX=0.5;exitY=1;exitDx=0;exitDy=0;entryX=0.5;entryY=0;entryDx=0;entryDy=0;" edge="1" parent="1" source="39" target="30">
                    <mxGeometry relative="1" as="geometry">
                        <mxPoint x="670" y="490" as="targetPoint"/>
                    </mxGeometry>
                </mxCell>
                <mxCell id="68" style="edgeStyle=orthogonalEdgeStyle;html=1;entryX=1;entryY=0;entryDx=0;entryDy=0;" edge="1" parent="1" source="36" target="8">
                    <mxGeometry relative="1" as="geometry">
                        <mxPoint x="420" y="720" as="targetPoint"/>
                    </mxGeometry>
                </mxCell>
                <mxCell id="75" style="edgeStyle=orthogonalEdgeStyle;html=1;elbow=vertical;" edge="1" parent="1" source="40" target="18">
                    <mxGeometry relative="1" as="geometry"/>
                </mxCell>
            </root>
        </mxGraphModel>
    </diagram>
</mxfile>